<?xml version="1.0" standalone="no"?>
<!DOCTYPE svg PUBLIC "-//W3C//DTD SVG 1.1//EN" "http://www.w3.org/Graphics/SVG/1.1/DTD/svg11.dtd" >
<svg>
<metadata>
Created by FontForge 20110222 at Tue Dec 11 03:49:44 2012
 By Orthosie Webmaster
Copyright (c) 1981, 1982, 1983, 1989 and 1993, Linotype Library GmbH or its affiliated Linotype-Hell companies. All rights reserved.The digitally encoded machine readable software for producing the Typefaces licensed to you is now the property of Heidelberger Druckmaschinen AG and its licensors, and may not be reproduced, used, displayed, modified, disclosed or transferred without the express written approval of Heidelberger Druckmaschinen AG.Copyright (c) 1988, 1990, 1993 Adobe Systems Incorporated. All Rights Reserved.
</metadata>
<defs>
<font id="DidotItalic" horiz-adv-x="278" >
  <font-face 
    font-family="DidotItalic"
    font-weight="400"
    font-style="italic"
    font-stretch="normal"
    units-per-em="1000"
    panose-1="2 0 5 3 0 0 0 9 0 3"
    ascent="800"
    descent="-200"
    x-height="429"
    cap-height="712"
    bbox="-369 -290 1311 962"
    underline-thickness="50"
    underline-position="-75"
    slope="-12"
    unicode-range="U+0008-FB02"
  />
<missing-glyph horiz-adv-x="500" 
d="M442 8h-384v496h384v-496zM50 512v-512h400v512h-400z" />
    <glyph glyph-name="fi" unicode="fi" horiz-adv-x="574" 
d="M392 90l118 339h-280l42 122q13 39 33.5 74.5t45.5 62t54 42.5t60 16q23 0 32.5 -7.5t9.5 -19.5q0 -10 -4.5 -16.5t-9.5 -13t-9.5 -13.5t-4.5 -19q0 -15 11.5 -22t30.5 -7q28 0 40 15t12 33q0 14 -5.5 28.5t-18 27t-32 20.5t-47.5 8q-49 0 -93.5 -21t-81 -56t-64.5 -80
t-44 -93l-27 -81h-93l-4 -14h93l-142 -438q-14 -47 -31.5 -87t-37.5 -69t-43 -45.5t-48 -16.5q-21 0 -28 9t-7 23q0 11 7 18t7 24q0 16 -9.5 22t-19.5 6q-19 0 -33 -13t-14 -36q0 -35 25 -51t60 -16q54 0 98 33t77.5 82t58 106t40.5 106l110 343h210l-109 -310
q-7 -18 -9.5 -31t-2.5 -27q0 -32 19.5 -45.5t52.5 -13.5q30 0 52 12t37 28.5t23.5 33t12.5 24.5l-12 5q-4 -9 -13 -24t-21.5 -29.5t-28 -25.5t-32.5 -11q-14 0 -21 8.5t-7 20.5q0 14 5 29.5t10 30.5z" />
    <glyph glyph-name="fl" unicode="fl" horiz-adv-x="574" 
d="M163 429q12 38 24.5 72.5t29 66.5t39 63t55.5 61q48 43 92.5 58.5t76.5 15.5q17 0 33 -3q8 -1 15.5 -2t15.5 -1h80l-238 -670q-5 -15 -10 -30.5t-5 -29.5q0 -12 7 -20.5t21 -8.5q16 0 31.5 11t28.5 25.5t22 29.5t13 24l12 -5q-4 -8 -12.5 -24.5t-23.5 -33t-37 -28
t-52 -11.5q-33 0 -52.5 13t-19.5 45q0 14 2.5 27t9.5 31l215 617q0 11 -7 17t-16.5 9t-19 3.5t-14.5 0.5q-38 0 -69.5 -19.5t-56.5 -49t-43.5 -65t-30.5 -67.5l-46 -122h103l-4 -14h-104l-136 -392q-17 -48 -44.5 -97.5t-61.5 -89.5t-73.5 -65t-80.5 -25q-17 0 -33.5 3.5
t-29 12t-20.5 21.5t-8 31q0 23 14 35.5t33 12.5q10 0 19.5 -6t9.5 -22q0 -11 -2 -16.5t-5 -9.5t-5 -8t-2 -11q0 -11 5 -20t30 -9t49.5 18.5t47.5 52t44.5 81t41.5 105.5l137 398h-94l4 14h95z" />
    <glyph glyph-name=".notdef" horiz-adv-x="500" 
d="M442 8h-384v496h384v-496zM50 512v-512h400v512h-400z" />
    <glyph glyph-name=".null" horiz-adv-x="0" 
 />
    <glyph glyph-name="nonmarkingreturn" horiz-adv-x="240" 
 />
    <glyph glyph-name="controlGS" horiz-adv-x="0" 
 />
    <glyph glyph-name="controlGS" horiz-adv-x="0" 
 />
    <glyph glyph-name="controlGS" horiz-adv-x="0" 
 />
    <glyph glyph-name="space" unicode=" " horiz-adv-x="240" 
 />
    <glyph glyph-name="exclam" unicode="!" horiz-adv-x="315" 
d="M34 34q0 -20 13.5 -33t33.5 -13t33.5 13t13.5 33t-13.5 33.5t-33.5 13.5t-33.5 -13.5t-13.5 -33.5zM208 677l-90 -499h7l160 455q6 17 10 29.5t4 23.5q0 21 -13.5 30t-30.5 9q-15 0 -28.5 -9.5t-18.5 -38.5z" />
    <glyph glyph-name="quotedbl" unicode="&#x22;" horiz-adv-x="444" 
d="M346 656l15 -220h18l15 220q1 5 1 15v16q0 17 -5 27.5t-20 10.5t-20 -10.5t-5 -27.5v-16q0 -10 1 -15zM214 656l15 -220h18l15 220q1 5 1 15v16q0 17 -5 27.5t-20 10.5t-20 -10.5t-5 -27.5v-16q0 -10 1 -15z" />
    <glyph glyph-name="numbersign" unicode="#" horiz-adv-x="556" 
d="M155 255l72 198h169l-72 -198h-169zM62 0l86 237h169l-86 -237h21l86 237h133l7 18h-133l72 198h133l7 18h-133l87 241h-21l-87 -241h-169l87 241h-21l-87 -241h-133l-7 -18h133l-72 -198h-133l-6 -18h132l-86 -237h21z" />
    <glyph glyph-name="dollar" unicode="$" horiz-adv-x="630" 
d="M53 198l-53 -198l14 -3q6 11 16 20.5t27 9.5q12 0 25.5 -5.5t31.5 -12.5t41.5 -13.5t55.5 -8.5l-20 -72h14l20 72q32 0 67.5 3t67.5 14q66 25 107 76t41 117q0 30 -8 53.5t-22.5 43.5t-35 38t-45.5 38l-56 45l79 295q39 -4 64.5 -18t40 -33t20 -41t5.5 -43
q0 -12 -1.5 -24.5t-3.5 -20.5h16l48 182l-14 4q-3 -10 -12 -17.5t-24 -7.5q-18 1 -31.5 5.5t-27 10t-31.5 10.5t-45 7l15 57h-14l-15 -56q-41 0 -69.5 -4t-60.5 -17q-47 -20 -79 -61t-32 -106q0 -45 25.5 -86.5t73.5 -80.5l38 -31l-91 -339q-40 3 -68.5 18.5t-47 37.5
t-27.5 48t-9 50q0 11 1 22.5t3 21.5h-14zM229 0l89 329l48 -39q42 -34 59 -63t17 -65q0 -28 -12 -57t-37.5 -52.5t-66 -38t-97.5 -14.5zM406 711l-77 -286l-15 12q-47 37 -65 67t-18 64q0 69 46.5 106t128.5 37z" />
    <glyph glyph-name="percent" unicode="%" horiz-adv-x="778" 
d="M60 492q0 -63 33 -93.5t84 -30.5q46 0 82 20.5t61 52t38 69.5t13 73q0 25 -8 47t-23.5 38.5t-38 26t-51.5 9.5q-48 0 -83.5 -23t-59 -56t-35.5 -69.5t-12 -63.5zM116 460q0 33 7 73t22 75t40 58.5t61 23.5q37 0 53 -20t16 -55q0 -6 -2 -25.5t-7.5 -45.5t-14.5 -54.5
t-24 -52.5t-35.5 -39.5t-48.5 -15.5q-37 0 -52 23t-15 55zM463 78q0 33 7 73t22 75t40 58.5t61 23.5q37 0 53 -20t16 -55q0 -6 -2 -25.5t-7.5 -45.5t-14.5 -54.5t-24 -52.5t-35.5 -39.5t-48.5 -15.5q-37 0 -52 23t-15 55zM601 723l-433 -723l17 -11l433 723zM407 110
q0 -63 33 -93t84 -30q46 0 82 20t61 51.5t38 69.5t13 73q0 25 -8 47t-23.5 38.5t-38 26t-51.5 9.5q-48 0 -83.5 -23t-59 -56t-35.5 -69.5t-12 -63.5z" />
    <glyph glyph-name="ampersand" unicode="&#x26;" horiz-adv-x="852" 
d="M504 711q29 0 46 -16.5t17 -41.5t-18 -46.5t-43.5 -38.5t-52 -29t-44.5 -18q1 34 4 68t12 61t27.5 44t51.5 17zM274 463l57 22q-3 -26 -4.5 -56t-1.5 -53q0 -22 3 -54.5t11 -69.5t22.5 -76t37.5 -76q-8 -13 -20 -30t-28.5 -32.5t-37.5 -26.5t-48 -11t-46.5 15.5
t-32.5 40.5t-21 56t-12 61.5t-5.5 58t-1.5 45.5q0 30 5 57t19.5 50.5t39.5 43.5t64 35zM333 500l-64 -23q-42 -15 -80.5 -41t-68 -62t-47 -81.5t-17.5 -99.5q0 -57 19.5 -96t48.5 -63.5t63 -35.5t63 -11q51 0 84.5 22t59.5 60l13 19q14 -20 30.5 -38.5t36.5 -32.5t43.5 -22
t51.5 -8q34 0 60 15t44.5 37.5t31 50t20.5 52.5t12.5 44.5t6.5 25.5l-14 3q-1 -7 -5.5 -25.5t-13 -42.5t-20.5 -50t-28.5 -47.5t-37.5 -35.5t-47 -14q-19 0 -33 6.5t-24 15.5t-17 20t-12 20q-12 22 -22.5 52.5t-14.5 52.5l16.5 33l20 40t21.5 42.5t22 40.5q31 53 60.5 73
t50.5 20q14 0 22.5 -5.5t8.5 -19.5q0 -9 -1 -13.5t-2.5 -8.5t-3 -9.5t-1.5 -14.5q0 -34 36 -34q20 0 30 13.5t10 33.5q0 32 -24.5 52t-62.5 20q-37 0 -64.5 -18.5t-51 -51t-45 -76.5t-46.5 -95h-2l-14 63q-15 69 -19.5 134.5t-6.5 120.5q21 7 50.5 20t56.5 31t46 41.5
t19 51.5q0 32 -20.5 53t-59.5 21q-41 0 -70.5 -24t-50 -59t-32 -73.5t-15.5 -68.5z" />
    <glyph glyph-name="quotesingle" unicode="'" 
d="M197 656l15 -220h18l15 220q1 5 1 15v16q0 17 -5 27.5t-20 10.5t-20 -10.5t-5 -27.5v-16q0 -10 1 -15z" />
    <glyph glyph-name="parenleft" unicode="(" 
d="M396 710l-16 13q-96 -75 -160 -165t-102 -183t-54 -184.5t-16 -169.5q0 -42 3.5 -80.5t10.5 -76t18 -75.5t25 -79l20 10q-2 4 -11 28.5t-19.5 64t-18.5 91t-8 108.5q0 212 83 389t245 309z" />
    <glyph glyph-name="parenright" unicode=")" 
d="M-165 -277l16 -13q96 75 159.5 164.5t102 183t54 184.5t15.5 169q0 43 -3.5 81.5t-10.5 76t-18 75.5t-25 79l-20 -10q2 -4 11 -28.5t19.5 -64t18.5 -91t8 -109.5q0 -212 -82.5 -388.5t-244.5 -308.5z" />
    <glyph glyph-name="asterisk" unicode="*" horiz-adv-x="444" 
d="M70 486q1 -17 10 -28.5t26 -11.5t34 12.5t28 20.5q21 17 43.5 27t48.5 19q-9 -24 -22.5 -54.5t-29.5 -49.5q-10 -11 -18 -22.5t-8 -23.5q0 -17 13 -28.5t29 -11.5t28.5 11.5t12.5 26.5q0 9 -1 16t-2.5 14t-2.5 15.5t-1 21.5q0 43 8 83q21 -24 38.5 -50t27.5 -53
q14 -44 45 -44q17 0 29.5 11.5t12.5 29.5q0 20 -12.5 29t-29.5 14q-27 9 -53 26t-53 41q16 2 34 4t42 4q12 0 20.5 -1t15.5 -1.5t14.5 -1.5t18.5 -1q20 0 32 12.5t12 32.5q0 14 -10 26t-26 12q-15 0 -27 -8t-27 -22q-19 -17 -46 -29.5t-55 -20.5q7 23 17 49t27 46t26 34
t9 28q0 16 -10 25.5t-30 9.5q-21 0 -32.5 -12t-11.5 -32q0 -9 1 -15t2.5 -12.5t2.5 -15.5t1 -23t-2 -37.5t-6 -42.5q-4 4 -11.5 13t-17 21t-18.5 26.5t-16 27.5t-11.5 23.5t-9.5 18.5t-12.5 12.5t-20.5 4.5q-15 0 -26 -12.5t-10 -28.5q0 -17 11 -26.5t37 -19.5
q27 -11 50.5 -26t49.5 -38q-17 -3 -39 -6.5t-44 -3.5q-14 0 -22 1t-14.5 2.5t-13 2.5t-16.5 1q-22 0 -30 -13t-9 -29z" />
    <glyph glyph-name="plus" unicode="+" horiz-adv-x="593" 
d="M243 231v-231h20v231h230v18h-230v231h-20v-231h-230v-18h230z" />
    <glyph glyph-name="comma" unicode="," 
d="M-21 -147l4 -13q9 3 32 13.5t47.5 30.5t43.5 50.5t19 72.5q0 32 -18 53t-48 21q-26 0 -39.5 -14.5t-13.5 -38.5q0 -15 10 -27.5t29 -12.5q6 0 10 0.5t8 1.5q4 2 6.5 3t4.5 2q5 -13 5 -34q0 -23 -12 -41.5t-28.5 -32t-33 -22t-26.5 -12.5z" />
    <glyph glyph-name="hyphen" unicode="-" horiz-adv-x="370" 
d="M68 244l-16 -60h174l16 60h-174z" />
    <glyph glyph-name="period" unicode="." 
d="M6 34q0 -20 13.5 -33t33.5 -13t33.5 13t13.5 33t-13.5 33.5t-33.5 13.5t-33.5 -13.5t-13.5 -33.5z" />
    <glyph glyph-name="slash" unicode="/" horiz-adv-x="296" 
d="M355 730l-431 -738l18 -10l431 738z" />
    <glyph glyph-name="zero" unicode="0" horiz-adv-x="482" 
d="M80 110q0 31 8 86t23.5 119.5t37.5 131t49.5 120.5t59.5 88.5t68 34.5q35 0 57.5 -30t22.5 -93q0 -29 -8.5 -82.5t-24 -116.5t-37.5 -128t-49.5 -118.5t-59 -87.5t-65.5 -34q-37 0 -59.5 28t-22.5 82zM18 200q0 -103 38.5 -158t107.5 -55q48 0 101.5 42t98.5 112.5
t74.5 161.5t29.5 189q0 42 -8.5 80.5t-26.5 68t-45 46.5t-64 17q-53 0 -107.5 -44t-98.5 -115.5t-72 -162t-28 -182.5z" />
    <glyph glyph-name="one" unicode="1" horiz-adv-x="482" 
d="M319 624l-170 -610h-96l-4 -14h273l4 14h-107l193 690h-14q-23 -23 -56.5 -47t-69.5 -45.5t-69.5 -38.5t-55.5 -26l7 -12q15 6 35.5 16t43 22.5t45 25.5t41.5 25z" />
    <glyph glyph-name="two" unicode="2" horiz-adv-x="482" 
d="M-72 0h402l39 148h-15l-12 -38q-8 -28 -29.5 -36t-50.5 -8h-262v2l302 258q31 27 58 53.5t46.5 53.5t31 56t11.5 61q0 31 -14 59t-38 49t-56 33.5t-68 12.5q-43 0 -79.5 -13.5t-62.5 -33.5t-40.5 -43t-14.5 -41q0 -43 38 -43q20 0 31 11t11 28q0 8 -0.5 12t-1.5 7t-1.5 7
t-0.5 12q0 15 8 29.5t22.5 26.5t35.5 19.5t47 7.5q54 0 79 -35t25 -86q0 -60 -40 -123.5t-103 -129.5q-78 -81 -151.5 -154.5t-151.5 -148.5z" />
    <glyph glyph-name="three" unicode="3" horiz-adv-x="482" 
d="M113 361l4 -15q4 1 13.5 3.5t21 5t24 4.5t23.5 2q52 0 78 -33.5t26 -84.5q0 -43 -16 -87.5t-43.5 -81t-63.5 -60t-76 -23.5q-15 0 -25.5 2.5t-18 7.5t-13.5 14t-13 22q-12 23 -22 28.5t-22 5.5q-13 0 -24 -7t-11 -23q0 -9 5.5 -20.5t19.5 -21t37 -16t57 -6.5
q58 0 113.5 24.5t99 62.5t70 84t26.5 88q0 41 -15.5 67.5t-39.5 41.5t-53 21t-56 6l-1 2q21 7 58.5 23t73.5 41.5t63 60t27 78.5q0 27 -13 50t-34.5 40.5t-50.5 27t-61 9.5q-36 0 -66 -10.5t-51.5 -27t-34 -37.5t-12.5 -43q0 -19 9.5 -27t23.5 -8q25 0 34 13.5t9 40.5
q0 36 18.5 60.5t67.5 24.5q39 0 60 -24.5t21 -72.5q0 -58 -24.5 -106t-67.5 -74q-41 -25 -84.5 -35.5t-70.5 -16.5z" />
    <glyph glyph-name="four" unicode="4" horiz-adv-x="482" 
d="M209 14h-79l-4 -14h235l4 14h-80l43 161h106l4 14h-106l70 260h-76l-70 -260h-256q32 46 73 97.5t96 108t126.5 118.5t164.5 130q18 14 26 21t8 18q0 14 -13 18t-30 4q-15 0 -24.5 -2t-18 -7t-18 -15t-23.5 -25q-73 -77 -134.5 -148t-110 -131.5t-84 -108.5t-55.5 -78
l-4 -14h273z" />
    <glyph glyph-name="five" unicode="5" horiz-adv-x="482" 
d="M206 695l-87 -318q32 0 66 -3.5t61.5 -17t45 -40t17.5 -73.5q0 -54 -19 -100t-50 -80t-69 -53t-76 -19q-33 0 -44.5 10.5t-17.5 24.5q-3 6 -6 13t-8 13t-12.5 10t-20.5 4q-15 0 -25.5 -10.5t-10.5 -27.5q0 -15 10 -25.5t26.5 -17.5t38 -10.5t43.5 -3.5q60 0 117 26.5
t101.5 69.5t71.5 97t27 108q0 74 -55.5 122.5t-177.5 52.5l50 178q21 -2 45.5 -3.5t50.5 -1.5h43q28 0 48 11t34.5 26t24 31.5t16.5 26.5l-9 7q-9 -10 -26.5 -21t-54.5 -11q-35 0 -80.5 1t-87.5 4z" />
    <glyph glyph-name="six" unicode="6" horiz-adv-x="482" 
d="M78 98q0 26 6 60t15.5 70.5t22 73t25.5 66.5q9 7 20.5 16t25.5 16.5t30 13t33 5.5q45 0 66 -28.5t21 -74.5q0 -21 -5.5 -52.5t-15 -66t-21.5 -67.5t-25 -57q-40 -73 -111 -73q-48 0 -67.5 28t-19.5 70zM16 164q0 -35 8.5 -67t27 -56.5t47.5 -39t70 -14.5q48 0 92 24.5
t77.5 63.5t54 87.5t20.5 96.5q0 37 -12 68.5t-32.5 55t-47.5 37t-58 13.5q-36 0 -61 -12t-43 -26l-2 2l24 61q18 45 37 86t41.5 72t49 49.5t59.5 18.5q21 0 36.5 -7t15.5 -24q0 -7 -0.5 -11t-1.5 -7t-1.5 -7t-0.5 -10q0 -12 10.5 -21.5t29.5 -9.5q17 0 30.5 9t13.5 32
q0 13 -7 26.5t-21.5 24.5t-35 18t-47.5 7q-42 0 -86 -24t-85.5 -65t-78 -95.5t-64 -114.5t-43.5 -122t-16 -119z" />
    <glyph glyph-name="seven" unicode="7" horiz-adv-x="482" 
d="M140 690l-40 -153h14q4 17 9 32t13.5 26t22 18t34.5 7h260q-16 -35 -37.5 -75t-48.5 -82l-269 -402q-11 -16 -18 -27t-7 -21q0 -15 12.5 -20.5t33.5 -5.5q22 0 36 8t30 40l230 469q10 22 21.5 46t22 48.5t18.5 48t11 43.5h-348z" />
    <glyph glyph-name="eight" unicode="8" horiz-adv-x="482" 
d="M289 397l-44 35q-21 16 -34.5 30t-21.5 29t-11.5 31t-3.5 35q0 58 35.5 95.5t93.5 37.5q99 0 99 -99q0 -66 -29.5 -115.5t-83.5 -78.5zM210 363l55 -45q20 -17 36.5 -31.5t28 -30t18 -34t6.5 -43.5q0 -29 -10 -60.5t-31 -58t-53 -43.5t-77 -17q-28 0 -50 11t-37.5 29.5
t-24 43.5t-8.5 53q0 22 5 50t18.5 57.5t38 57.5t63.5 49zM341 354l-40 34q25 15 53.5 31t53 37t40.5 47.5t16 62.5q0 35 -14.5 61t-37.5 43t-51.5 25.5t-57.5 8.5q-44 0 -78.5 -16.5t-58 -43t-36 -60t-12.5 -67.5q0 -26 6 -46t17 -37t25.5 -31.5t32.5 -29.5l-49 -25
q-27 -14 -54 -33t-48 -42.5t-34 -51.5t-13 -60q0 -35 14 -66.5t38.5 -55.5t57.5 -38t72 -14q57 0 100.5 24t73 59t44.5 74t15 69q0 47 -21 79.5t-54 61.5z" />
    <glyph glyph-name="nine" unicode="9" horiz-adv-x="482" 
d="M142 386q0 39 10 91.5t31 99.5t53.5 80t77.5 33q51 0 72 -24t21 -69q0 -36 -6.5 -71t-16.5 -69t-21.5 -67t-21.5 -66q-20 -19 -48.5 -36t-63.5 -17q-48 0 -67.5 30t-19.5 85zM330 293l-18 -52q-23 -66 -43 -111t-41.5 -72.5t-46 -39.5t-56.5 -12q-21 0 -40.5 5t-19.5 26
q0 7 0.5 11t1.5 7t1.5 7t0.5 10q0 12 -10.5 21.5t-29.5 9.5q-20 0 -31.5 -9t-11.5 -32q0 -13 6 -26.5t20.5 -24.5t37.5 -17.5t56 -6.5q45 0 89 24t84.5 65t75 95t60 113.5t40 122t14.5 119.5q0 35 -8.5 67t-27 57t-47.5 39.5t-70 14.5q-48 0 -92 -25t-77.5 -64t-54 -87.5
t-20.5 -96.5q0 -37 11 -68.5t31 -55t47.5 -37t60.5 -13.5q38 0 63 12t43 26z" />
    <glyph glyph-name="colon" unicode=":" 
d="M108 393q0 -20 13.5 -33.5t33.5 -13.5t33.5 13.5t13.5 33.5t-13.5 33.5t-33.5 13.5t-33.5 -13.5t-13.5 -33.5zM12 34q0 -20 13.5 -33t33.5 -13t33.5 13t13.5 33t-13.5 33.5t-33.5 13.5t-33.5 -13.5t-13.5 -33.5z" />
    <glyph glyph-name="semicolon" unicode=";" 
d="M129 393q0 -20 13.5 -33.5t33.5 -13.5t33.5 13.5t13.5 33.5t-13.5 33.5t-33.5 13.5t-33.5 -13.5t-13.5 -33.5zM0 -147l4 -13q9 3 32.5 13.5t48 30.5t43.5 50.5t19 72.5q0 32 -18 53t-48 21q-26 0 -39.5 -14.5t-13.5 -38.5q0 -15 10 -27.5t29 -12.5q6 0 10 0.5t8 1.5
q4 2 6.5 3t4.5 2q5 -13 5 -34q0 -23 -12 -41.5t-28.5 -32t-33.5 -22t-27 -12.5z" />
    <glyph glyph-name="less" unicode="&#x3c;" horiz-adv-x="593" 
d="M-40 240l534 220v20l-567 -236v-8l567 -236v20z" />
    <glyph glyph-name="equal" unicode="=" horiz-adv-x="593" 
d="M13 163v-18h480v18h-480zM13 335v-18h480v18h-480z" />
    <glyph glyph-name="greater" unicode="&#x3e;" horiz-adv-x="593" 
d="M546 240l-535 -220v-20l568 236v8l-568 236v-20z" />
    <glyph glyph-name="question" unicode="?" horiz-adv-x="407" 
d="M50 34q0 -20 13.5 -33t33.5 -13t33.5 13t13.5 33t-13.5 33.5t-33.5 13.5t-33.5 -13.5t-13.5 -33.5zM144 233l-14 -54h13l17 64q6 24 18 43t26.5 34.5t30.5 27.5t31 23l77 57q27 21 43 43.5t24 43.5t10 39t2 30q0 30 -10.5 55.5t-31 44.5t-51 30t-70.5 11
q-37 0 -66.5 -10.5t-50.5 -27t-32.5 -36t-11.5 -37.5q0 -11 8.5 -24.5t26.5 -13.5q23 0 32 11t9 26q0 45 18 71.5t69 26.5q36 0 63.5 -20.5t27.5 -70.5q0 -39 -19 -94t-69 -112l-78 -90q-22 -25 -29.5 -47t-12.5 -44z" />
    <glyph glyph-name="at" unicode="@" horiz-adv-x="833" 
d="M528 447q0 -24 -7 -54.5t-16.5 -59.5t-18 -51.5t-11.5 -29.5q-6 -13 -14 -26t-19.5 -23.5t-26 -17.5t-32.5 -7q-21 0 -35.5 9.5t-23 24.5t-12 33.5t-3.5 35.5q0 35 12 75.5t33 75.5t48.5 58.5t57.5 23.5q18 0 30.5 -6.5t21 -16.5t12.5 -21.5t4 -22.5zM556 293l68 234h-59
l-19 -63q-6 28 -20 43t-29.5 22t-28.5 8t-18 1q-36 0 -74 -19.5t-68.5 -52.5t-50.5 -77t-20 -92q0 -30 10 -56t28 -45.5t42.5 -30.5t54.5 -11q82 0 124 89q1 -9 3.5 -24t11.5 -29.5t26.5 -25t47.5 -10.5q38 0 74 23.5t64.5 62t46 88t17.5 101.5q0 62 -24 116t-67.5 94
t-105 63t-137.5 23q-86 0 -162 -31t-132.5 -83.5t-89.5 -123t-33 -150.5q0 -81 31.5 -146t85 -110.5t123 -69.5t144.5 -24q59 0 106 10.5t83 26t61.5 32t42.5 28.5l-13 18q-66 -51 -136.5 -73t-134.5 -22q-78 0 -143.5 25.5t-112.5 70t-73 104t-26 128.5q0 68 28 134
t78.5 118t121 84t155.5 32q74 0 131.5 -22.5t97 -60.5t60 -88t20.5 -104q0 -47 -15.5 -92t-40 -80t-53.5 -56t-56 -21q-8 0 -17.5 2t-18 8t-14 17t-5.5 29q0 6 1.5 20.5t8.5 37.5z" />
    <glyph glyph-name="A" unicode="A" horiz-adv-x="722" 
d="M444 612l4 -304h-220l214 304h2zM-83 14l-4 -14h206l4 14h-101l196 280h230l6 -280h-109l-4 -14h308l4 14h-108l-18 714h-23l-502 -714h-85z" />
    <glyph glyph-name="B" unicode="B" horiz-adv-x="648" 
d="M244 392l110 306h42q57 0 88 -31.5t31 -82.5q0 -45 -13 -81t-37 -60.5t-56.5 -37.5t-71.5 -13h-93zM109 15l129 363h51q31 0 51.5 -2.5t40.5 -12.5q11 -5 22 -14.5t20.5 -23t15.5 -32.5t6 -44q0 -37 -14.5 -79.5t-45 -77.5t-77 -58.5t-111.5 -23.5q-22 0 -44 1.5t-44 3.5
zM264 698l-247 -684h-101l-4 -14h145q38 0 73.5 -1.5t72.5 -1.5q59 0 118.5 13.5t107 40.5t77 67t29.5 92q0 46 -21.5 77.5t-50 51t-56.5 29.5t-41 13l2 2q14 0 37.5 3.5t50 11.5t54 21t49.5 32.5t36 46t14 60.5q0 38 -17.5 67t-48 48.5t-73 29t-93.5 9.5h-225l-4 -14h116z
" />
    <glyph glyph-name="C" unicode="C" horiz-adv-x="648" 
d="M632 519l69 193l-15 3q-6 -12 -16 -20.5t-26 -8.5q-15 0 -31 6t-35.5 13.5t-44.5 13.5t-58 6q-44 0 -92 -17t-94.5 -47t-88.5 -72t-73.5 -92.5t-50 -107.5t-18.5 -118q0 -54 12.5 -105t41 -90.5t75 -64t114.5 -24.5q56 0 97 20.5t69.5 47.5t44.5 53.5t22 38.5l-13 7
q-12 -22 -30.5 -49t-45.5 -50t-62 -39t-80 -16q-81 0 -125 39.5t-44 120.5q0 40 10.5 96t31 117t50 121.5t67 108.5t82.5 78t97 30q32 0 60 -7.5t48.5 -22.5t32.5 -38.5t12 -55.5q0 -20 -2 -39t-4 -29h13z" />
    <glyph glyph-name="D" unicode="D" horiz-adv-x="796" 
d="M116 15l244 683h86q45 0 73 -6t52 -18q32 -17 55.5 -55.5t23.5 -95.5q0 -66 -15.5 -133.5t-45.5 -128.5t-72.5 -112t-96.5 -85q-26 -16 -48.5 -26.5t-44 -16.5t-43.5 -8.5t-48 -2.5q-31 0 -61 2t-59 3zM270 698l-246 -684h-102l-4 -14h168h42t43 -1q21 -1 42 -1.5
t42 -0.5q106 0 194 39t151.5 102t98.5 142t35 160q0 54 -16 103t-49.5 86.5t-85 60t-122.5 22.5h-302l-4 -14h115z" />
    <glyph glyph-name="E" unicode="E" horiz-adv-x="685" 
d="M264 698l-245 -684h-103l-4 -14h581l70 196h-14q-8 -15 -26 -45t-44.5 -60.5t-61 -53.5t-74.5 -23h-234l129 361h68q38 0 60 -19.5t22 -57.5q0 -19 -4 -40t-9 -33h14l105 291h-14q-5 -9 -16 -30t-28.5 -42.5t-42 -38t-56.5 -16.5h-94l111 309h211q48 0 64 -23.5t16 -60.5
q0 -19 -4 -40t-8 -32h14l61 170h-556l-4 -14h116z" />
    <glyph glyph-name="F" unicode="F" horiz-adv-x="667" 
d="M267 698l-245 -684h-101l-4 -14h308l4 14h-117l124 345h101q49 0 71.5 -18.5t22.5 -58.5q0 -23 -4.5 -43t-7.5 -31h14l104 292h-14q-5 -11 -16 -32t-28 -42t-41 -37t-55 -16h-142l118 325h218q48 0 64 -20t16 -55q0 -21 -3.5 -45t-6.5 -36h14l61 170h-565l-4 -14h114z
" />
    <glyph glyph-name="G" unicode="G" horiz-adv-x="722" 
d="M501 0l84 234h80l4 14h-285l-4 -14h114l-49 -139q-14 -39 -48.5 -67t-93.5 -28q-81 0 -125 39.5t-44 120.5q0 40 10.5 96t31 117t50 121.5t67 108.5t82.5 78t97 30q32 0 60 -7.5t48.5 -22.5t32.5 -38.5t12 -55.5q0 -20 -2 -39t-4 -29h13l69 193l-15 3q-6 -12 -16 -20.5
t-26 -8.5q-15 0 -31 6t-35.5 13.5t-44.5 13.5t-58 6q-44 0 -92 -17t-94.5 -47t-88.5 -72t-73.5 -92.5t-50 -107.5t-18.5 -118q0 -54 12.5 -105t41 -90.5t75 -64t114.5 -24.5q32 0 56.5 6t43.5 13t33 13t24 6q15 0 20.5 -7.5t6.5 -17.5h16z" />
    <glyph glyph-name="H" unicode="H" horiz-adv-x="796" 
d="M-80 14l-4 -14h307l4 14h-115l124 343h322l-124 -343h-104l-4 -14h310l4 14h-115l246 684h103l4 14h-308l-4 -14h115l-118 -327h-322l117 327h104l4 14h-309l-4 -14h114l-245 -684h-102z" />
    <glyph glyph-name="I" unicode="I" horiz-adv-x="389" 
d="M-78 14l-4 -14h307l4 14h-114l245 684h105l4 14h-310l-4 -14h115l-246 -684h-102z" />
    <glyph glyph-name="J" unicode="J" horiz-adv-x="463" 
d="M353 698l-196 -549l-27 -64q-13 -31 -26 -48.5t-25 -25.5t-22 -9.5t-16 -1.5q-12 0 -20.5 5t-8.5 19q0 13 4 21t9.5 15.5t9.5 16.5t4 24q0 16 -11.5 26t-32.5 10q-24 0 -41 -18t-17 -50q0 -22 9 -38t23 -25.5t32.5 -14t37.5 -4.5q36 0 68.5 17.5t62.5 49.5q21 22 37 43
t28.5 42.5t22.5 44.5t19 49l167 465h103l4 14h-307l-4 -14h113z" />
    <glyph glyph-name="K" unicode="K" horiz-adv-x="704" 
d="M244 366l176 -352h-108l-4 -14h304l4 14h-95l-206 397l370 287h69l4 14h-207l-4 -14h111v-2l-408 -316h-8l114 318h103l4 14h-307l-4 -14h114l-245 -684h-102l-4 -14h306l4 14h-114l126 352h7z" />
    <glyph glyph-name="L" unicode="L" horiz-adv-x="630" 
d="M265 698l-245 -684h-103l-4 -14h581l70 196h-14q-9 -15 -27.5 -45.5t-45 -61t-60.5 -53t-73 -22.5h-234l245 684h105l4 14h-310l-4 -14h115z" />
    <glyph glyph-name="M" unicode="M" horiz-adv-x="852" 
d="M393 14l-4 -14h309l4 14h-114l245 684h103l4 14h-207l-383 -555h-2l12 555h-214l-4 -14h115l-245 -684h-103l-4 -14h232l4 14h-114l243 684h3l-14 -698l482 698h2l-246 -684h-104z" />
    <glyph glyph-name="N" unicode="N" horiz-adv-x="704" 
d="M261 662l172 -675h7l252 711h103l4 14h-234l-4 -14h115l-196 -550h-2l-142 564h-189l-4 -14h114l-244 -684h-102l-4 -14h231l4 14h-114l231 648h2z" />
    <glyph glyph-name="O" unicode="O" horiz-adv-x="778" 
d="M136 158q0 43 10.5 101t30.5 119.5t50 121t69 106.5t86.5 76t103.5 29q81 0 118 -43t37 -121q0 -38 -9.5 -93.5t-28 -116.5t-47.5 -121t-67.5 -108t-87 -78t-107.5 -30q-47 0 -77.5 13t-48.5 34.5t-25 50.5t-7 60zM60 273q0 -70 17 -123.5t47 -89.5t72 -54.5t92 -18.5
q56 0 109.5 18t101.5 50t89 75t70.5 92.5t46 104t16.5 108.5q0 50 -12 101.5t-39.5 93.5t-72 68.5t-109.5 26.5q-50 0 -101 -17.5t-98.5 -48.5t-89.5 -73.5t-72.5 -93t-48.5 -106.5t-18 -113z" />
    <glyph glyph-name="P" unicode="P" horiz-adv-x="630" 
d="M221 322l134 376h39q69 0 108.5 -32.5t39.5 -98.5q0 -48 -17.5 -93.5t-49 -81t-76 -57t-97.5 -21.5q-23 0 -45 3t-36 5zM265 698l-245 -684h-103l-4 -14h307l5 14h-115l106 294q18 -3 44 -5.5t49 -2.5q53 0 110.5 14.5t105 43.5t78.5 71.5t31 99.5q0 38 -16 71t-46.5 58
t-75 39.5t-102.5 14.5h-240l-4 -14h115z" />
    <glyph glyph-name="Q" unicode="Q" horiz-adv-x="778" 
d="M136 158q0 43 10.5 101t30.5 119.5t50 121t69 106.5t86.5 76t103.5 29q81 0 118 -43t37 -121q0 -38 -9.5 -93.5t-28 -116.5t-47.5 -121t-67.5 -108t-87 -78t-107.5 -30q-47 0 -77.5 13t-48.5 34.5t-25 50.5t-7 60zM571 -190h40v14h-12q-23 0 -47 7.5t-49 36.5
q-18 20 -32.5 33.5t-31 22t-38 13t-52.5 7.5q-13 1 -23.5 3t-21.5 6.5t-24 12t-30 21.5l2 2q8 -1 16.5 -1.5t19.5 -0.5q56 0 109.5 18t101.5 50t89 75t70.5 92.5t46 104t16.5 108.5q0 50 -12 101.5t-39.5 93.5t-72 68.5t-109.5 26.5q-50 0 -101 -17.5t-98.5 -48.5
t-89.5 -73.5t-72.5 -93t-48.5 -106.5t-18 -113q0 -70 15 -118.5t38 -80.5t50 -50.5t52 -29.5q20 -10 33.5 -20t31.5 -32l41 -48q21 -26 51 -42.5t64 -25.5t69 -12.5t66 -3.5z" />
    <glyph glyph-name="R" unicode="R" horiz-adv-x="648" 
d="M245 392l110 306h42q50 0 84 -27.5t34 -83.5q0 -37 -8 -64.5t-20 -48t-27 -34.5t-29 -23q-17 -11 -48 -18t-71 -7h-67zM264 698l-244 -684h-102l-5 -14h307l5 14h-115l131 364h41q43 0 70 -7t42 -19t20.5 -28.5t5.5 -34.5q0 -19 -3.5 -45t-7.5 -52q-5 -27 -8.5 -51
t-3.5 -39q0 -30 9.5 -50.5t26.5 -33t39.5 -18t49.5 -5.5q15 0 29.5 2t19.5 3l-4 13q-4 -2 -12.5 -3.5t-16.5 -1.5q-23 0 -38 16.5t-15 44.5q0 25 4 48t8.5 45.5t8.5 46t4 48.5q0 36 -17 59t-40.5 37t-48.5 20t-41 8l2 3q9 1 31 4t49 10.5t56 19.5t53 30.5t39.5 45.5t15.5 63
q0 43 -20 72.5t-50.5 48t-68 26.5t-72.5 8h-243l-6 -14h115z" />
    <glyph glyph-name="S" unicode="S" horiz-adv-x="593" 
d="M22 197l-70 -198l14 -3q2 12 13 21.5t24 9.5q19 0 38.5 -6t42 -14t50 -14t63.5 -6q69 0 121 20t86.5 51.5t52 70.5t17.5 77q0 49 -25.5 89t-61.5 72l-89 80q-30 27 -54 58.5t-24 74.5q0 29 12 53t33.5 41t51.5 27t66 10q29 0 55.5 -7t46.5 -22.5t32 -40.5t12 -61
q0 -22 -3.5 -36.5t-5.5 -22.5h12l69 191l-15 3q-5 -12 -13 -19t-23 -7q-17 0 -33.5 5.5t-36 12.5t-43 12.5t-54.5 5.5q-44 0 -85.5 -14t-73.5 -39t-51 -60t-19 -77q0 -54 27.5 -96.5t75.5 -85.5l71 -65q29 -27 45.5 -55.5t16.5 -65.5q0 -36 -12.5 -66.5t-36.5 -53t-59 -35
t-79 -12.5q-33 0 -65 9t-58 26t-42 43t-16 60q0 17 4 30.5t9 28.5h-13z" />
    <glyph glyph-name="T" unicode="T" horiz-adv-x="685" 
d="M411 698l-245 -684h-105l-4 -14h309l4 14h-114l245 684h99q51 0 71.5 -26.5t20.5 -64.5q0 -24 -2 -48t-7 -44h14l70 197h-603l-70 -197h14q9 15 26.5 45.5t43.5 61t60 53.5t75 23h98z" />
    <glyph glyph-name="U" unicode="U" horiz-adv-x="741" 
d="M147 712l-4 -14h114l-132 -368q-20 -53 -30.5 -93.5t-10.5 -83.5q0 -27 10 -56.5t34 -53.5t63 -40t96 -16q111 0 179 57.5t107 183.5l147 470h104l4 14h-234l-4 -14h114l-142 -457q-13 -42 -33.5 -84.5t-52 -77.5t-76 -57t-105.5 -22q-32 0 -57 10t-41.5 27.5t-25 40.5
t-8.5 48q0 38 8 70.5t23 74.5l153 427h105l4 14h-309z" />
    <glyph glyph-name="V" unicode="V" horiz-adv-x="704" 
d="M383 712h-309l-4 -14h109l4 -711h26l497 711h83l4 14h-202l-4 -14h99l-413 -593h-2v593h108z" />
    <glyph glyph-name="W" unicode="W" horiz-adv-x="1037" 
d="M190 698l-8 -711h25l324 482h2l-4 -482h20l478 711h89l4 14h-205l-4 -14h96l-389 -582h-2l6 582h112l4 14h-303l-4 -14h105l-2 -198l-261 -391h-2l6 589h97l4 14h-294l-4 -14h110z" />
    <glyph glyph-name="X" unicode="X" horiz-adv-x="685" 
d="M311 338l86 -324h-108l-4 -14h305l4 14h-106l-101 388l258 296h80l4 14h-195l-4 -14h95l-245 -282l-74 282h106l4 14h-306l-4 -14h107l91 -345l-298 -339h-75l-4 -14h194l4 14h-99z" />
    <glyph glyph-name="Y" unicode="Y" horiz-adv-x="648" 
d="M168 14h-112l-4 -14h309l4 14h-115l117 325l318 359h78l4 14h-196l-4 -14h98l-305 -343l-65 343h111l4 14h-308l-4 -14h109l71 -375z" />
    <glyph glyph-name="Z" unicode="Z" horiz-adv-x="648" 
d="M554 698l-603 -698h535l71 196h-14q-9 -15 -27.5 -45.5t-44.5 -61t-59 -53t-72 -22.5h-273l604 698h-479l-69 -195h14q9 17 27.5 47.5t44.5 60t59.5 51.5t72.5 22h213z" />
    <glyph glyph-name="bracketleft" unicode="[" 
d="M216 712l-264 -991h123l6 20h-103l254 951h102l6 20h-124z" />
    <glyph glyph-name="backslash" unicode="\" horiz-adv-x="296" 
d="M161 -18l20 10l-46 738l-20 -10z" />
    <glyph glyph-name="bracketright" unicode="]" 
d="M-14 -279l264 991h-124l-6 -20h104l-254 -951h-102l-6 -20h124z" />
    <glyph glyph-name="asciicircum" unicode="^" horiz-adv-x="593" 
d="M106 305h21l156 369l156 -369h21l-173 407h-8z" />
    <glyph glyph-name="underscore" unicode="_" horiz-adv-x="500" 
d="M0 -105h500v31h-500v-31z" />
    <glyph glyph-name="grave" unicode="`" 
d="M101 657l133 -105h15l-99 143q-7 11 -15 19t-22 8q-17 0 -25.5 -9t-8.5 -23q0 -17 22 -33z" />
    <glyph glyph-name="a" unicode="a" horiz-adv-x="537" 
d="M355 298l-53 -147q-5 -14 -23 -39t-43 -50t-55 -43t-59 -18t-41.5 20t-12.5 52q0 28 9 65t25.5 76.5t39.5 78t50.5 68.5t59 48.5t64.5 18.5q18 0 29 -6.5t17.5 -15.5t9 -19.5t2.5 -19.5q0 -10 -3.5 -23.5t-15.5 -45.5zM363 126l109 303h-70l-17 -49h-2q0 28 -21 45
t-51 17q-26 0 -59.5 -13t-68 -36t-68 -54t-59 -67.5t-41.5 -76.5t-16 -80q0 -33 8.5 -57t23.5 -39.5t34.5 -23t40.5 -7.5q33 0 60 11.5t49.5 29t40.5 38t32 37.5h2q-5 -14 -8 -31.5t-3 -24.5q0 -60 66 -60q28 0 49 11.5t37 27t26 32.5t15 28l-13 7q-3 -6 -10.5 -20.5
t-19 -29t-27.5 -26t-36 -11.5q-25 0 -25 26q0 19 6.5 43t15.5 50z" />
    <glyph glyph-name="b" unicode="b" horiz-adv-x="519" 
d="M78 68q0 34 10.5 73.5t28 79.5t41.5 77.5t51 66t56 46t57 17.5q31 0 49 -16t18 -47q0 -32 -10 -71.5t-27.5 -80t-41.5 -78.5t-51.5 -68t-58 -48t-60.5 -18q-62 0 -62 67zM314 760h-160l-4 -14h88l-195 -548q-8 -20 -14.5 -46.5t-6.5 -46.5q0 -32 11 -54t28 -36
t37.5 -20.5t39.5 -6.5q30 0 64.5 12.5t69.5 34.5t67 52.5t57 66t40 75t15 79.5q0 26 -8 50t-24 42.5t-39.5 30t-54.5 11.5q-27 0 -51.5 -11.5t-45.5 -28.5t-38.5 -38t-29.5 -40l-2 1z" />
    <glyph glyph-name="c" unicode="c" horiz-adv-x="407" 
d="M344 98l-14 8q-9 -15 -23 -33.5t-33 -34.5t-42.5 -26.5t-51.5 -10.5q-51 0 -75.5 30t-24.5 73q0 29 6.5 64t19.5 71t31 70t41.5 60.5t51.5 42.5t60 16q20 0 31.5 -6t11.5 -22q0 -12 -4 -19.5t-9.5 -13.5t-9.5 -13.5t-4 -19.5q0 -10 7 -17.5t25 -7.5t34.5 10t16.5 43
q0 23 -8.5 38.5t-21.5 24.5t-29.5 13t-33.5 4q-55 0 -106.5 -28.5t-91.5 -73t-64 -98t-24 -104.5q0 -31 10.5 -58t30 -47.5t48.5 -32.5t66 -12q35 0 63 10t49.5 26t38 35.5t28.5 38.5z" />
    <glyph glyph-name="d" unicode="d" horiz-adv-x="537" 
d="M355 298l-53 -147q-5 -14 -23 -39t-43 -50t-55 -43t-59 -18t-41.5 20t-12.5 52q0 28 9 65t25.5 76.5t39.5 78t50.5 68.5t59 48.5t64.5 18.5q18 0 29 -6.5t17.5 -15.5t9 -19.5t2.5 -19.5q0 -10 -3.5 -23.5t-15.5 -45.5zM363 126l227 634h-159l-4 -14h88l-130 -366h-2
q0 28 -21 45t-51 17q-26 0 -59.5 -13t-68 -36t-68 -54t-59 -67.5t-41.5 -76.5t-16 -80q0 -33 8.5 -57t23.5 -39.5t34.5 -23t40.5 -7.5q33 0 60 11.5t49.5 29t40.5 38t32 37.5h2q-5 -14 -8 -31.5t-3 -24.5q0 -60 66 -60q28 0 49 11.5t37 27t26 32.5t15 28l-13 7
q-3 -6 -10.5 -20.5t-19 -29t-27.5 -26t-36 -11.5q-25 0 -25 26q0 19 6.5 43t15.5 50z" />
    <glyph glyph-name="e" unicode="e" horiz-adv-x="426" 
d="M332 380q0 -26 -14.5 -50t-39 -42t-56.5 -29t-68 -11q-28 0 -51 4q9 26 26 56.5t40 57t51.5 44.5t59.5 18q28 0 40 -14t12 -34zM334 98l-12 7q-8 -10 -20.5 -27.5t-31 -34.5t-43 -29.5t-56.5 -12.5q-43 0 -71 26.5t-28 80.5q0 35 7.5 66.5t18.5 63.5q12 -2 28 -3t33 -1
q10 0 31.5 2.5t47.5 8t53.5 15.5t50.5 24.5t37.5 35t14.5 47.5q0 20 -10 34t-26 23t-36 13.5t-40 4.5q-52 0 -102 -29t-89.5 -73.5t-64 -98t-24.5 -103.5q0 -25 8.5 -51.5t27 -48.5t48 -36t72.5 -14t73.5 14.5t51.5 33t33 37t18 25.5z" />
    <glyph glyph-name="f" unicode="f" horiz-adv-x="333" 
d="M152 429h-95l-4 -14h95l-110 -413q-35 -128 -73.5 -185.5t-80.5 -57.5q-13 0 -21.5 6t-8.5 19q0 14 5 25.5t5 22.5q0 16 -8 21t-21 5q-24 0 -35.5 -14t-11.5 -33q0 -20 8 -32.5t20 -20t26.5 -10.5t27.5 -3q44 0 83.5 27.5t73 73.5t59.5 106t43 124l89 339h123l4 14h-123
l21 76q7 26 22 66.5t39 79.5t58 67t79 28q15 0 26.5 -5.5t11.5 -22.5q0 -8 -3.5 -14t-8 -12.5t-8.5 -14t-4 -17.5q0 -11 9.5 -19.5t31.5 -8.5q26 0 35.5 17t9.5 34q0 12 -5.5 25.5t-17.5 25t-30 19t-44 7.5q-43 0 -86 -21.5t-80 -59t-66 -87.5t-45 -108z" />
    <glyph glyph-name="g" unicode="g" horiz-adv-x="519" 
d="M48 -42l28 22l141 -5q32 -1 54 -8.5t35 -19t18.5 -26t5.5 -30.5q0 -32 -17 -62t-46.5 -53t-68 -37.5t-81.5 -14.5q-23 0 -45.5 6t-40 20t-28 35.5t-10.5 53.5q0 42 14 69.5t41 49.5zM131 237q0 26 9 59t26 62t41 49.5t55 20.5q33 0 55.5 -17t22.5 -61q0 -29 -7.5 -63.5
t-23.5 -64t-40.5 -49.5t-57.5 -20q-38 0 -59 17.5t-21 66.5zM236 38l-128 6q-48 3 -69.5 13.5t-21.5 32.5q0 18 16.5 36.5t48.5 33.5l21 10q13 -8 37.5 -19.5t70.5 -11.5q33 0 68 15t64.5 40t48 56t18.5 63q0 13 -4.5 28.5t-10.5 23.5q11 23 26.5 38t31.5 15q9 0 14 -5
t5 -11q0 -10 -3 -15.5t-7 -9.5t-7 -9t-3 -14q0 -11 9.5 -18t23.5 -7q23 0 33 11.5t10 29.5q0 26 -19.5 44t-45.5 18q-31 0 -48 -17.5t-29 -35.5q-6 10 -16 21t-25 20.5t-34.5 15.5t-45.5 6q-34 0 -70 -15t-66 -40.5t-49 -58.5t-19 -69q0 -28 8.5 -45.5t21.5 -32.5l-37 -20
q-38 -20 -54 -44.5t-16 -55.5q0 -23 7.5 -37t19 -22t24 -12t22.5 -7l-28 -15q-12 -7 -29.5 -19.5t-33.5 -30t-27.5 -38.5t-11.5 -45t15 -47t41.5 -40t61.5 -27.5t74 -10.5q60 0 106.5 21t78.5 53.5t49 70.5t17 72q0 58 -37.5 83t-96.5 28z" />
    <glyph glyph-name="h" unicode="h" horiz-adv-x="537" 
d="M267 746l-270 -746h69l75 209q16 45 41.5 83.5t54.5 67t58 45t51 16.5t30.5 -12t8.5 -25q0 -16 -8 -40l-84 -239q-5 -16 -8.5 -30t-3.5 -27q0 -32 22 -46t54 -14q29 0 50 11.5t35.5 27.5t23.5 32.5t14 26.5l-11 5q-5 -11 -14 -26.5t-21.5 -29.5t-27.5 -24t-33 -10
q-16 0 -21 10t-5 22q0 16 5 32.5t11 33.5l65 185q8 23 13.5 39.5t5.5 33.5q0 33 -24.5 55.5t-66.5 22.5q-27 0 -53.5 -12.5t-50.5 -31.5t-44 -41.5t-35 -42.5h-2l167 453h-158l-4 -14h91z" />
    <glyph glyph-name="i" unicode="i" 
d="M197 665q0 -20 13.5 -33.5t33.5 -13.5t33.5 13.5t13.5 33.5t-13.5 33.5t-33.5 13.5t-33.5 -13.5t-13.5 -33.5zM135 415l-103 -293q-6 -17 -12 -37.5t-6 -37.5q0 -32 19.5 -45.5t52.5 -13.5q30 0 52 12t37 28.5t23.5 33t12.5 24.5l-12 5q-4 -9 -13 -24t-22 -29.5
t-28.5 -25.5t-31.5 -11q-14 0 -21 8.5t-7 20.5q0 14 5 29.5t10 30.5l118 339h-159l-4 -14h89z" />
    <glyph glyph-name="j" unicode="j" 
d="M213 665q0 -20 13.5 -33.5t33.5 -13.5t33.5 13.5t13.5 33.5t-13.5 33.5t-33.5 13.5t-33.5 -13.5t-13.5 -33.5zM225 429h-161l-4 -14h91l-190 -524q-47 -131 -99 -131q-15 0 -24.5 7t-9.5 21q0 16 6 24t6 24q0 13 -9 20t-24 7q-20 0 -32.5 -14t-12.5 -32t8 -31.5t20 -22.5
t27 -13t29 -4q29 0 54.5 13.5t48 35t41.5 48t34 53.5t25.5 51.5t16.5 40.5z" />
    <glyph glyph-name="k" unicode="k" horiz-adv-x="519" 
d="M263 746l-266 -746h69l94 264h22q18 0 29 -6.5t17.5 -17.5t10 -25.5t6.5 -30.5l27 -125q10 -44 28 -57.5t46 -13.5q26 0 45 10.5t33 26t23.5 34t16.5 34.5l-14 4q-3 -8 -10 -23t-17 -30t-22.5 -26t-26.5 -11q-16 0 -23 15.5t-11 34.5l-26 133q-5 27 -15 42t-21.5 23
t-24 10.5t-23.5 4.5v3q12 4 30.5 19.5t37.5 39.5l25 30q19 23 32.5 36.5t25.5 13.5q16 0 16 -12q0 -10 -4 -15.5t-4 -18.5q0 -27 36 -27q18 0 30 12.5t12 35.5q0 30 -14.5 42.5t-36.5 12.5q-53 0 -109 -75q-25 -35 -55 -62t-65 -27h-21l172 482h-160l-4 -14h89z" />
    <glyph glyph-name="l" unicode="l" 
d="M329 760h-159l-4 -14h89l-223 -624q-6 -17 -12 -37.5t-6 -37.5q0 -32 19.5 -45.5t52.5 -13.5q30 0 52 12t37 28.5t23.5 33t12.5 24.5l-12 5q-4 -9 -13 -24t-22 -29.5t-28.5 -25.5t-31.5 -11q-14 0 -21 8.5t-7 20.5q0 14 5 29.5t10 30.5z" />
    <glyph glyph-name="m" unicode="m" horiz-adv-x="759" 
d="M138 415l-144 -415h69l75 209q19 53 45.5 92.5t54.5 66t54.5 40t44.5 13.5t25 -11t7 -29q0 -16 -14 -58l-117 -323h70l75 209q16 43 40 81.5t50.5 67.5t53 46t47.5 17q23 0 31 -10t8 -27q0 -16 -8 -40l-84 -239q-8 -20 -10 -32t-2 -25q0 -32 22 -46t54 -14q29 0 50 11.5
t35.5 27.5t23.5 32.5t14 26.5l-11 5q-6 -11 -15 -26.5t-21 -29.5t-27 -24t-33 -10q-16 0 -21 9.5t-5 18.5q0 15 5 34t11 36l65 185q8 23 13.5 39.5t5.5 33.5q0 33 -24.5 55.5t-66.5 22.5q-25 0 -50 -12.5t-46.5 -30.5t-38.5 -38t-27 -35h-2q5 20 5 38q0 33 -20.5 55.5
t-58.5 22.5q-26 0 -52 -12.5t-49 -30.5t-41.5 -39t-30.5 -38h-2l38 114h-158l-4 -14h91z" />
    <glyph glyph-name="n" unicode="n" horiz-adv-x="537" 
d="M141 415l-144 -415h69l75 209q16 45 41.5 83.5t54.5 67t58 45t51 16.5t30.5 -12t8.5 -25q0 -16 -8 -40l-84 -239q-5 -16 -8.5 -30t-3.5 -27q0 -32 22 -46t54 -14q29 0 50 11.5t35.5 27.5t23.5 32.5t14 26.5l-11 5q-5 -11 -14 -26.5t-21.5 -29.5t-27.5 -24t-33 -10
q-16 0 -21 10t-5 22q0 16 5 32.5t11 33.5l65 185q8 23 13.5 39.5t5.5 33.5q0 33 -24.5 55.5t-66.5 22.5q-86 0 -183 -129h-2l41 123h-158l-4 -14h91z" />
    <glyph glyph-name="o" unicode="o" horiz-adv-x="481" 
d="M66 101q0 26 6 60.5t17.5 71t28.5 71.5t38.5 62.5t47.5 44.5t55 17q51 0 71.5 -28t20.5 -76q0 -20 -6 -52t-17.5 -68t-28.5 -72t-39 -65.5t-49 -47.5t-58 -18q-38 0 -62.5 24.5t-24.5 75.5zM0 157q0 -34 11 -64.5t31.5 -53.5t49 -37t64.5 -14q42 0 88.5 22.5t84.5 61.5
t63 90.5t25 109.5q0 28 -9 58t-28 55t-48 41t-68 16q-43 0 -90 -22t-85.5 -60t-63.5 -90.5t-25 -112.5z" />
    <glyph glyph-name="p" unicode="p" horiz-adv-x="537" 
d="M101 106l79 223q9 12 22 28.5t30 32.5t38.5 27t47.5 11q44 0 61 -31t17 -74q0 -27 -7 -61.5t-19.5 -70t-30.5 -70t-40 -61t-47.5 -43t-53.5 -16.5q-25 0 -41.5 9.5t-28 24.5t-17.5 33.5t-10 37.5zM139 415l-239 -680h-72l-4 -14h226l4 14h-84l122 347h2q7 -43 35 -68.5
t67 -25.5q59 0 108.5 28t85.5 69.5t56 90t20 90.5q0 35 -9 67t-27 56t-45.5 38.5t-64.5 14.5q-24 0 -44.5 -8t-37.5 -20t-29.5 -25.5t-19.5 -24.5h-2l21 65h-158l-4 -14h93z" />
    <glyph glyph-name="q" unicode="q" horiz-adv-x="537" 
d="M365 315l-56 -156q-6 -16 -25 -42.5t-45 -52t-56 -44.5t-58 -19q-29 0 -42 20t-13 46q0 25 9.5 61.5t27 77t40.5 80t50.5 71.5t57.5 51.5t60 19.5q27 0 42.5 -19t15.5 -52q0 -8 -1.5 -19t-6.5 -23zM289 94l-130 -359h-88l-4 -14h239l4 14h-81l249 694h-70l-19 -57h-2
q-1 11 -5 23t-12 22.5t-21.5 17.5t-33.5 7q-28 0 -62 -13.5t-69 -37.5t-68.5 -56.5t-59 -70t-41 -78.5t-15.5 -82q0 -29 10.5 -51t27 -36.5t37.5 -21.5t42 -7q30 0 56.5 12t48.5 29t38.5 35.5t26.5 31.5z" />
    <glyph glyph-name="r" unicode="r" horiz-adv-x="407" 
d="M113 308l-108 -308h70l72 204q14 39 36 78t46.5 69.5t49.5 50t44 19.5q12 0 20 -6t8 -16t-4.5 -16t-9.5 -11t-9.5 -10.5t-4.5 -16.5q0 -14 9 -21t23 -7q8 0 17 2t17.5 7.5t14 16t5.5 26.5q1 24 -18.5 45t-56.5 21q-26 0 -49 -13.5t-42 -33t-34 -40.5t-25 -36l-2 2
q11 30 20.5 62t14.5 53h-154l-4 -14h87l-16 -54t-17 -53z" />
    <glyph glyph-name="s" unicode="s" horiz-adv-x="352" 
d="M104 222l50 -66q15 -20 21.5 -36t6.5 -36q0 -13 -7 -28t-20.5 -27t-33 -20t-44.5 -8t-40.5 9.5t-15.5 33.5q0 12 5 22.5t5 22.5q0 9 -7.5 15.5t-16.5 6.5q-22 0 -36.5 -11.5t-14.5 -34.5q0 -19 10 -33.5t26.5 -24t37.5 -14.5t44 -5q26 0 55.5 8.5t55 25.5t42.5 42.5
t17 59.5q0 17 -4.5 33.5t-16.5 31.5l-59 77q-18 24 -28 41.5t-10 37.5q0 15 5.5 30t17 27t29 19t41.5 7q34 0 34 -26q0 -10 -6.5 -16.5t-6.5 -20.5q0 -15 10.5 -23t24.5 -8q41 0 41 42q0 29 -25.5 47.5t-67.5 18.5q-34 0 -63.5 -12t-50.5 -31.5t-33 -43.5t-12 -47
q0 -27 12.5 -46.5t27.5 -39.5z" />
    <glyph glyph-name="t" unicode="t" horiz-adv-x="296" 
d="M175 527l-36 -98h-90l-4 -14h90l-98 -272q-8 -21 -15.5 -46.5t-7.5 -45.5q0 -26 19 -44.5t57 -18.5q31 0 53.5 12t37.5 28.5t24 33t13 24.5l-12 5q-4 -9 -13 -24t-22 -29.5t-29 -25.5t-34 -11q-17 0 -24.5 9t-7.5 24q0 16 5 32t10 31l114 318h109l4 14h-109l36 98h-70z
" />
    <glyph glyph-name="u" unicode="u" horiz-adv-x="519" 
d="M46 429l-4 -14h89l-98 -277q-5 -16 -12 -36.5t-7 -35.5q0 -38 25 -58t68 -20q27 0 52.5 13.5t48 33t42 42t33.5 40.5l2 -2q-8 -20 -12 -35.5t-4 -32.5q0 -32 19.5 -45.5t52.5 -13.5q30 0 52 12t37 28.5t23.5 33t12.5 24.5l-12 5q-4 -9 -13 -24t-21.5 -29.5t-28 -25.5
t-32.5 -11q-14 0 -21 8.5t-7 20.5q0 14 5 29.5t10 30.5l118 339h-70l-71 -205q-14 -39 -39 -78.5t-55 -71.5t-61.5 -52.5t-58.5 -20.5q-18 0 -25.5 11t-7.5 25q0 8 4 24.5t12 37.5l115 330h-161z" />
    <glyph glyph-name="v" unicode="v" horiz-adv-x="463" 
d="M91 -5l13 -7q6 11 17.5 25t27.5 30q15 15 31 26t40 32l51 44q24 21 48.5 46.5t43.5 53.5t31 59.5t12 64.5q0 73 -49 73q-19 0 -32.5 -7.5t-13.5 -24.5q0 -13 5 -23t11.5 -21t11.5 -25.5t5 -37.5q0 -34 -19.5 -67.5t-47.5 -62.5t-59 -54t-53 -43q-1 17 -6.5 36.5
t-14.5 43.5q-14 35 -23.5 67t-9.5 70q0 27 10.5 50.5t24 42.5t27 32.5t19.5 20.5l-9 10l-21 -18q-52 -45 -84.5 -91.5t-32.5 -92.5q0 -22 7.5 -46t16.5 -47l21 -58q5 -14 9 -26.5t4 -29.5q0 -30 -12 -45z" />
    <glyph glyph-name="w" unicode="w" horiz-adv-x="741" 
d="M470 439l-9 10q-11 -8 -30.5 -25.5t-33.5 -33.5q0 17 -12.5 33.5t-33.5 18.5q-19 0 -32.5 -7t-13.5 -23q0 -13 5 -23t11.5 -21t11.5 -25.5t5 -37.5q0 -34 -19.5 -67.5t-47.5 -62.5t-59 -54t-53 -43q-1 17 -6.5 36.5t-14.5 43.5q-14 35 -23.5 67t-9.5 70q0 27 10.5 50.5
t24 42t27 32l19.5 19.5l-9 10l-21 -16q-52 -45 -84.5 -91.5t-32.5 -92.5q0 -22 7.5 -46t16.5 -47l21 -58q5 -14 9 -26.5t4 -29.5q0 -32 -12 -47l13 -7q14 26 45 57q15 15 31 26t40 32l51 44q19 19 35 33.5t30 28.5q3 -11 7 -23t10 -32l21 -58q5 -14 9 -26.5t4 -29.5
q0 -30 -12 -45l13 -7q6 11 17.5 25t27.5 30q15 15 31 26t40 32l51 44q24 21 48.5 46.5t43.5 53.5t31 59.5t12 64.5q0 73 -49 73q-19 0 -32.5 -7.5t-13.5 -24.5q0 -13 5 -23t11.5 -21t11.5 -25.5t5 -37.5q0 -34 -19.5 -67.5t-47.5 -62.5t-59 -54t-53 -43q-1 17 -6.5 36.5
t-14.5 43.5q-14 35 -24 67t-10 70q0 27 10.5 51t24 42.5t27.5 32t20 20.5z" />
    <glyph glyph-name="x" unicode="x" horiz-adv-x="556" 
d="M57 324l14 -6q5 11 16 29.5t27.5 36.5t37 31t44.5 13q30 0 42.5 -20.5t12.5 -49.5q0 -20 -6.5 -50.5t-16.5 -63t-21 -63.5t-20 -52q-18 -42 -34.5 -67t-32 -38.5t-29.5 -18t-26 -4.5q-22 0 -33.5 6t-11.5 23q0 13 4 20.5t9.5 13.5t9.5 12.5t4 16.5q0 14 -9 20t-20 6
q-21 0 -37 -13.5t-16 -43.5q0 -13 5 -26.5t16 -24t28 -17t42 -6.5q27 0 48 7.5t39 19.5t33 27t29 30q3 -11 9 -25.5t17 -27.5t28 -22t41 -9q32 0 57 14.5t43.5 34t30 39t16.5 28.5l-13 6q-7 -12 -18.5 -31t-27.5 -36t-36.5 -29.5t-45.5 -12.5q-27 0 -40 21t-13 55
q0 15 6.5 47t18.5 71t28.5 80.5t37 75t44 55.5t49.5 22q13 0 24 -6.5t11 -22.5q0 -12 -4.5 -19.5t-9.5 -14t-9.5 -14t-4.5 -18.5q0 -14 9 -19.5t22 -5.5q29 0 41 17.5t12 37.5q0 30 -20.5 54.5t-65.5 24.5q-25 0 -48 -10t-41.5 -23.5t-32 -28.5t-20.5 -24q-3 11 -8.5 25.5
t-16.5 28t-28.5 23t-43.5 9.5q-32 0 -57.5 -15t-43.5 -34.5t-29.5 -39.5t-15.5 -29z" />
    <glyph glyph-name="y" unicode="y" horiz-adv-x="463" 
d="M2 314l14 -4q3 13 8.5 33t14.5 39t22 32.5t31 13.5q9 0 17 -9.5t14.5 -37t10.5 -76.5t4 -127q0 -79 -16.5 -154.5t-42 -134t-56 -94.5t-58.5 -36q-15 0 -24.5 7t-9.5 18q0 10 1.5 15.5t3.5 10t3.5 9t1.5 13.5q0 12 -8 18.5t-21 6.5q-17 0 -32 -8.5t-15 -34.5
q0 -32 23.5 -50.5t61.5 -18.5q25 0 48 14t44 37t39.5 53t35.5 62l58 108l182 330q22 39 36 55.5t26 17.5q14 2 14 -13q0 -9 -5.5 -14.5t-5.5 -16.5q0 -18 19 -18q20 0 32 12t12 31q0 15 -9.5 27t-33.5 12q-19 0 -33.5 -7.5t-25.5 -19t-19.5 -26.5t-16.5 -30l-153 -276h-2
q7 32 14.5 79.5t7.5 113.5q0 25 -5.5 54t-18 54t-34 41.5t-53.5 16.5q-27 0 -44.5 -14t-29 -34t-17.5 -42t-10 -38z" />
    <glyph glyph-name="z" unicode="z" horiz-adv-x="463" 
d="M298 360l-323 -363l12 -9q10 11 28.5 23.5t45.5 12.5q23 0 41 -2t35 -7l48 -12q27 -6 49.5 -10.5t38.5 -4.5q25 0 47 5.5t38.5 18.5t26.5 34t10 52q0 26 -10.5 41.5t-34.5 15.5q-14 0 -27 -8t-13 -26q0 -20 11.5 -30.5t21.5 -18.5q9 -8 13.5 -14t4.5 -15
q0 -11 -7.5 -19.5t-22.5 -8.5q-23 0 -55 15l-49 24q-34 18 -77.5 25t-75.5 7l310 345l-10 8q-4 -5 -10 -9.5t-16 -4.5q-12 0 -47 1.5t-74.5 3t-75 2.5t-49.5 1q-12 0 -16.5 -4t-7.5 -12q-2 -5 -5 -17l-6.5 -26t-7 -27.5t-6.5 -22.5l14 -3l5 19q4 14 12 20t25 6q8 0 31 -0.5
t51 -1.5t57 -2t50 -2z" />
    <glyph glyph-name="braceleft" unicode="{" horiz-adv-x="407" 
d="M188 -279l5 18q-51 3 -80 27t-29 70q0 12 2 24.5t4 24t4.5 21t3.5 14.5l32 118q5 16 10 37.5t5 40.5q0 14 -7 37.5t-31 42.5q-16 13 -32.5 16t-28.5 4q39 4 67 14t47.5 28.5t32.5 46.5t24 68l14 61l22 78q13 50 27.5 84.5t36 56.5t53 31.5t79.5 9.5l5 18q-55 0 -91.5 -11
t-61 -35.5t-40.5 -63.5t-31 -95l-35 -131q-8 -30 -17 -55.5t-27.5 -45.5t-49.5 -34t-83 -22l-1 -5q15 -3 33 -8.5t34.5 -16.5t27.5 -29t11 -46q0 -17 -4 -33.5t-6 -24.5l-28 -106q-3 -9 -7 -23.5t-7.5 -31t-6 -32.5t-2.5 -28q0 -35 14 -56.5t34 -33.5t41.5 -17t36.5 -7z" />
    <glyph glyph-name="bar" unicode="|" horiz-adv-x="222" 
d="M101 750v-999h20v999h-20z" />
    <glyph glyph-name="braceright" unicode="}" horiz-adv-x="407" 
d="M323 214l1 5q-16 3 -34 8.5t-33.5 16.5t-26 29t-10.5 45q0 17 3.5 33t5.5 25l29 107q12 45 18 70t6 46q0 34 -13.5 55t-33 33.5t-40.5 17.5t-37 7l-5 -18q48 -3 77.5 -25t29.5 -70q0 -22 -5.5 -47t-9.5 -39l-32 -119q-7 -25 -11 -43t-4 -36q0 -13 6.5 -36t29.5 -42
q17 -13 33.5 -16l27.5 -5q-39 -3 -67 -13t-48 -28.5t-33.5 -46.5t-24.5 -68q-1 -3 -3 -11.5t-4.5 -18.5t-4.5 -18.5t-3 -11.5l-21 -80q-15 -54 -31.5 -89t-39 -55.5t-53.5 -28.5t-74 -8l-5 -18q51 0 86.5 10t61 34t43.5 63t34 98l36 131q8 31 18 56.5t29 45t50 33.5t82 22z
" />
    <glyph glyph-name="asciitilde" unicode="~" horiz-adv-x="593" 
d="M534 320h-18q-16 -48 -42.5 -81.5t-70.5 -33.5q-15 0 -32 5t-50 18l-124 47q-5 2 -15 5.5t-22 7t-25 6t-25 2.5q-36 0 -60 -14.5t-39.5 -35.5t-23.5 -44t-13 -40h18q5 14 12 33.5t19.5 37.5t32 30.5t48.5 12.5q23 0 46.5 -7.5t40.5 -14.5l122 -47q41 -16 58 -19t28 -3
q35 0 58.5 15t39 36.5t24 44.5t13.5 39z" />
    <glyph glyph-name="nonbreakingspace" unicode="&#xa0;" horiz-adv-x="240" 
 />
    <glyph glyph-name="exclamdown" unicode="&#xa1;" horiz-adv-x="315" 
d="M281 400q0 20 -13.5 33.5t-33.5 13.5t-33.5 -13.5t-13.5 -33.5t13.5 -33.5t33.5 -13.5t33.5 13.5t13.5 33.5zM107 -242l90 498h-7l-160 -454q-6 -17 -10 -29.5t-4 -23.5q0 -21 13.5 -30t30.5 -9q15 0 28.5 9.5t18.5 38.5z" />
    <glyph glyph-name="cent" unicode="&#xa2;" horiz-adv-x="482" 
d="M110 8l-41 -78l14 -6l41 77q30 -13 68 -13q35 0 63 10t49.5 26t38 35.5t28.5 38.5l-14 8q-9 -15 -23 -33.5t-33 -34.5t-42.5 -26.5t-51.5 -10.5q-44 0 -70 25l208 394q15 -4 15 -22q0 -10 -4 -20t-9.5 -18.5t-9.5 -15.5t-4 -12q0 -10 7 -16.5t25 -6.5t34.5 10t16.5 43
q0 35 -18 52t-44 24l37 72l-14 6l-40 -76q-6 2 -13 2h-15q-58 0 -107.5 -28.5t-86 -73t-57.5 -98t-21 -104.5q0 -42 19 -76.5t54 -53.5zM329 424l-203 -386q-9 13 -14 28t-5 38q0 29 5.5 64t16 71t26.5 70t37 60.5t47 42.5t58 16q23 0 32 -4z" />
    <glyph glyph-name="sterling" unicode="&#xa3;" horiz-adv-x="593" 
d="M30 53q0 41 60 41q26 0 47 -10t34 -20q-4 -7 -11.5 -16.5t-18 -18t-24 -14.5t-28.5 -6q-22 0 -40.5 10.5t-18.5 33.5zM498 116l-12 6q-3 -5 -9 -14.5t-19 -18.5t-35 -16t-57 -7q-51 0 -93.5 6.5t-71.5 14.5q14 22 23.5 55.5t14.5 90.5l12 134h149l4 14h-152l4 45
q6 73 16.5 126.5t29.5 89t48.5 52.5t72.5 17q14 0 28 -2.5t25 -8.5t18 -15t7 -23t-5 -23.5t-10.5 -18.5t-10.5 -18.5t-5 -23.5q0 -25 34 -25q15 0 25.5 6t16.5 16t8.5 22t2.5 24q0 23 -10 42t-27.5 32.5t-42 21.5t-54.5 8q-49 0 -93.5 -22t-78 -57t-53.5 -80t-20 -91
q0 -27 2.5 -52t4.5 -42h-91l-4 -14h97q5 -48 13 -99t8 -102q0 -26 -8 -45.5t-13 -30.5q-26 8 -47.5 13t-47.5 5q-30 0 -53 -13.5t-23 -42.5q0 -24 19 -40t52 -16q22 0 38 7t28 17t19 20t11 16l28 -18q22 -14 38.5 -23.5t31 -15.5t29.5 -9t33 -3q33 0 59 16t45.5 37.5t32 43
t18.5 32.5z" />
    <glyph glyph-name="currency" unicode="&#xa4;" horiz-adv-x="556" 
d="M96 357q0 37 14 70t38.5 58t58 39.5t71.5 14.5t71 -14.5t57.5 -39t39 -57.5t14.5 -71t-14.5 -71t-39 -58t-57.5 -39t-71 -14t-71.5 14.5t-58 39t-38.5 58t-14 70.5zM75 357q0 -24 9.5 -61.5t42.5 -75.5l-63 -64l13 -13l64 64q7 -6 19 -15t29 -17.5t39 -14.5t49 -6
q33 0 70 12t67 41l65 -64l13 13l-64 64q19 21 29.5 41.5t16 39t6.5 33.5t1 23t-1 22t-6.5 33t-16 40t-29.5 42l64 64l-13 13l-65 -64q-29 25 -63.5 39t-72.5 14q-78 0 -137 -53l-64 64l-13 -13l64 -64q-26 -28 -39.5 -64.5t-13.5 -72.5z" />
    <glyph glyph-name="yen" unicode="&#xa5;" horiz-adv-x="482" 
d="M191 287l-73 -273h-93l-3 -14h269l4 14h-97l73 273h197l4 14h-197l11 38l60 87h159l5 14h-154l179 258h65l4 14h-164l-4 -14h79l-238 -345l-60 345h95l4 14h-267l-4 -14h92l51 -258h-153l-3 -14h159l15 -87l-11 -38h-197l-3 -14h196z" />
    <glyph glyph-name="brokenbar" unicode="&#xa6;" horiz-adv-x="222" 
d="M101 325h20v350h-20v-350zM101 -174h20v349h-20v-349z" />
    <glyph glyph-name="section" unicode="&#xa7;" horiz-adv-x="519" 
d="M164 387l39 29q8 -8 23 -21t34 -28l68 -54q27 -22 44 -44.5t17 -54.5t-15 -59t-35.5 -47.5t-41 -34.5t-31.5 -20q-16 16 -54 46l-83 66q-22 17 -38 40.5t-16 55.5q0 39 25 68t64 58zM360 379l-67 52q-31 23 -54.5 54.5t-23.5 73.5q0 32 15.5 60t39.5 48.5t54 32t59 11.5
q13 0 26 -3t24 -9t18 -16t7 -24q0 -13 -4 -22t-8.5 -16.5t-8.5 -15.5t-4 -19q0 -14 10 -23.5t27 -9.5q20 0 35 14.5t15 52.5q0 20 -9 39t-26.5 33.5t-42 23.5t-54.5 9q-43 0 -84 -16t-73.5 -44t-52 -65.5t-19.5 -81.5q0 -32 12 -55.5t23 -36.5l-49 -35q-52 -37 -79 -76
t-27 -97q0 -38 18 -71t63 -68l67 -51q37 -28 57 -55t20 -68q0 -38 -15 -71t-39.5 -57.5t-56 -38.5t-64.5 -14t-59 16.5t-26 47.5q0 22 7 35t7 30q0 15 -10 24t-27 9q-23 0 -37.5 -16.5t-14.5 -45.5q0 -22 10 -42.5t29.5 -36.5t48 -25.5t65.5 -9.5q54 0 98.5 20.5t77 53
t50.5 73.5t18 82q0 38 -17 65t-32 40q9 5 35 22.5t53.5 44.5t48.5 63.5t21 80.5q0 33 -15.5 61.5t-59.5 62.5z" />
    <glyph glyph-name="dieresis" unicode="&#xa8;" 
d="M270 665q0 -20 13.5 -33.5t33.5 -13.5t33.5 13.5t13.5 33.5t-13.5 33.5t-33.5 13.5t-33.5 -13.5t-13.5 -33.5zM86 665q0 -20 13.5 -33.5t33.5 -13.5t33.5 13.5t13.5 33.5t-13.5 33.5t-33.5 13.5t-33.5 -13.5t-13.5 -33.5z" />
    <glyph glyph-name="copyright" unicode="&#xa9;" horiz-adv-x="833" 
d="M571 148v128h-7q-6 -23 -13.5 -46t-22.5 -41t-39.5 -29.5t-65.5 -11.5q-31 0 -56.5 9.5t-44 33.5t-28.5 65.5t-10 104.5q0 33 4 71t18 70.5t41.5 53.5t75.5 21q35 0 58 -10.5t38 -27.5t23.5 -39t13.5 -45h7v120h-9q-5 -5 -10 -8.5t-17 -3.5q-9 0 -18.5 3.5t-21 8t-25.5 8
t-33 3.5q-46 0 -85.5 -18.5t-68 -49t-44.5 -71.5t-16 -86q0 -54 20 -94t49 -69q32 -31 67.5 -45t73.5 -14q21 0 37.5 3.5t30 7.5t24 7.5t19.5 3.5q11 0 16.5 -4t9.5 -9h9zM67 356q0 72 27 135.5t74.5 111t111 75t136.5 27.5q72 0 136 -27.5t111.5 -74.5t75 -111t27.5 -136
t-27.5 -136t-75 -111.5t-111 -75t-136.5 -27.5t-136.5 27.5t-111 75.5t-74.5 111.5t-27 135.5zM47 356q0 -76 29 -143.5t79 -117.5t117.5 -79t143.5 -29q77 0 144.5 29t117.5 79t79 117.5t29 143.5t-29 143t-79.5 117.5t-117.5 79.5t-144 29q-76 0 -143.5 -29t-117.5 -79.5
t-79 -117.5t-29 -143z" />
    <glyph glyph-name="ordfeminine" unicode="&#xaa;" horiz-adv-x="322" 
d="M265 650l-44 -111q-6 -13 -18.5 -29.5t-28.5 -30.5t-34 -24t-35 -10q-20 0 -28 9t-8 29q0 25 13 61t35 69t51.5 56.5t61.5 23.5q23 0 29 -14t6 -29zM261 515l71 181h-46l-10 -30h-2q0 15 -12.5 26.5t-34.5 11.5q-25 0 -60 -17t-67 -44.5t-54.5 -63t-22.5 -71.5
q0 -40 22 -58.5t49 -18.5q23 0 42.5 9t34.5 21t25.5 24t15.5 19h2q-3 -11 -5.5 -19.5t-2.5 -19.5q0 -34 43 -34q18 0 32 7t24.5 16.5t17 19.5t9.5 17l-9 4q-2 -3 -6.5 -11.5t-12 -17t-17.5 -15t-24 -6.5q-17 0 -17 18q0 6 3.5 18t11.5 34z" />
    <glyph glyph-name="guillemotleft" unicode="&#xab;" horiz-adv-x="407" 
d="M200 345v14q-28 -2 -59.5 -11.5t-58.5 -27.5t-44.5 -45t-17.5 -65q0 -36 15 -61t34 -40.5t36.5 -23t21.5 -8.5l6 14q-6 3 -16 9t-20 16.5t-17.5 26.5t-7.5 38q0 39 11 68.5t29 50t41 32t47 13.5zM325 332v14q-28 -2 -59.5 -11.5t-58.5 -27.5t-44.5 -45t-17.5 -65
q0 -36 15 -61t34 -40.5t36.5 -23t21.5 -8.5l6 14q-6 3 -16 9t-20 16.5t-17.5 26.5t-7.5 38q0 39 11 68.5t29 50t41 32t47 13.5z" />
    <glyph glyph-name="logicalnot" unicode="&#xac;" horiz-adv-x="593" 
d="M473 145h20v190h-480v-18h460v-172z" />
    <glyph glyph-name="registered" unicode="&#xae;" horiz-adv-x="490" 
d="M105 539q0 36 14 68t38 56t56 38t68 14t68 -14t56 -38t38 -56t14 -68t-14 -68t-38 -56t-56 -38t-68 -14t-68 14t-56 38t-38 56t-14 68zM256 550v85q2 1 8 1h10q15 0 28 -7.5t13 -35.5q0 -26 -9.5 -34.5t-24.5 -8.5h-25zM229 635v-188h-31v-4h89v4h-31v99h28q5 0 11 -1
t12 -4.5t10.5 -11t5.5 -20.5l2 -26q2 -20 9.5 -31t29.5 -11q11 0 16 2.5t8 4.5l-2 3q-6 -6 -15 -6q-8 0 -11 6t-5 13q-2 10 -2.5 26t-3.5 27q-3 9 -9.5 15t-14.5 9.5t-15 5t-12 2.5v1q16 2 25.5 7.5t14.5 12t6.5 13t1.5 10.5q0 8 -4 17.5t-14 17.5q-11 8 -23 10t-28 2
q-7 0 -13.5 -0.5t-13.5 -0.5h-52v-4h31zM95 539q0 -39 14.5 -72.5t40 -59t59 -40t72.5 -14.5q38 0 72 14.5t59.5 40t40 59t14.5 72.5q0 38 -14.5 72t-40 59.5t-59.5 40t-72 14.5q-39 0 -72.5 -14.5t-59 -40t-40 -59.5t-14.5 -72z" />
    <glyph glyph-name="macron" unicode="&#xaf;" 
d="M374 632h-281l-12 -30h281z" />
    <glyph glyph-name="degree" unicode="&#xb0;" horiz-adv-x="400" 
d="M163 590q0 24 9 45t24.5 36.5t36.5 24.5t45 9t45 -9t36.5 -24.5t24.5 -36.5t9 -45t-9 -45t-24.5 -36.5t-36.5 -24.5t-45 -9t-45 9t-36.5 24.5t-24.5 36.5t-9 45zM143 590q0 -28 10.5 -52.5t29 -43t43 -29t52.5 -10.5t52.5 10.5t43 29t29 43t10.5 52.5t-10.5 52.5t-29 43
t-43 29t-52.5 10.5t-52.5 -10.5t-43 -29t-29 -43t-10.5 -52.5z" />
    <glyph glyph-name="plusminus" unicode="&#xb1;" horiz-adv-x="593" 
d="M13 18v-18h480v18h-480zM243 263v-197h20v197h230v18h-230v199h-20v-199h-230v-18h230z" />
    <glyph glyph-name="twosuperior" unicode="&#xb2;" horiz-adv-x="288" 
d="M-3 275h253l25 89h-16l-8 -18q-5 -17 -19 -21.5t-33 -4.5h-147v3l173 148q42 32 69 63.5t27 70.5q0 42 -31 67t-76 25q-34 0 -59.5 -7.5t-42.5 -18.5t-25.5 -24t-8.5 -25q0 -29 26 -29q17 0 24.5 9.5t7.5 23.5q0 5 -0.5 7t-0.5 4t-0.5 5t-0.5 10q0 11 18 21t49 10
q35 0 51.5 -19t16.5 -48q0 -35 -26 -73.5t-68 -76.5l-182 -180z" />
    <glyph glyph-name="threesuperior" unicode="&#xb3;" horiz-adv-x="288" 
d="M103 495l3 -16q5 2 20 4t33 2q34 0 51 -17.5t17 -46.5q0 -26 -10.5 -52t-27 -47t-37 -34t-41.5 -13q-17 0 -25 5.5t-17 16.5q-8 14 -15 19t-18 5q-8 0 -15.5 -6t-7.5 -15q0 -6 3.5 -12.5t12.5 -12.5t24 -10t38 -4q35 0 68.5 15t60 37.5t43 50.5t16.5 53t-10 41t-26 25
t-34.5 12.5t-36.5 3.5v2q15 4 39.5 13.5t47.5 24t40 35t17 47.5q0 32 -27.5 54t-75.5 22q-23 0 -43 -6t-34.5 -16t-22.5 -22.5t-8 -25.5q0 -21 29 -21q14 0 20.5 9t6.5 18q0 21 11.5 35.5t40.5 14.5t40 -14.5t11 -40.5q0 -32 -16 -60t-44 -42q-27 -15 -55 -21.5t-46 -9.5z
" />
    <glyph glyph-name="acute" unicode="&#xb4;" 
d="M299 691l-138 -139h14l160 94q28 17 35.5 26.5t7.5 20.5q0 13 -8.5 21t-21.5 8t-24 -8.5t-25 -22.5z" />
    <glyph glyph-name="mu" unicode="&#xb5;" horiz-adv-x="519" 
d="M46 429l-4 -14h89l-239 -694h65l102 298q10 -31 48 -31q27 0 52.5 13.5t48 33t42 42t33.5 40.5l2 -2q-8 -20 -12 -35.5t-4 -32.5q0 -32 19.5 -45.5t52.5 -13.5q30 0 52 12t37 28.5t23.5 33t12.5 24.5l-12 5q-4 -9 -13 -24t-21.5 -29.5t-28 -25.5t-32.5 -11q-14 0 -21 8.5
t-7 20.5q0 14 5 29.5t10 30.5l118 339h-70l-71 -205q-14 -39 -39 -78.5t-55 -71.5t-61.5 -52.5t-58.5 -20.5q-18 0 -25.5 11t-7.5 25q0 8 4 24.5t12 37.5l115 330h-161z" />
    <glyph glyph-name="paragraph" unicode="&#xb6;" horiz-adv-x="574" 
d="M527 698l-198 -551q-15 -43 -38 -97t-60 -102t-91.5 -82t-131.5 -35q42 6 73 28.5t57 61.5t49.5 95.5t50.5 130.5l197 551h92zM680 712h-253q-19 0 -44 -1t-52 -4t-52.5 -7.5t-46.5 -11.5q-51 -17 -83 -42.5t-50 -54.5t-24.5 -58.5t-6.5 -53.5q0 -45 19.5 -92.5
t63.5 -77.5q32 -23 61 -29t55 -9l-45 -124q-11 -30 -23 -62t-25 -63t-27 -58t-28 -46q-30 -41 -61.5 -57.5t-47.5 -16.5q-13 0 -17 7t-5 12q0 6 2.5 11.5t9.5 17.5q8 12 11.5 19t3.5 17q0 17 -13.5 23.5t-29.5 6.5q-31 0 -47.5 -16t-16.5 -39q0 -12 5 -26.5t17 -28
t32.5 -22.5t50.5 -9q46 0 100.5 17t102.5 49q41 27 69 57.5t49 63.5t36.5 69t29.5 74l197 551h78z" />
    <glyph glyph-name="periodcentered" unicode="&#xb7;" 
d="M54 257q0 -20 13.5 -33.5t33.5 -13.5t33.5 13.5t13.5 33.5t-13.5 33.5t-33.5 13.5t-33.5 -13.5t-13.5 -33.5z" />
    <glyph glyph-name="cedilla" unicode="&#xb8;" 
d="M123 -3h-20l-80 -78l12 -16q5 4 16.5 8.5t27.5 4.5q37 0 37 -45q0 -13 -3 -30.5t-10.5 -33.5t-20 -27t-31.5 -11q-22 0 -36.5 9.5t-24.5 17.5l-9 -12q7 -7 27 -18t47 -11q23 0 44 7.5t37.5 22t26 34.5t9.5 45q0 19 -6.5 33t-16.5 22.5t-23 12.5t-25 4q-17 0 -31 -5
t-23 -10l-2 2z" />
    <glyph glyph-name="onesuperior" unicode="&#xb9;" horiz-adv-x="288" 
d="M123 289h-61l-4 -14h177l4 14h-67l118 408h-15q-19 -14 -40.5 -27.5t-43 -25.5t-40.5 -21t-33 -14l4 -13q10 4 23.5 10t28 13.5l29 15t26.5 14.5z" />
    <glyph glyph-name="ordmasculine" unicode="&#xba;" horiz-adv-x="289" 
d="M113 500q0 25 9 58t25 63t39.5 51t51.5 21q32 0 46 -17t14 -43q0 -18 -8.5 -50.5t-25 -63.5t-40.5 -54t-55 -23q-25 0 -40.5 12.5t-15.5 45.5zM67 533q0 -20 7 -38.5t20.5 -32.5t33 -22.5t43.5 -8.5q29 0 59.5 14t56 37t41.5 54.5t16 65.5q0 17 -6 35t-18.5 33
t-31.5 24.5t-46 9.5q-30 0 -61 -13t-56.5 -36t-41.5 -54.5t-16 -67.5z" />
    <glyph glyph-name="guillemotright" unicode="&#xbb;" horiz-adv-x="407" 
d="M110 77v-14q28 2 59.5 11.5t58.5 27.5t44.5 45.5t17.5 64.5t-15 61.5t-34 39.5t-36.5 22.5t-21.5 9.5l-6 -14q6 -3 16 -9t20 -16.5t17.5 -26.5t7.5 -38q0 -39 -11 -68.5t-29 -50t-41 -32t-47 -13.5zM-13 91v-14q27 2 58.5 11.5t58.5 27.5t44.5 45.5t17.5 64.5t-15 61.5
t-34 39.5t-36.5 22.5t-21.5 9.5l-6 -14q6 -3 16 -9t20 -16.5t17.5 -26.5t7.5 -38q0 -39 -11 -68.5t-29 -50t-41 -32t-46 -13.5z" />
    <glyph glyph-name="onequarter" unicode="&#xbc;" horiz-adv-x="721" 
d="M557 103l-26 -89h-48l-4 -14h151l4 14h-51l25 89h67l4 14h-68l41 149h-52l-41 -149h-149q61 90 176 187l44 36l57 42q21 12 21 23t-10 14t-19 3q-10 0 -18 -2.5t-16 -8t-18 -15.5t-24 -25q-31 -34 -67 -74t-67.5 -77.5t-55 -68.5t-30.5 -48h174zM579 712l-432 -721
l18 -10l432 721zM123 289h-61l-4 -14h177l4 14h-67l118 408h-15q-19 -14 -40.5 -27.5t-43 -25.5t-40.5 -21t-33 -14l4 -13q10 4 23.5 10t28 13.5l29 15t26.5 14.5z" />
    <glyph glyph-name="onehalf" unicode="&#xbd;" horiz-adv-x="721" 
d="M371 0h254l25 89h-16l-8 -18q-5 -17 -19 -21.5t-33 -4.5h-147v3l173 148q42 32 69 63.5t27 70.5q0 42 -31 67t-76 25q-34 0 -59.5 -7.5t-42.5 -18.5t-25.5 -24t-8.5 -25q0 -29 26 -29q17 0 24.5 9.5t7.5 23.5q0 5 -0.5 7t-0.5 4t-0.5 5t-0.5 10q0 11 18 21t49 10
q35 0 51.5 -19t16.5 -48q0 -35 -26 -73.5t-68 -76.5l-183 -180zM579 712l-432 -721l18 -10l432 721zM123 289h-61l-4 -14h177l4 14h-67l118 408h-15q-19 -14 -40.5 -27.5t-43 -25.5t-40.5 -21t-33 -14l4 -13q10 4 23.5 10t28 13.5l29 15t26.5 14.5z" />
    <glyph glyph-name="threequarters" unicode="&#xbe;" horiz-adv-x="721" 
d="M557 103l-26 -89h-48l-4 -14h151l4 14h-51l25 89h67l4 14h-68l41 149h-52l-41 -149h-149q61 90 176 187l44 36l57 42q21 12 21 23t-10 14t-19 3q-10 0 -18 -2.5t-16 -8t-18 -15.5t-24 -25q-31 -34 -67 -74t-67.5 -77.5t-55 -68.5t-30.5 -48h174zM579 712l-432 -721
l18 -10l432 721zM103 495l3 -16q5 2 20 4t33 2q34 0 51 -17.5t17 -46.5q0 -26 -10.5 -52t-27 -47t-37 -34t-41.5 -13q-17 0 -25 5.5t-17 16.5q-8 14 -15 19t-18 5q-8 0 -15.5 -6t-7.5 -15q0 -6 3.5 -12.5t12.5 -12.5t24 -10t38 -4q35 0 68.5 15t60 37.5t43 50.5t16.5 53
t-10 41t-26 25t-34.5 12.5t-36.5 3.5v2q15 4 39.5 13.5t47.5 24t40 35t17 47.5q0 32 -27.5 54t-75.5 22q-23 0 -43 -6t-34.5 -16t-22.5 -22.5t-8 -25.5q0 -21 29 -21q14 0 20.5 9t6.5 18q0 21 11.5 35.5t40.5 14.5t40 -14.5t11 -40.5q0 -32 -16 -60t-44 -42
q-27 -15 -55 -21.5t-46 -9.5z" />
    <glyph glyph-name="questiondown" unicode="&#xbf;" horiz-adv-x="407" 
d="M357 400q0 20 -13.5 33.5t-33.5 13.5t-33.5 -13.5t-13.5 -33.5t13.5 -33.5t33.5 -13.5t33.5 13.5t13.5 33.5zM263 201l14 54h-13l-17 -64q-6 -25 -18 -44t-26.5 -34t-30.5 -27t-31 -23l-77 -57q-27 -20 -43 -42.5t-23.5 -44t-9.5 -39.5t-2 -29q0 -30 10 -55.5t30.5 -44.5
t51 -30t70.5 -11q37 0 66.5 10.5t50.5 27t32.5 36t11.5 37.5q0 11 -8.5 24.5t-26.5 13.5q-23 0 -32 -11t-9 -26q0 -45 -18 -71.5t-69 -26.5q-36 0 -63.5 20.5t-27.5 70.5q0 39 18.5 93.5t69.5 111.5l78 90q22 25 29.5 47t12.5 44z" />
    <glyph glyph-name="Agrave" unicode="&#xc0;" horiz-adv-x="722" 
d="M413 877l133 -105h15l-99 143q-7 11 -15 19t-22 8q-17 0 -25.5 -9t-8.5 -23q0 -17 22 -33zM444 612l4 -304h-220l214 304h2zM-83 14l-4 -14h206l4 14h-101l196 280h230l6 -280h-109l-4 -14h308l4 14h-108l-18 714h-23l-502 -714h-85z" />
    <glyph glyph-name="Aacute" unicode="&#xc1;" horiz-adv-x="722" 
d="M611 911l-138 -139h14l160 94q28 17 35.5 26.5t7.5 20.5q0 13 -8.5 21t-21.5 8t-24 -8.5t-25 -22.5zM444 612l4 -304h-220l214 304h2zM-83 14l-4 -14h206l4 14h-101l196 280h230l6 -280h-109l-4 -14h308l4 14h-108l-18 714h-23l-502 -714h-85z" />
    <glyph glyph-name="Acircumflex" unicode="&#xc2;" horiz-adv-x="722" 
d="M531 940l-161 -168h16l155 106l101 -106h14l-88 168h-37zM444 612l4 -304h-220l214 304h2zM-83 14l-4 -14h206l4 14h-101l196 280h230l6 -280h-109l-4 -14h308l4 14h-108l-18 714h-23l-502 -714h-85z" />
    <glyph glyph-name="Atilde" unicode="&#xc3;" horiz-adv-x="722" 
d="M379 796h14q2 6 7 14.5t13 16t19 13t24 5.5q14 0 25 -5.5t25 -13.5l26 -14q17 -9 31 -12.5t31 -3.5q25 0 42.5 12.5t29.5 29t18 33.5t8 27h-13q-3 -7 -8.5 -16t-14 -17t-19 -13.5t-22.5 -5.5q-11 0 -20 3t-23 8l-39 21q-11 5 -23.5 11t-30.5 6q-35 0 -64 -27t-36 -72z
M444 612l4 -304h-220l214 304h2zM-83 14l-4 -14h206l4 14h-101l196 280h230l6 -280h-109l-4 -14h308l4 14h-108l-18 714h-23l-502 -714h-85z" />
    <glyph glyph-name="Adieresis" unicode="&#xc4;" horiz-adv-x="722" 
d="M582 865q0 -20 13.5 -33.5t33.5 -13.5t33.5 13.5t13.5 33.5t-13.5 33.5t-33.5 13.5t-33.5 -13.5t-13.5 -33.5zM398 865q0 -20 13.5 -33.5t33.5 -13.5t33.5 13.5t13.5 33.5t-13.5 33.5t-33.5 13.5t-33.5 -13.5t-13.5 -33.5zM444 612l4 -304h-220l214 304h2zM-83 14l-4 -14
h206l4 14h-101l196 280h230l6 -280h-109l-4 -14h308l4 14h-108l-18 714h-23l-502 -714h-85z" />
    <glyph glyph-name="Aring" unicode="&#xc5;" horiz-adv-x="722" 
d="M607 886q0 -18 -6 -38t-16 -37.5t-23 -29t-28 -11.5q-20 0 -26.5 14t-6.5 36q0 16 6 35.5t15.5 36t22.5 28t27 11.5q20 0 27.5 -12.5t7.5 -32.5zM641 874q0 30 -18.5 49t-44.5 19q-19 0 -39 -10t-36 -26t-26 -36t-10 -40q0 -12 4 -25t12 -23t20.5 -16.5t29.5 -6.5
q20 0 39 10t34.5 26.5t25 37t9.5 41.5zM444 612l4 -304h-220l214 304h2zM-83 14l-4 -14h206l4 14h-101l196 280h230l6 -280h-109l-4 -14h308l4 14h-108l-18 714h-23l-502 -714h-85z" />
    <glyph glyph-name="AE" unicode="&#xc6;" horiz-adv-x="981" 
d="M541 699l-65 -391h-240l302 391h3zM472 294l-46 -280h-108l-4 -14h490l70 196h-14q-9 -15 -26.5 -45.5t-44 -60.5t-62.5 -53t-82 -23h-132l60 361h42q26 0 42 -8t26 -20.5t13.5 -27.5t3.5 -30q0 -17 -1 -29.5t-2 -22.5h14l78 262h-14q-5 -11 -14.5 -29.5t-25 -36.5
t-37 -31t-50.5 -13h-73l53 309h172q42 0 62.5 -18t20.5 -60q0 -23 -3.5 -41.5t-5.5 -29.5h14l58 163h-528l-4 -14h104l-528 -684h-93l-4 -14h215l4 14h-103l217 280h246z" />
    <glyph glyph-name="Ccedilla" unicode="&#xc7;" horiz-adv-x="648" 
d="M632 519l69 193l-15 3q-6 -12 -16 -20.5t-26 -8.5q-15 0 -31 6t-35.5 13.5t-44.5 13.5t-58 6q-44 0 -92 -17t-94.5 -47t-88.5 -72t-73.5 -92.5t-50 -107.5t-18.5 -118q0 -52 11.5 -101t37 -88t66 -64t98.5 -30l-73 -69l12 -16q5 4 16.5 8.5t27.5 4.5q37 0 37 -45
q0 -13 -3 -30.5t-10.5 -33.5t-20 -27t-31.5 -11q-22 0 -36.5 9.5t-25.5 17.5l-9 -12q7 -7 27.5 -18t47.5 -11q23 0 44 7.5t37.5 22t26 34.5t9.5 45q0 19 -6.5 33t-16.5 22.5t-23 12.5t-25 4q-17 0 -31 -5t-23 -10l-2 2l68 64h13q56 0 97 20.5t69.5 47.5t44.5 53.5t22 38.5
l-13 7q-12 -22 -30.5 -49t-45.5 -50t-62 -39t-80 -16q-81 0 -125 39.5t-44 120.5q0 40 10.5 96t31 117t50 121.5t67 108.5t82.5 78t97 30q32 0 60 -7.5t48.5 -22.5t32.5 -38.5t12 -55.5q0 -20 -2 -39t-4 -29h13z" />
    <glyph glyph-name="Egrave" unicode="&#xc8;" horiz-adv-x="685" 
d="M395 877l133 -105h15l-99 143q-7 11 -15 19t-22 8q-17 0 -25.5 -9t-8.5 -23q0 -17 22 -33zM264 698l-245 -684h-103l-4 -14h581l70 196h-14q-8 -15 -26 -45t-44.5 -60.5t-61 -53.5t-74.5 -23h-234l129 361h68q38 0 60 -19.5t22 -57.5q0 -19 -4 -40t-9 -33h14l105 291h-14
q-5 -9 -16 -30t-28.5 -42.5t-42 -38t-56.5 -16.5h-94l111 309h211q48 0 64 -23.5t16 -60.5q0 -19 -4 -40t-8 -32h14l61 170h-556l-4 -14h116z" />
    <glyph glyph-name="Eacute" unicode="&#xc9;" horiz-adv-x="685" 
d="M593 911l-138 -139h14l160 94q28 17 35.5 26.5t7.5 20.5q0 13 -8.5 21t-21.5 8t-24 -8.5t-25 -22.5zM264 698l-245 -684h-103l-4 -14h581l70 196h-14q-8 -15 -26 -45t-44.5 -60.5t-61 -53.5t-74.5 -23h-234l129 361h68q38 0 60 -19.5t22 -57.5q0 -19 -4 -40t-9 -33h14
l105 291h-14q-5 -9 -16 -30t-28.5 -42.5t-42 -38t-56.5 -16.5h-94l111 309h211q48 0 64 -23.5t16 -60.5q0 -19 -4 -40t-8 -32h14l61 170h-556l-4 -14h116z" />
    <glyph glyph-name="Ecircumflex" unicode="&#xca;" horiz-adv-x="685" 
d="M493 940l-161 -168h16l155 106l101 -106h14l-88 168h-37zM264 698l-245 -684h-103l-4 -14h581l70 196h-14q-8 -15 -26 -45t-44.5 -60.5t-61 -53.5t-74.5 -23h-234l129 361h68q38 0 60 -19.5t22 -57.5q0 -19 -4 -40t-9 -33h14l105 291h-14q-5 -9 -16 -30t-28.5 -42.5
t-42 -38t-56.5 -16.5h-94l111 309h211q48 0 64 -23.5t16 -60.5q0 -19 -4 -40t-8 -32h14l61 170h-556l-4 -14h116z" />
    <glyph glyph-name="Edieresis" unicode="&#xcb;" horiz-adv-x="685" 
d="M539 865q0 -20 13.5 -33.5t33.5 -13.5t33.5 13.5t13.5 33.5t-13.5 33.5t-33.5 13.5t-33.5 -13.5t-13.5 -33.5zM355 865q0 -20 13.5 -33.5t33.5 -13.5t33.5 13.5t13.5 33.5t-13.5 33.5t-33.5 13.5t-33.5 -13.5t-13.5 -33.5zM264 698l-245 -684h-103l-4 -14h581l70 196h-14
q-8 -15 -26 -45t-44.5 -60.5t-61 -53.5t-74.5 -23h-234l129 361h68q38 0 60 -19.5t22 -57.5q0 -19 -4 -40t-9 -33h14l105 291h-14q-5 -9 -16 -30t-28.5 -42.5t-42 -38t-56.5 -16.5h-94l111 309h211q48 0 64 -23.5t16 -60.5q0 -19 -4 -40t-8 -32h14l61 170h-556l-4 -14h116z
" />
    <glyph glyph-name="Igrave" unicode="&#xcc;" horiz-adv-x="389" 
d="M247 877l133 -105h15l-99 143q-7 11 -15 19t-22 8q-17 0 -25.5 -9t-8.5 -23q0 -17 22 -33zM-78 14l-4 -14h307l4 14h-114l245 684h105l4 14h-310l-4 -14h115l-246 -684h-102z" />
    <glyph glyph-name="Iacute" unicode="&#xcd;" horiz-adv-x="389" 
d="M445 911l-138 -139h14l160 94q28 17 35.5 26.5t7.5 20.5q0 13 -8.5 21t-21.5 8t-24 -8.5t-25 -22.5zM-78 14l-4 -14h307l4 14h-114l245 684h105l4 14h-310l-4 -14h115l-246 -684h-102z" />
    <glyph glyph-name="Icircumflex" unicode="&#xce;" horiz-adv-x="389" 
d="M360 940l-161 -168h16l155 106l101 -106h14l-88 168h-37zM-78 14l-4 -14h307l4 14h-114l245 684h105l4 14h-310l-4 -14h115l-246 -684h-102z" />
    <glyph glyph-name="Idieresis" unicode="&#xcf;" horiz-adv-x="389" 
d="M416 865q0 -20 13.5 -33.5t33.5 -13.5t33.5 13.5t13.5 33.5t-13.5 33.5t-33.5 13.5t-33.5 -13.5t-13.5 -33.5zM232 865q0 -20 13.5 -33.5t33.5 -13.5t33.5 13.5t13.5 33.5t-13.5 33.5t-33.5 13.5t-33.5 -13.5t-13.5 -33.5zM-78 14l-4 -14h307l4 14h-114l245 684h105l4 14
h-310l-4 -14h115l-246 -684h-102z" />
    <glyph glyph-name="Eth" unicode="&#xd0;" horiz-adv-x="796" 
d="M250 389l110 309h86q45 0 73 -6t52 -18q32 -17 55.5 -55.5t23.5 -95.5q0 -66 -15.5 -133.5t-45.5 -128.5t-72.5 -112t-96.5 -85q-26 -16 -48.5 -26.5t-44 -16.5t-43.5 -8.5t-48 -2.5q-31 0 -61 2t-59 3l129 360h148l5 14h-148zM154 375l-130 -361h-102l-4 -14h168h42
t43 -1q21 -1 42 -1.5t42 -0.5q106 0 194 39t151.5 102t98.5 142t35 160q0 54 -16 103t-49.5 86.5t-85 60t-122.5 22.5h-302l-4 -14h115l-111 -309h-115l-5 -14h115z" />
    <glyph glyph-name="Ntilde" unicode="&#xd1;" horiz-adv-x="704" 
d="M370 796h14q2 6 7 14.5t13 16t19 13t24 5.5q14 0 25 -5.5t25 -13.5l26 -14q17 -9 31 -12.5t31 -3.5q25 0 42.5 12.5t29.5 29t18 33.5t8 27h-13q-3 -7 -8.5 -16t-14 -17t-19 -13.5t-22.5 -5.5q-11 0 -20 3t-23 8l-39 21q-11 5 -23.5 11t-30.5 6q-35 0 -64 -27t-36 -72z
M261 662l172 -675h7l252 711h103l4 14h-234l-4 -14h115l-196 -550h-2l-142 564h-189l-4 -14h114l-244 -684h-102l-4 -14h231l4 14h-114l231 648h2z" />
    <glyph glyph-name="Ograve" unicode="&#xd2;" horiz-adv-x="778" 
d="M441 877l133 -105h15l-99 143q-7 11 -15 19t-22 8q-17 0 -25.5 -9t-8.5 -23q0 -17 22 -33zM136 158q0 43 10.5 101t30.5 119.5t50 121t69 106.5t86.5 76t103.5 29q81 0 118 -43t37 -121q0 -38 -9.5 -93.5t-28 -116.5t-47.5 -121t-67.5 -108t-87 -78t-107.5 -30
q-47 0 -77.5 13t-48.5 34.5t-25 50.5t-7 60zM60 273q0 -70 17 -123.5t47 -89.5t72 -54.5t92 -18.5q56 0 109.5 18t101.5 50t89 75t70.5 92.5t46 104t16.5 108.5q0 50 -12 101.5t-39.5 93.5t-72 68.5t-109.5 26.5q-50 0 -101 -17.5t-98.5 -48.5t-89.5 -73.5t-72.5 -93
t-48.5 -106.5t-18 -113z" />
    <glyph glyph-name="Oacute" unicode="&#xd3;" horiz-adv-x="778" 
d="M639 911l-138 -139h14l160 94q28 17 35.5 26.5t7.5 20.5q0 13 -8.5 21t-21.5 8t-24 -8.5t-25 -22.5zM136 158q0 43 10.5 101t30.5 119.5t50 121t69 106.5t86.5 76t103.5 29q81 0 118 -43t37 -121q0 -38 -9.5 -93.5t-28 -116.5t-47.5 -121t-67.5 -108t-87 -78t-107.5 -30
q-47 0 -77.5 13t-48.5 34.5t-25 50.5t-7 60zM60 273q0 -70 17 -123.5t47 -89.5t72 -54.5t92 -18.5q56 0 109.5 18t101.5 50t89 75t70.5 92.5t46 104t16.5 108.5q0 50 -12 101.5t-39.5 93.5t-72 68.5t-109.5 26.5q-50 0 -101 -17.5t-98.5 -48.5t-89.5 -73.5t-72.5 -93
t-48.5 -106.5t-18 -113z" />
    <glyph glyph-name="Ocircumflex" unicode="&#xd4;" horiz-adv-x="778" 
d="M554 940l-161 -168h16l155 106l101 -106h14l-88 168h-37zM136 158q0 43 10.5 101t30.5 119.5t50 121t69 106.5t86.5 76t103.5 29q81 0 118 -43t37 -121q0 -38 -9.5 -93.5t-28 -116.5t-47.5 -121t-67.5 -108t-87 -78t-107.5 -30q-47 0 -77.5 13t-48.5 34.5t-25 50.5t-7 60
zM60 273q0 -70 17 -123.5t47 -89.5t72 -54.5t92 -18.5q56 0 109.5 18t101.5 50t89 75t70.5 92.5t46 104t16.5 108.5q0 50 -12 101.5t-39.5 93.5t-72 68.5t-109.5 26.5q-50 0 -101 -17.5t-98.5 -48.5t-89.5 -73.5t-72.5 -93t-48.5 -106.5t-18 -113z" />
    <glyph glyph-name="Otilde" unicode="&#xd5;" horiz-adv-x="778" 
d="M407 796h14q2 6 7 14.5t13 16t19 13t24 5.5q14 0 25 -5.5t25 -13.5l26 -14q17 -9 31 -12.5t31 -3.5q25 0 42.5 12.5t29.5 29t18 33.5t8 27h-13q-3 -7 -8.5 -16t-14 -17t-19 -13.5t-22.5 -5.5q-11 0 -20 3t-23 8l-39 21q-11 5 -23.5 11t-30.5 6q-35 0 -64 -27t-36 -72z
M136 158q0 43 10.5 101t30.5 119.5t50 121t69 106.5t86.5 76t103.5 29q81 0 118 -43t37 -121q0 -38 -9.5 -93.5t-28 -116.5t-47.5 -121t-67.5 -108t-87 -78t-107.5 -30q-47 0 -77.5 13t-48.5 34.5t-25 50.5t-7 60zM60 273q0 -70 17 -123.5t47 -89.5t72 -54.5t92 -18.5
q56 0 109.5 18t101.5 50t89 75t70.5 92.5t46 104t16.5 108.5q0 50 -12 101.5t-39.5 93.5t-72 68.5t-109.5 26.5q-50 0 -101 -17.5t-98.5 -48.5t-89.5 -73.5t-72.5 -93t-48.5 -106.5t-18 -113z" />
    <glyph glyph-name="Odieresis" unicode="&#xd6;" horiz-adv-x="778" 
d="M610 865q0 -20 13.5 -33.5t33.5 -13.5t33.5 13.5t13.5 33.5t-13.5 33.5t-33.5 13.5t-33.5 -13.5t-13.5 -33.5zM426 865q0 -20 13.5 -33.5t33.5 -13.5t33.5 13.5t13.5 33.5t-13.5 33.5t-33.5 13.5t-33.5 -13.5t-13.5 -33.5zM136 158q0 43 10.5 101t30.5 119.5t50 121
t69 106.5t86.5 76t103.5 29q81 0 118 -43t37 -121q0 -38 -9.5 -93.5t-28 -116.5t-47.5 -121t-67.5 -108t-87 -78t-107.5 -30q-47 0 -77.5 13t-48.5 34.5t-25 50.5t-7 60zM60 273q0 -70 17 -123.5t47 -89.5t72 -54.5t92 -18.5q56 0 109.5 18t101.5 50t89 75t70.5 92.5t46 104
t16.5 108.5q0 50 -12 101.5t-39.5 93.5t-72 68.5t-109.5 26.5q-50 0 -101 -17.5t-98.5 -48.5t-89.5 -73.5t-72.5 -93t-48.5 -106.5t-18 -113z" />
    <glyph glyph-name="multiply" unicode="&#xd7;" horiz-adv-x="593" 
d="M253 227l208 -208l13 14l-207 207l207 207l-13 14l-208 -208l-208 208l-13 -14l207 -207l-207 -207l13 -14z" />
    <glyph glyph-name="Oslash" unicode="&#xd8;" horiz-adv-x="778" 
d="M177 15l-45 -76l14 -8l45 76q43 -20 97 -20q56 0 109.5 18t101.5 50t89 75t70.5 92.5t46 104t16.5 108.5q0 38 -7 77.5t-22 75.5t-39.5 65.5t-59.5 47.5l40 70l-14 8l-41 -71q-39 17 -90 17q-50 0 -101 -17.5t-98.5 -48.5t-89.5 -73.5t-72.5 -93t-48.5 -106.5t-18 -113
q0 -97 31 -161.5t86 -96.5zM199 22l385 663q29 -20 43 -55t14 -83q0 -38 -9.5 -93.5t-28 -116.5t-47.5 -121t-67.5 -108t-87 -78t-107.5 -30q-32 0 -55 5.5t-40 16.5zM569 693l-383 -663q-29 22 -39.5 56t-10.5 72q0 43 10.5 101t30.5 119.5t50 121t69 106.5t86.5 76
t103.5 29q49 0 83 -18z" />
    <glyph glyph-name="Ugrave" unicode="&#xd9;" horiz-adv-x="741" 
d="M423 877l133 -105h15l-99 143q-7 11 -15 19t-22 8q-17 0 -25.5 -9t-8.5 -23q0 -17 22 -33zM147 712l-4 -14h114l-132 -368q-20 -53 -30.5 -93.5t-10.5 -83.5q0 -27 10 -56.5t34 -53.5t63 -40t96 -16q111 0 179 57.5t107 183.5l147 470h104l4 14h-234l-4 -14h114
l-142 -457q-13 -42 -33.5 -84.5t-52 -77.5t-76 -57t-105.5 -22q-32 0 -57 10t-41.5 27.5t-25 40.5t-8.5 48q0 38 8 70.5t23 74.5l153 427h105l4 14h-309z" />
    <glyph glyph-name="Uacute" unicode="&#xda;" horiz-adv-x="741" 
d="M621 911l-138 -139h14l160 94q28 17 35.5 26.5t7.5 20.5q0 13 -8.5 21t-21.5 8t-24 -8.5t-25 -22.5zM147 712l-4 -14h114l-132 -368q-20 -53 -30.5 -93.5t-10.5 -83.5q0 -27 10 -56.5t34 -53.5t63 -40t96 -16q111 0 179 57.5t107 183.5l147 470h104l4 14h-234l-4 -14h114
l-142 -457q-13 -42 -33.5 -84.5t-52 -77.5t-76 -57t-105.5 -22q-32 0 -57 10t-41.5 27.5t-25 40.5t-8.5 48q0 38 8 70.5t23 74.5l153 427h105l4 14h-309z" />
    <glyph glyph-name="Ucircumflex" unicode="&#xdb;" horiz-adv-x="741" 
d="M541 940l-161 -168h16l155 106l101 -106h14l-88 168h-37zM147 712l-4 -14h114l-132 -368q-20 -53 -30.5 -93.5t-10.5 -83.5q0 -27 10 -56.5t34 -53.5t63 -40t96 -16q111 0 179 57.5t107 183.5l147 470h104l4 14h-234l-4 -14h114l-142 -457q-13 -42 -33.5 -84.5t-52 -77.5
t-76 -57t-105.5 -22q-32 0 -57 10t-41.5 27.5t-25 40.5t-8.5 48q0 38 8 70.5t23 74.5l153 427h105l4 14h-309z" />
    <glyph glyph-name="Udieresis" unicode="&#xdc;" horiz-adv-x="741" 
d="M592 865q0 -20 13.5 -33.5t33.5 -13.5t33.5 13.5t13.5 33.5t-13.5 33.5t-33.5 13.5t-33.5 -13.5t-13.5 -33.5zM408 865q0 -20 13.5 -33.5t33.5 -13.5t33.5 13.5t13.5 33.5t-13.5 33.5t-33.5 13.5t-33.5 -13.5t-13.5 -33.5zM147 712l-4 -14h114l-132 -368
q-20 -53 -30.5 -93.5t-10.5 -83.5q0 -27 10 -56.5t34 -53.5t63 -40t96 -16q111 0 179 57.5t107 183.5l147 470h104l4 14h-234l-4 -14h114l-142 -457q-13 -42 -33.5 -84.5t-52 -77.5t-76 -57t-105.5 -22q-32 0 -57 10t-41.5 27.5t-25 40.5t-8.5 48q0 38 8 70.5t23 74.5
l153 427h105l4 14h-309z" />
    <glyph glyph-name="Yacute" unicode="&#xdd;" horiz-adv-x="648" 
d="M574 911l-138 -139h14l160 94q28 17 35.5 26.5t7.5 20.5q0 13 -8.5 21t-21.5 8t-24 -8.5t-25 -22.5zM168 14h-112l-4 -14h309l4 14h-115l117 325l318 359h78l4 14h-196l-4 -14h98l-305 -343l-65 343h111l4 14h-308l-4 -14h109l71 -375z" />
    <glyph glyph-name="Thorn" unicode="&#xde;" horiz-adv-x="630" 
d="M265 698l-246 -684h-102l-4 -14h307l4 14h-114l62 173q16 -3 41 -5.5t52 -2.5q53 0 110.5 14.5t105 43.5t78.5 71.5t31 99.5q0 38 -16 71t-46.5 58t-75 39.5t-102.5 14.5h-33l38 107h105l4 14h-310l-4 -14h115zM177 201l134 376h39q69 0 108.5 -32.5t39.5 -98.5
q0 -48 -17.5 -93.5t-49 -81t-76 -57t-97.5 -21.5q-23 0 -45 3t-36 5z" />
    <glyph glyph-name="germandbls" unicode="&#xdf;" horiz-adv-x="556" 
d="M154 478l-139 -471q-16 -56 -38 -102t-46.5 -78.5t-50 -50t-48.5 -17.5q-28 0 -28 27q0 14 5 23.5t5 22.5q0 24 -34 24q-17 0 -29.5 -9t-12.5 -35q0 -29 24 -48t59 -19q31 0 69 20t75 57t70 89t53 117l150 493q17 55 40 97t50 70.5t55.5 43t55.5 14.5q45 0 72 -27.5
t27 -72.5q0 -42 -20.5 -81.5t-74.5 -68.5l-53 -28q-49 -26 -69 -51t-20 -55q0 -20 9 -42t24 -51l37 -74q17 -33 26.5 -55t9.5 -48q0 -41 -30 -66t-72 -25q-64 0 -64 43q0 9 2.5 14.5t6 10t6 9t2.5 12.5q0 12 -10.5 17.5t-21.5 5.5q-17 0 -34 -10.5t-17 -32.5
q0 -11 7.5 -25.5t23 -27t39 -21t54.5 -8.5q29 0 59.5 9.5t55 27.5t40 43.5t15.5 57.5q0 20 -7 39t-19 44l-52 105q-11 21 -17.5 40t-6.5 36q0 20 12.5 37.5t42.5 36.5l47 29q47 29 65 69t18 83q0 30 -9.5 51.5t-25 36t-36 21t-42.5 6.5q-44 0 -85.5 -15t-78 -48.5t-67.5 -87
t-54 -131.5z" />
    <glyph glyph-name="agrave" unicode="&#xe0;" horiz-adv-x="537" 
d="M231 657l133 -105h15l-99 143q-7 11 -15 19t-22 8q-17 0 -25.5 -9t-8.5 -23q0 -17 22 -33zM355 298l-53 -147q-5 -14 -23 -39t-43 -50t-55 -43t-59 -18t-41.5 20t-12.5 52q0 28 9 65t25.5 76.5t39.5 78t50.5 68.5t59 48.5t64.5 18.5q18 0 29 -6.5t17.5 -15.5t9 -19.5
t2.5 -19.5q0 -10 -3.5 -23.5t-15.5 -45.5zM363 126l109 303h-70l-17 -49h-2q0 28 -21 45t-51 17q-26 0 -59.5 -13t-68 -36t-68 -54t-59 -67.5t-41.5 -76.5t-16 -80q0 -33 8.5 -57t23.5 -39.5t34.5 -23t40.5 -7.5q33 0 60 11.5t49.5 29t40.5 38t32 37.5h2q-5 -14 -8 -31.5
t-3 -24.5q0 -60 66 -60q28 0 49 11.5t37 27t26 32.5t15 28l-13 7q-3 -6 -10.5 -20.5t-19 -29t-27.5 -26t-36 -11.5q-25 0 -25 26q0 19 6.5 43t15.5 50z" />
    <glyph glyph-name="aacute" unicode="&#xe1;" horiz-adv-x="537" 
d="M429 691l-138 -139h14l160 94q28 17 35.5 26.5t7.5 20.5q0 13 -8.5 21t-21.5 8t-24 -8.5t-25 -22.5zM355 298l-53 -147q-5 -14 -23 -39t-43 -50t-55 -43t-59 -18t-41.5 20t-12.5 52q0 28 9 65t25.5 76.5t39.5 78t50.5 68.5t59 48.5t64.5 18.5q18 0 29 -6.5t17.5 -15.5
t9 -19.5t2.5 -19.5q0 -10 -3.5 -23.5t-15.5 -45.5zM363 126l109 303h-70l-17 -49h-2q0 28 -21 45t-51 17q-26 0 -59.5 -13t-68 -36t-68 -54t-59 -67.5t-41.5 -76.5t-16 -80q0 -33 8.5 -57t23.5 -39.5t34.5 -23t40.5 -7.5q33 0 60 11.5t49.5 29t40.5 38t32 37.5h2
q-5 -14 -8 -31.5t-3 -24.5q0 -60 66 -60q28 0 49 11.5t37 27t26 32.5t15 28l-13 7q-3 -6 -10.5 -20.5t-19 -29t-27.5 -26t-36 -11.5q-25 0 -25 26q0 19 6.5 43t15.5 50z" />
    <glyph glyph-name="acircumflex" unicode="&#xe2;" horiz-adv-x="537" 
d="M349 720l-161 -168h16l155 106l101 -106h14l-88 168h-37zM355 298l-53 -147q-5 -14 -23 -39t-43 -50t-55 -43t-59 -18t-41.5 20t-12.5 52q0 28 9 65t25.5 76.5t39.5 78t50.5 68.5t59 48.5t64.5 18.5q18 0 29 -6.5t17.5 -15.5t9 -19.5t2.5 -19.5q0 -10 -3.5 -23.5
t-15.5 -45.5zM363 126l109 303h-70l-17 -49h-2q0 28 -21 45t-51 17q-26 0 -59.5 -13t-68 -36t-68 -54t-59 -67.5t-41.5 -76.5t-16 -80q0 -33 8.5 -57t23.5 -39.5t34.5 -23t40.5 -7.5q33 0 60 11.5t49.5 29t40.5 38t32 37.5h2q-5 -14 -8 -31.5t-3 -24.5q0 -60 66 -60
q28 0 49 11.5t37 27t26 32.5t15 28l-13 7q-3 -6 -10.5 -20.5t-19 -29t-27.5 -26t-36 -11.5q-25 0 -25 26q0 19 6.5 43t15.5 50z" />
    <glyph glyph-name="atilde" unicode="&#xe3;" horiz-adv-x="537" 
d="M197 576h14q2 6 7 14.5t13 16t19 13t24 5.5q14 0 25 -5.5t25 -13.5l26 -14q17 -9 31 -12.5t31 -3.5q25 0 42.5 12.5t29.5 29t18 33.5t8 27h-13q-3 -7 -8.5 -16t-14 -17t-19 -13.5t-22.5 -5.5q-11 0 -20 3t-23 8l-39 21q-11 5 -23.5 11t-30.5 6q-35 0 -64 -27t-36 -72z
M355 298l-53 -147q-5 -14 -23 -39t-43 -50t-55 -43t-59 -18t-41.5 20t-12.5 52q0 28 9 65t25.5 76.5t39.5 78t50.5 68.5t59 48.5t64.5 18.5q18 0 29 -6.5t17.5 -15.5t9 -19.5t2.5 -19.5q0 -10 -3.5 -23.5t-15.5 -45.5zM363 126l109 303h-70l-17 -49h-2q0 28 -21 45t-51 17
q-26 0 -59.5 -13t-68 -36t-68 -54t-59 -67.5t-41.5 -76.5t-16 -80q0 -33 8.5 -57t23.5 -39.5t34.5 -23t40.5 -7.5q33 0 60 11.5t49.5 29t40.5 38t32 37.5h2q-5 -14 -8 -31.5t-3 -24.5q0 -60 66 -60q28 0 49 11.5t37 27t26 32.5t15 28l-13 7q-3 -6 -10.5 -20.5t-19 -29
t-27.5 -26t-36 -11.5q-25 0 -25 26q0 19 6.5 43t15.5 50z" />
    <glyph glyph-name="adieresis" unicode="&#xe4;" horiz-adv-x="537" 
d="M400 665q0 -20 13.5 -33.5t33.5 -13.5t33.5 13.5t13.5 33.5t-13.5 33.5t-33.5 13.5t-33.5 -13.5t-13.5 -33.5zM216 665q0 -20 13.5 -33.5t33.5 -13.5t33.5 13.5t13.5 33.5t-13.5 33.5t-33.5 13.5t-33.5 -13.5t-13.5 -33.5zM355 298l-53 -147q-5 -14 -23 -39t-43 -50
t-55 -43t-59 -18t-41.5 20t-12.5 52q0 28 9 65t25.5 76.5t39.5 78t50.5 68.5t59 48.5t64.5 18.5q18 0 29 -6.5t17.5 -15.5t9 -19.5t2.5 -19.5q0 -10 -3.5 -23.5t-15.5 -45.5zM363 126l109 303h-70l-17 -49h-2q0 28 -21 45t-51 17q-26 0 -59.5 -13t-68 -36t-68 -54t-59 -67.5
t-41.5 -76.5t-16 -80q0 -33 8.5 -57t23.5 -39.5t34.5 -23t40.5 -7.5q33 0 60 11.5t49.5 29t40.5 38t32 37.5h2q-5 -14 -8 -31.5t-3 -24.5q0 -60 66 -60q28 0 49 11.5t37 27t26 32.5t15 28l-13 7q-3 -6 -10.5 -20.5t-19 -29t-27.5 -26t-36 -11.5q-25 0 -25 26q0 19 6.5 43
t15.5 50z" />
    <glyph glyph-name="aring" unicode="&#xe5;" horiz-adv-x="537" 
d="M425 686q0 -18 -6 -38t-16 -37.5t-23 -29t-28 -11.5q-20 0 -26.5 14t-6.5 36q0 16 6 35.5t15.5 36t22.5 28t27 11.5q20 0 27.5 -12.5t7.5 -32.5zM459 674q0 30 -18.5 49t-44.5 19q-19 0 -39 -10t-36 -26t-26 -36t-10 -40q0 -12 4 -25t12 -23t20.5 -16.5t29.5 -6.5
q20 0 39 10t34.5 26.5t25 37t9.5 41.5zM355 298l-53 -147q-5 -14 -23 -39t-43 -50t-55 -43t-59 -18t-41.5 20t-12.5 52q0 28 9 65t25.5 76.5t39.5 78t50.5 68.5t59 48.5t64.5 18.5q18 0 29 -6.5t17.5 -15.5t9 -19.5t2.5 -19.5q0 -10 -3.5 -23.5t-15.5 -45.5zM363 126
l109 303h-70l-17 -49h-2q0 28 -21 45t-51 17q-26 0 -59.5 -13t-68 -36t-68 -54t-59 -67.5t-41.5 -76.5t-16 -80q0 -33 8.5 -57t23.5 -39.5t34.5 -23t40.5 -7.5q33 0 60 11.5t49.5 29t40.5 38t32 37.5h2q-5 -14 -8 -31.5t-3 -24.5q0 -60 66 -60q28 0 49 11.5t37 27t26 32.5
t15 28l-13 7q-3 -6 -10.5 -20.5t-19 -29t-27.5 -26t-36 -11.5q-25 0 -25 26q0 19 6.5 43t15.5 50z" />
    <glyph glyph-name="ae" unicode="&#xe6;" horiz-adv-x="741" 
d="M358 298l-53 -147q-5 -14 -23 -39t-43 -50t-55 -43t-59 -18t-41.5 20t-12.5 52q0 28 9 65t25.5 76.5t39.5 78t50.5 68.5t59 48.5t64.5 18.5q18 0 29 -6.5t17.5 -15.5t9 -19.5t2.5 -19.5q0 -10 -3.5 -23.5t-15.5 -45.5zM642 380q0 -26 -14.5 -50t-39 -42t-56.5 -29
t-68 -11q-28 0 -51 4q9 26 26 56.5t40 57t51.5 44.5t59.5 18q28 0 40 -14t12 -34zM644 98l-12 7q-8 -10 -20.5 -27.5t-31 -34.5t-43 -29.5t-56.5 -12.5q-43 0 -71 26.5t-28 80.5q0 35 7.5 66.5t18.5 63.5q12 -2 28 -3t33 -1q10 0 31.5 2.5t47.5 8t53.5 15.5t50.5 24.5
t37.5 35t14.5 47.5q0 20 -10 34t-25 23t-33 13.5t-34 4.5q-29 0 -51.5 -8t-40.5 -20t-31.5 -26t-24.5 -26l-3 2l24 65h-70l-17 -49h-2q0 28 -21 45t-51 17q-26 0 -59 -13t-68 -36t-68.5 -54t-59.5 -67.5t-42 -76.5t-16 -80q0 -33 9 -57t24 -39.5t34.5 -23t40.5 -7.5
q35 0 66 15t56.5 36.5t44.5 45t30 40.5h2q1 -21 11.5 -45.5t30.5 -44.5t49.5 -33.5t68.5 -13.5q43 0 73.5 14.5t51.5 33t33 37t18 25.5z" />
    <glyph glyph-name="ccedilla" unicode="&#xe7;" horiz-adv-x="407" 
d="M150 -12l-72 -69l12 -16q5 4 16.5 8.5t27.5 4.5q37 0 37 -45q0 -13 -3 -30.5t-10.5 -33.5t-20 -27t-31.5 -11q-22 0 -36.5 9.5t-25.5 17.5l-9 -12q7 -7 27.5 -18t47.5 -11q23 0 44 7.5t37.5 22t26 34.5t9.5 45q0 19 -6.5 33t-16.5 22.5t-23 12.5t-25 4q-17 0 -31 -5
t-23 -10l-2 2l68 65q34 0 61 10.5t48.5 26.5t38 35.5t28.5 37.5l-14 8q-9 -15 -23 -33.5t-33 -34.5t-42.5 -26.5t-51.5 -10.5q-51 0 -75.5 30t-24.5 73q0 29 6.5 64t19.5 71t31 70t41.5 60.5t51.5 42.5t60 16q20 0 31.5 -6t11.5 -22q0 -12 -4 -19.5t-9.5 -13.5t-9.5 -13.5
t-4 -19.5q0 -10 7 -17.5t25 -7.5t34.5 10t16.5 43q0 23 -8.5 38.5t-21.5 24.5t-29.5 13t-33.5 4q-55 0 -106.5 -28.5t-91.5 -73t-64 -98t-24 -104.5q0 -29 9.5 -55t27.5 -46t44 -33t59 -16z" />
    <glyph glyph-name="egrave" unicode="&#xe8;" horiz-adv-x="426" 
d="M175 657l133 -105h15l-99 143q-7 11 -15 19t-22 8q-17 0 -25.5 -9t-8.5 -23q0 -17 22 -33zM332 380q0 -26 -14.5 -50t-39 -42t-56.5 -29t-68 -11q-28 0 -51 4q9 26 26 56.5t40 57t51.5 44.5t59.5 18q28 0 40 -14t12 -34zM334 98l-12 7q-8 -10 -20.5 -27.5t-31 -34.5
t-43 -29.5t-56.5 -12.5q-43 0 -71 26.5t-28 80.5q0 35 7.5 66.5t18.5 63.5q12 -2 28 -3t33 -1q10 0 31.5 2.5t47.5 8t53.5 15.5t50.5 24.5t37.5 35t14.5 47.5q0 20 -10 34t-26 23t-36 13.5t-40 4.5q-52 0 -102 -29t-89.5 -73.5t-64 -98t-24.5 -103.5q0 -25 8.5 -51.5
t27 -48.5t48 -36t72.5 -14t73.5 14.5t51.5 33t33 37t18 25.5z" />
    <glyph glyph-name="eacute" unicode="&#xe9;" horiz-adv-x="426" 
d="M373 691l-138 -139h14l160 94q28 17 35.5 26.5t7.5 20.5q0 13 -8.5 21t-21.5 8t-24 -8.5t-25 -22.5zM332 380q0 -26 -14.5 -50t-39 -42t-56.5 -29t-68 -11q-28 0 -51 4q9 26 26 56.5t40 57t51.5 44.5t59.5 18q28 0 40 -14t12 -34zM334 98l-12 7q-8 -10 -20.5 -27.5
t-31 -34.5t-43 -29.5t-56.5 -12.5q-43 0 -71 26.5t-28 80.5q0 35 7.5 66.5t18.5 63.5q12 -2 28 -3t33 -1q10 0 31.5 2.5t47.5 8t53.5 15.5t50.5 24.5t37.5 35t14.5 47.5q0 20 -10 34t-26 23t-36 13.5t-40 4.5q-52 0 -102 -29t-89.5 -73.5t-64 -98t-24.5 -103.5
q0 -25 8.5 -51.5t27 -48.5t48 -36t72.5 -14t73.5 14.5t51.5 33t33 37t18 25.5z" />
    <glyph glyph-name="ecircumflex" unicode="&#xea;" horiz-adv-x="426" 
d="M293 720l-161 -168h16l155 106l101 -106h14l-88 168h-37zM332 380q0 -26 -14.5 -50t-39 -42t-56.5 -29t-68 -11q-28 0 -51 4q9 26 26 56.5t40 57t51.5 44.5t59.5 18q28 0 40 -14t12 -34zM334 98l-12 7q-8 -10 -20.5 -27.5t-31 -34.5t-43 -29.5t-56.5 -12.5
q-43 0 -71 26.5t-28 80.5q0 35 7.5 66.5t18.5 63.5q12 -2 28 -3t33 -1q10 0 31.5 2.5t47.5 8t53.5 15.5t50.5 24.5t37.5 35t14.5 47.5q0 20 -10 34t-26 23t-36 13.5t-40 4.5q-52 0 -102 -29t-89.5 -73.5t-64 -98t-24.5 -103.5q0 -25 8.5 -51.5t27 -48.5t48 -36t72.5 -14
t73.5 14.5t51.5 33t33 37t18 25.5z" />
    <glyph glyph-name="edieresis" unicode="&#xeb;" horiz-adv-x="426" 
d="M344 665q0 -20 13.5 -33.5t33.5 -13.5t33.5 13.5t13.5 33.5t-13.5 33.5t-33.5 13.5t-33.5 -13.5t-13.5 -33.5zM160 665q0 -20 13.5 -33.5t33.5 -13.5t33.5 13.5t13.5 33.5t-13.5 33.5t-33.5 13.5t-33.5 -13.5t-13.5 -33.5zM332 380q0 -26 -14.5 -50t-39 -42t-56.5 -29
t-68 -11q-28 0 -51 4q9 26 26 56.5t40 57t51.5 44.5t59.5 18q28 0 40 -14t12 -34zM334 98l-12 7q-8 -10 -20.5 -27.5t-31 -34.5t-43 -29.5t-56.5 -12.5q-43 0 -71 26.5t-28 80.5q0 35 7.5 66.5t18.5 63.5q12 -2 28 -3t33 -1q10 0 31.5 2.5t47.5 8t53.5 15.5t50.5 24.5
t37.5 35t14.5 47.5q0 20 -10 34t-26 23t-36 13.5t-40 4.5q-52 0 -102 -29t-89.5 -73.5t-64 -98t-24.5 -103.5q0 -25 8.5 -51.5t27 -48.5t48 -36t72.5 -14t73.5 14.5t51.5 33t33 37t18 25.5z" />
    <glyph glyph-name="igrave" unicode="&#xec;" 
d="M101 657l133 -105h15l-99 143q-7 11 -15 19t-22 8q-17 0 -25.5 -9t-8.5 -23q0 -17 22 -33zM135 415l-103 -293q-6 -17 -12 -37.5t-6 -37.5q0 -32 19.5 -45.5t52.5 -13.5q30 0 52 12t37 28.5t23.5 33t12.5 24.5l-12 5q-4 -9 -13 -24t-22 -29.5t-28.5 -25.5t-31.5 -11
q-14 0 -21 8.5t-7 20.5q0 14 5 29.5t10 30.5l118 339h-159l-4 -14h89z" />
    <glyph glyph-name="iacute" unicode="&#xed;" 
d="M299 691l-138 -139h14l160 94q28 17 35.5 26.5t7.5 20.5q0 13 -8.5 21t-21.5 8t-24 -8.5t-25 -22.5zM135 415l-103 -293q-6 -17 -12 -37.5t-6 -37.5q0 -32 19.5 -45.5t52.5 -13.5q30 0 52 12t37 28.5t23.5 33t12.5 24.5l-12 5q-4 -9 -13 -24t-22 -29.5t-28.5 -25.5
t-31.5 -11q-14 0 -21 8.5t-7 20.5q0 14 5 29.5t10 30.5l118 339h-159l-4 -14h89z" />
    <glyph glyph-name="icircumflex" unicode="&#xee;" 
d="M219 720l-161 -168h16l155 106l101 -106h14l-88 168h-37zM135 415l-103 -293q-6 -17 -12 -37.5t-6 -37.5q0 -32 19.5 -45.5t52.5 -13.5q30 0 52 12t37 28.5t23.5 33t12.5 24.5l-12 5q-4 -9 -13 -24t-22 -29.5t-28.5 -25.5t-31.5 -11q-14 0 -21 8.5t-7 20.5q0 14 5 29.5
t10 30.5l118 339h-159l-4 -14h89z" />
    <glyph glyph-name="idieresis" unicode="&#xef;" 
d="M270 665q0 -20 13.5 -33.5t33.5 -13.5t33.5 13.5t13.5 33.5t-13.5 33.5t-33.5 13.5t-33.5 -13.5t-13.5 -33.5zM86 665q0 -20 13.5 -33.5t33.5 -13.5t33.5 13.5t13.5 33.5t-13.5 33.5t-33.5 13.5t-33.5 -13.5t-13.5 -33.5zM135 415l-103 -293q-6 -17 -12 -37.5t-6 -37.5
q0 -32 19.5 -45.5t52.5 -13.5q30 0 52 12t37 28.5t23.5 33t12.5 24.5l-12 5q-4 -9 -13 -24t-22 -29.5t-28.5 -25.5t-31.5 -11q-14 0 -21 8.5t-7 20.5q0 14 5 29.5t10 30.5l118 339h-159l-4 -14h89z" />
    <glyph glyph-name="eth" unicode="&#xf0;" horiz-adv-x="481" 
d="M66 101q0 26 6 60.5t17.5 71t28.5 71.5t38.5 62.5t47.5 44.5t55 17q51 0 71.5 -28t20.5 -76q0 -20 -6 -52t-17.5 -68t-28.5 -72t-39 -65.5t-49 -47.5t-58 -18q-38 0 -62.5 24.5t-24.5 75.5zM282 615l-132 -35l4 -13l134 36q20 -32 39.5 -85.5t24.5 -122.5l-2 -2
q-8 18 -29.5 33.5t-56.5 15.5q-43 0 -90 -22t-85.5 -60t-63.5 -90.5t-25 -112.5q0 -34 11 -64.5t31.5 -53.5t49 -37t64.5 -14q39 0 85.5 20t86.5 61t66.5 103t26.5 145q0 53 -11 100t-26 85t-31.5 66t-28.5 44l126 34l-4 13l-129 -35q-27 38 -58.5 70.5t-57.5 50.5l-11 -11
q22 -19 48 -52t44 -67z" />
    <glyph glyph-name="ntilde" unicode="&#xf1;" horiz-adv-x="537" 
d="M197 576h14q2 6 7 14.5t13 16t19 13t24 5.5q14 0 25 -5.5t25 -13.5l26 -14q17 -9 31 -12.5t31 -3.5q25 0 42.5 12.5t29.5 29t18 33.5t8 27h-13q-3 -7 -8.5 -16t-14 -17t-19 -13.5t-22.5 -5.5q-11 0 -20 3t-23 8l-39 21q-11 5 -23.5 11t-30.5 6q-35 0 -64 -27t-36 -72z
M141 415l-144 -415h69l75 209q16 45 41.5 83.5t54.5 67t58 45t51 16.5t30.5 -12t8.5 -25q0 -16 -8 -40l-84 -239q-5 -16 -8.5 -30t-3.5 -27q0 -32 22 -46t54 -14q29 0 50 11.5t35.5 27.5t23.5 32.5t14 26.5l-11 5q-5 -11 -14 -26.5t-21.5 -29.5t-27.5 -24t-33 -10
q-16 0 -21 10t-5 22q0 16 5 32.5t11 33.5l65 185q8 23 13.5 39.5t5.5 33.5q0 33 -24.5 55.5t-66.5 22.5q-86 0 -183 -129h-2l41 123h-158l-4 -14h91z" />
    <glyph glyph-name="ograve" unicode="&#xf2;" horiz-adv-x="481" 
d="M203 657l133 -105h15l-99 143q-7 11 -15 19t-22 8q-17 0 -25.5 -9t-8.5 -23q0 -17 22 -33zM66 101q0 26 6 60.5t17.5 71t28.5 71.5t38.5 62.5t47.5 44.5t55 17q51 0 71.5 -28t20.5 -76q0 -20 -6 -52t-17.5 -68t-28.5 -72t-39 -65.5t-49 -47.5t-58 -18q-38 0 -62.5 24.5
t-24.5 75.5zM0 157q0 -34 11 -64.5t31.5 -53.5t49 -37t64.5 -14q42 0 88.5 22.5t84.5 61.5t63 90.5t25 109.5q0 28 -9 58t-28 55t-48 41t-68 16q-43 0 -90 -22t-85.5 -60t-63.5 -90.5t-25 -112.5z" />
    <glyph glyph-name="oacute" unicode="&#xf3;" horiz-adv-x="481" 
d="M401 691l-138 -139h14l160 94q28 17 35.5 26.5t7.5 20.5q0 13 -8.5 21t-21.5 8t-24 -8.5t-25 -22.5zM66 101q0 26 6 60.5t17.5 71t28.5 71.5t38.5 62.5t47.5 44.5t55 17q51 0 71.5 -28t20.5 -76q0 -20 -6 -52t-17.5 -68t-28.5 -72t-39 -65.5t-49 -47.5t-58 -18
q-38 0 -62.5 24.5t-24.5 75.5zM0 157q0 -34 11 -64.5t31.5 -53.5t49 -37t64.5 -14q42 0 88.5 22.5t84.5 61.5t63 90.5t25 109.5q0 28 -9 58t-28 55t-48 41t-68 16q-43 0 -90 -22t-85.5 -60t-63.5 -90.5t-25 -112.5z" />
    <glyph glyph-name="ocircumflex" unicode="&#xf4;" horiz-adv-x="481" 
d="M321 720l-161 -168h16l155 106l101 -106h14l-88 168h-37zM66 101q0 26 6 60.5t17.5 71t28.5 71.5t38.5 62.5t47.5 44.5t55 17q51 0 71.5 -28t20.5 -76q0 -20 -6 -52t-17.5 -68t-28.5 -72t-39 -65.5t-49 -47.5t-58 -18q-38 0 -62.5 24.5t-24.5 75.5zM0 157q0 -34 11 -64.5
t31.5 -53.5t49 -37t64.5 -14q42 0 88.5 22.5t84.5 61.5t63 90.5t25 109.5q0 28 -9 58t-28 55t-48 41t-68 16q-43 0 -90 -22t-85.5 -60t-63.5 -90.5t-25 -112.5z" />
    <glyph glyph-name="otilde" unicode="&#xf5;" horiz-adv-x="481" 
d="M169 576h14q2 6 7 14.5t13 16t19 13t24 5.5q14 0 25 -5.5t25 -13.5l26 -14q17 -9 31 -12.5t31 -3.5q25 0 42.5 12.5t29.5 29t18 33.5t8 27h-13q-3 -7 -8.5 -16t-14 -17t-19 -13.5t-22.5 -5.5q-11 0 -20 3t-23 8l-39 21q-11 5 -23.5 11t-30.5 6q-35 0 -64 -27t-36 -72z
M66 101q0 26 6 60.5t17.5 71t28.5 71.5t38.5 62.5t47.5 44.5t55 17q51 0 71.5 -28t20.5 -76q0 -20 -6 -52t-17.5 -68t-28.5 -72t-39 -65.5t-49 -47.5t-58 -18q-38 0 -62.5 24.5t-24.5 75.5zM0 157q0 -34 11 -64.5t31.5 -53.5t49 -37t64.5 -14q42 0 88.5 22.5t84.5 61.5
t63 90.5t25 109.5q0 28 -9 58t-28 55t-48 41t-68 16q-43 0 -90 -22t-85.5 -60t-63.5 -90.5t-25 -112.5z" />
    <glyph glyph-name="odieresis" unicode="&#xf6;" horiz-adv-x="481" 
d="M372 665q0 -20 13.5 -33.5t33.5 -13.5t33.5 13.5t13.5 33.5t-13.5 33.5t-33.5 13.5t-33.5 -13.5t-13.5 -33.5zM188 665q0 -20 13.5 -33.5t33.5 -13.5t33.5 13.5t13.5 33.5t-13.5 33.5t-33.5 13.5t-33.5 -13.5t-13.5 -33.5zM66 101q0 26 6 60.5t17.5 71t28.5 71.5
t38.5 62.5t47.5 44.5t55 17q51 0 71.5 -28t20.5 -76q0 -20 -6 -52t-17.5 -68t-28.5 -72t-39 -65.5t-49 -47.5t-58 -18q-38 0 -62.5 24.5t-24.5 75.5zM0 157q0 -34 11 -64.5t31.5 -53.5t49 -37t64.5 -14q42 0 88.5 22.5t84.5 61.5t63 90.5t25 109.5q0 28 -9 58t-28 55t-48 41
t-68 16q-43 0 -90 -22t-85.5 -60t-63.5 -90.5t-25 -112.5z" />
    <glyph glyph-name="divide" unicode="&#xf7;" horiz-adv-x="593" 
d="M253 441q-20 0 -33.5 -13.5t-13.5 -33.5t13.5 -33.5t33.5 -13.5t33.5 13.5t13.5 33.5t-13.5 33.5t-33.5 13.5zM253 39q20 0 33.5 13.5t13.5 33.5t-13.5 33.5t-33.5 13.5t-33.5 -13.5t-13.5 -33.5t13.5 -33.5t33.5 -13.5zM13 231h480v18h-480v-18z" />
    <glyph glyph-name="oslash" unicode="&#xf8;" horiz-adv-x="481" 
d="M78 9l-40 -68l12 -7l40 68q30 -14 66 -14q42 0 88.5 22.5t84.5 61.5t63 90.5t25 109.5q0 21 -5 42.5t-14.5 41.5t-24.5 37t-36 29l39 66l-12 7l-39 -67q-30 14 -61 14q-43 0 -90 -22t-85.5 -60t-63.5 -90.5t-25 -112.5q0 -46 20.5 -86t57.5 -62zM100 18l226 385
q14 -14 19.5 -34t5.5 -45q0 -20 -6 -52t-17.5 -68t-28.5 -72t-39 -65.5t-49 -47.5t-58 -18q-30 0 -53 17zM316 413l-227 -385q-23 26 -23 73q0 26 6 60.5t17.5 71t28.5 71.5t38.5 62.5t47.5 44.5t55 17q19 0 33 -4t24 -11z" />
    <glyph glyph-name="ugrave" unicode="&#xf9;" horiz-adv-x="519" 
d="M222 657l133 -105h15l-99 143q-7 11 -15 19t-22 8q-17 0 -25.5 -9t-8.5 -23q0 -17 22 -33zM46 429l-4 -14h89l-98 -277q-5 -16 -12 -36.5t-7 -35.5q0 -38 25 -58t68 -20q27 0 52.5 13.5t48 33t42 42t33.5 40.5l2 -2q-8 -20 -12 -35.5t-4 -32.5q0 -32 19.5 -45.5
t52.5 -13.5q30 0 52 12t37 28.5t23.5 33t12.5 24.5l-12 5q-4 -9 -13 -24t-21.5 -29.5t-28 -25.5t-32.5 -11q-14 0 -21 8.5t-7 20.5q0 14 5 29.5t10 30.5l118 339h-70l-71 -205q-14 -39 -39 -78.5t-55 -71.5t-61.5 -52.5t-58.5 -20.5q-18 0 -25.5 11t-7.5 25q0 8 4 24.5
t12 37.5l115 330h-161z" />
    <glyph glyph-name="uacute" unicode="&#xfa;" horiz-adv-x="519" 
d="M420 691l-138 -139h14l160 94q28 17 35.5 26.5t7.5 20.5q0 13 -8.5 21t-21.5 8t-24 -8.5t-25 -22.5zM46 429l-4 -14h89l-98 -277q-5 -16 -12 -36.5t-7 -35.5q0 -38 25 -58t68 -20q27 0 52.5 13.5t48 33t42 42t33.5 40.5l2 -2q-8 -20 -12 -35.5t-4 -32.5q0 -32 19.5 -45.5
t52.5 -13.5q30 0 52 12t37 28.5t23.5 33t12.5 24.5l-12 5q-4 -9 -13 -24t-21.5 -29.5t-28 -25.5t-32.5 -11q-14 0 -21 8.5t-7 20.5q0 14 5 29.5t10 30.5l118 339h-70l-71 -205q-14 -39 -39 -78.5t-55 -71.5t-61.5 -52.5t-58.5 -20.5q-18 0 -25.5 11t-7.5 25q0 8 4 24.5
t12 37.5l115 330h-161z" />
    <glyph glyph-name="ucircumflex" unicode="&#xfb;" horiz-adv-x="519" 
d="M340 720l-161 -168h16l155 106l101 -106h14l-88 168h-37zM46 429l-4 -14h89l-98 -277q-5 -16 -12 -36.5t-7 -35.5q0 -38 25 -58t68 -20q27 0 52.5 13.5t48 33t42 42t33.5 40.5l2 -2q-8 -20 -12 -35.5t-4 -32.5q0 -32 19.5 -45.5t52.5 -13.5q30 0 52 12t37 28.5t23.5 33
t12.5 24.5l-12 5q-4 -9 -13 -24t-21.5 -29.5t-28 -25.5t-32.5 -11q-14 0 -21 8.5t-7 20.5q0 14 5 29.5t10 30.5l118 339h-70l-71 -205q-14 -39 -39 -78.5t-55 -71.5t-61.5 -52.5t-58.5 -20.5q-18 0 -25.5 11t-7.5 25q0 8 4 24.5t12 37.5l115 330h-161z" />
    <glyph glyph-name="udieresis" unicode="&#xfc;" horiz-adv-x="519" 
d="M391 665q0 -20 13.5 -33.5t33.5 -13.5t33.5 13.5t13.5 33.5t-13.5 33.5t-33.5 13.5t-33.5 -13.5t-13.5 -33.5zM207 665q0 -20 13.5 -33.5t33.5 -13.5t33.5 13.5t13.5 33.5t-13.5 33.5t-33.5 13.5t-33.5 -13.5t-13.5 -33.5zM46 429l-4 -14h89l-98 -277q-5 -16 -12 -36.5
t-7 -35.5q0 -38 25 -58t68 -20q27 0 52.5 13.5t48 33t42 42t33.5 40.5l2 -2q-8 -20 -12 -35.5t-4 -32.5q0 -32 19.5 -45.5t52.5 -13.5q30 0 52 12t37 28.5t23.5 33t12.5 24.5l-12 5q-4 -9 -13 -24t-21.5 -29.5t-28 -25.5t-32.5 -11q-14 0 -21 8.5t-7 20.5q0 14 5 29.5
t10 30.5l118 339h-70l-71 -205q-14 -39 -39 -78.5t-55 -71.5t-61.5 -52.5t-58.5 -20.5q-18 0 -25.5 11t-7.5 25q0 8 4 24.5t12 37.5l115 330h-161z" />
    <glyph glyph-name="yacute" unicode="&#xfd;" horiz-adv-x="463" 
d="M392 691l-138 -139h14l160 94q28 17 35.5 26.5t7.5 20.5q0 13 -8.5 21t-21.5 8t-24 -8.5t-25 -22.5zM2 314l14 -4q3 13 8.5 33t14.5 39t22 32.5t31 13.5q9 0 17 -9.5t14.5 -37t10.5 -76.5t4 -127q0 -79 -16.5 -154.5t-42 -134t-56 -94.5t-58.5 -36q-15 0 -24.5 7t-9.5 18
q0 10 1.5 15.5t3.5 10t3.5 9t1.5 13.5q0 12 -8 18.5t-21 6.5q-17 0 -32 -8.5t-15 -34.5q0 -32 23.5 -50.5t61.5 -18.5q25 0 48 14t44 37t39.5 53t35.5 62l58 108l182 330q22 39 36 55.5t26 17.5q14 2 14 -13q0 -9 -5.5 -14.5t-5.5 -16.5q0 -18 19 -18q20 0 32 12t12 31
q0 15 -9.5 27t-33.5 12q-19 0 -33.5 -7.5t-25.5 -19t-19.5 -26.5t-16.5 -30l-153 -276h-2q7 32 14.5 79.5t7.5 113.5q0 25 -5.5 54t-18 54t-34 41.5t-53.5 16.5q-27 0 -44.5 -14t-29 -34t-17.5 -42t-10 -38z" />
    <glyph glyph-name="thorn" unicode="&#xfe;" horiz-adv-x="537" 
d="M101 106l79 223q9 12 22 28.5t30 32.5t38.5 27t47.5 11q44 0 61 -31t17 -74q0 -27 -7 -61.5t-19.5 -70t-30.5 -70t-40 -61t-47.5 -43t-53.5 -16.5q-25 0 -41.5 9.5t-28 24.5t-17.5 33.5t-10 37.5zM259 746l-359 -1011h-72l-4 -14h226l4 14h-84l122 347h2q7 -43 35 -68.5
t67 -25.5q59 0 108.5 28t85.5 69.5t56 90t20 90.5q0 35 -9 67t-27 56t-45.5 38.5t-64.5 14.5q-24 0 -44.5 -8t-37 -20t-28.5 -25t-19 -23h-2l142 394h-159l-4 -14h91z" />
    <glyph glyph-name="ydieresis" unicode="&#xff;" horiz-adv-x="463" 
d="M353 665q0 -20 13.5 -33.5t33.5 -13.5t33.5 13.5t13.5 33.5t-13.5 33.5t-33.5 13.5t-33.5 -13.5t-13.5 -33.5zM169 665q0 -20 13.5 -33.5t33.5 -13.5t33.5 13.5t13.5 33.5t-13.5 33.5t-33.5 13.5t-33.5 -13.5t-13.5 -33.5zM2 314l14 -4q3 13 8.5 33t14.5 39t22 32.5
t31 13.5q9 0 17 -9.5t14.5 -37t10.5 -76.5t4 -127q0 -79 -16.5 -154.5t-42 -134t-56 -94.5t-58.5 -36q-15 0 -24.5 7t-9.5 18q0 10 1.5 15.5t3.5 10t3.5 9t1.5 13.5q0 12 -8 18.5t-21 6.5q-17 0 -32 -8.5t-15 -34.5q0 -32 23.5 -50.5t61.5 -18.5q25 0 48 14t44 37t39.5 53
t35.5 62l58 108l182 330q22 39 36 55.5t26 17.5q14 2 14 -13q0 -9 -5.5 -14.5t-5.5 -16.5q0 -18 19 -18q20 0 32 12t12 31q0 15 -9.5 27t-33.5 12q-19 0 -33.5 -7.5t-25.5 -19t-19.5 -26.5t-16.5 -30l-153 -276h-2q7 32 14.5 79.5t7.5 113.5q0 25 -5.5 54t-18 54t-34 41.5
t-53.5 16.5q-27 0 -44.5 -14t-29 -34t-17.5 -42t-10 -38z" />
    <glyph glyph-name="Amacron" unicode="&#x100;" horiz-adv-x="722" 
d="M444 612l4 -304h-220l214 304h2zM-83 14l-4 -14h206l4 14h-101l196 280h230l6 -280h-109l-4 -14h308l4 14h-108l-18 714h-23l-502 -714h-85zM690 852h-281l-12 -30h281z" />
    <glyph glyph-name="amacron" unicode="&#x101;" horiz-adv-x="537" 
d="M355 298l-53 -147q-5 -14 -23 -39t-43 -50t-55 -43t-59 -18t-41.5 20t-12.5 52q0 28 9 65t25.5 76.5t39.5 78t50.5 68.5t59 48.5t64.5 18.5q18 0 29 -6.5t17.5 -15.5t9 -19.5t2.5 -19.5q0 -10 -3.5 -23.5t-15.5 -45.5zM363 126l109 303h-70l-17 -49h-2q0 28 -21 45
t-51 17q-26 0 -59.5 -13t-68 -36t-68 -54t-59 -67.5t-41.5 -76.5t-16 -80q0 -33 8.5 -57t23.5 -39.5t34.5 -23t40.5 -7.5q33 0 60 11.5t49.5 29t40.5 38t32 37.5h2q-5 -14 -8 -31.5t-3 -24.5q0 -60 66 -60q28 0 49 11.5t37 27t26 32.5t15 28l-13 7q-3 -6 -10.5 -20.5
t-19 -29t-27.5 -26t-36 -11.5q-25 0 -25 26q0 19 6.5 43t15.5 50zM554 632h-281l-12 -30h281z" />
    <glyph glyph-name="Abreve" unicode="&#x102;" horiz-adv-x="722" 
d="M444 612l4 -304h-220l214 304h2zM-83 14l-4 -14h206l4 14h-101l196 280h230l6 -280h-109l-4 -14h308l4 14h-108l-18 714h-23l-502 -714h-85zM418 933h-14q0 -19 3 -46.5t15 -53.5t36 -44.5t66 -18.5q44 0 73 17.5t47 42.5t28 53t16 50h-14q-9 -19 -21 -37.5t-29 -32.5
t-39.5 -22.5t-52.5 -8.5q-31 0 -53 9.5t-35.5 24.5t-19.5 33t-6 34z" />
    <glyph glyph-name="abreve" unicode="&#x103;" horiz-adv-x="537" 
d="M355 298l-53 -147q-5 -14 -23 -39t-43 -50t-55 -43t-59 -18t-41.5 20t-12.5 52q0 28 9 65t25.5 76.5t39.5 78t50.5 68.5t59 48.5t64.5 18.5q18 0 29 -6.5t17.5 -15.5t9 -19.5t2.5 -19.5q0 -10 -3.5 -23.5t-15.5 -45.5zM363 126l109 303h-70l-17 -49h-2q0 28 -21 45
t-51 17q-26 0 -59.5 -13t-68 -36t-68 -54t-59 -67.5t-41.5 -76.5t-16 -80q0 -33 8.5 -57t23.5 -39.5t34.5 -23t40.5 -7.5q33 0 60 11.5t49.5 29t40.5 38t32 37.5h2q-5 -14 -8 -31.5t-3 -24.5q0 -60 66 -60q28 0 49 11.5t37 27t26 32.5t15 28l-13 7q-3 -6 -10.5 -20.5
t-19 -29t-27.5 -26t-36 -11.5q-25 0 -25 26q0 19 6.5 43t15.5 50zM269 713h-14q0 -19 3 -46.5t15 -53.5t36 -44.5t66 -18.5q44 0 73 17.5t47 42.5t28 53t16 50h-14q-9 -19 -21 -37.5t-29 -32.5t-39.5 -22.5t-52.5 -8.5q-31 0 -53 9.5t-35.5 24.5t-19.5 33t-6 34z" />
    <glyph glyph-name="Aogonek" unicode="&#x104;" horiz-adv-x="722" 
d="M444 612l4 -304h-220l214 304h2zM-83 14l-4 -14h206l4 14h-101l196 280h230l6 -280h-109l-4 -14h308l4 14h-108l-18 714h-23l-502 -714h-85zM587 0h-22l-67 -35q-42 -21 -64.5 -44.5t-22.5 -52.5t22 -48t64 -19q19 0 33.5 4t25 9t17.5 10.5t12 8.5l-7 12q-7 -5 -18 -11
t-30 -6q-22 0 -36 14t-14 37q0 29 31 59.5t76 61.5z" />
    <glyph glyph-name="aogonek" unicode="&#x105;" horiz-adv-x="537" 
d="M355 298l-53 -147q-5 -14 -23 -39t-43 -50t-55 -43t-59 -18t-41.5 20t-12.5 52q0 28 9 65t25.5 76.5t39.5 78t50.5 68.5t59 48.5t64.5 18.5q18 0 29 -6.5t17.5 -15.5t9 -19.5t2.5 -19.5q0 -10 -3.5 -23.5t-15.5 -45.5zM363 126l109 303h-70l-17 -49h-2q0 28 -21 45
t-51 17q-26 0 -59.5 -13t-68 -36t-68 -54t-59 -67.5t-41.5 -76.5t-16 -80q0 -33 8.5 -57t23.5 -39.5t34.5 -23t40.5 -7.5q33 0 60 11.5t49.5 29t40.5 38t32 37.5h2q-5 -14 -8 -31.5t-3 -24.5q0 -60 66 -60q28 0 49 11.5t37 27t26 32.5t15 28l-13 7q-3 -6 -10.5 -20.5
t-19 -29t-27.5 -26t-36 -11.5q-25 0 -25 26q0 19 6.5 43t15.5 50zM159 0h-22l-67 -35q-42 -21 -64.5 -44.5t-22.5 -52.5t22 -48t64 -19q19 0 33.5 4t25 9t17.5 10.5t12 8.5l-7 12q-7 -5 -18 -11t-30 -6q-22 0 -36 14t-14 37q0 29 31 59.5t76 61.5z" />
    <glyph glyph-name="Cacute" unicode="&#x106;" horiz-adv-x="648" 
d="M632 519l69 193l-15 3q-6 -12 -16 -20.5t-26 -8.5q-15 0 -31 6t-35.5 13.5t-44.5 13.5t-58 6q-44 0 -92 -17t-94.5 -47t-88.5 -72t-73.5 -92.5t-50 -107.5t-18.5 -118q0 -54 12.5 -105t41 -90.5t75 -64t114.5 -24.5q56 0 97 20.5t69.5 47.5t44.5 53.5t22 38.5l-13 7
q-12 -22 -30.5 -49t-45.5 -50t-62 -39t-80 -16q-81 0 -125 39.5t-44 120.5q0 40 10.5 96t31 117t50 121.5t67 108.5t82.5 78t97 30q32 0 60 -7.5t48.5 -22.5t32.5 -38.5t12 -55.5q0 -20 -2 -39t-4 -29h13zM587 911l-138 -139h14l160 94q28 17 35.5 26.5t7.5 20.5
q0 13 -8.5 21t-21.5 8t-24 -8.5t-25 -22.5z" />
    <glyph glyph-name="cacute" unicode="&#x107;" horiz-adv-x="407" 
d="M344 98l-14 8q-9 -15 -23 -33.5t-33 -34.5t-42.5 -26.5t-51.5 -10.5q-51 0 -75.5 30t-24.5 73q0 29 6.5 64t19.5 71t31 70t41.5 60.5t51.5 42.5t60 16q20 0 31.5 -6t11.5 -22q0 -12 -4 -19.5t-9.5 -13.5t-9.5 -13.5t-4 -19.5q0 -10 7 -17.5t25 -7.5t34.5 10t16.5 43
q0 23 -8.5 38.5t-21.5 24.5t-29.5 13t-33.5 4q-55 0 -106.5 -28.5t-91.5 -73t-64 -98t-24 -104.5q0 -31 10.5 -58t30 -47.5t48.5 -32.5t66 -12q35 0 63 10t49.5 26t38 35.5t28.5 38.5zM299 691l-138 -139h14l160 94q28 17 35.5 26.5t7.5 20.5q0 13 -8.5 21t-21.5 8t-24 -8.5
t-25 -22.5z" />
    <glyph glyph-name="Ccircumflex" unicode="&#x108;" horiz-adv-x="648" 
d="M632 519l69 193l-15 3q-6 -12 -16 -20.5t-26 -8.5q-15 0 -31 6t-35.5 13.5t-44.5 13.5t-58 6q-44 0 -92 -17t-94.5 -47t-88.5 -72t-73.5 -92.5t-50 -107.5t-18.5 -118q0 -54 12.5 -105t41 -90.5t75 -64t114.5 -24.5q56 0 97 20.5t69.5 47.5t44.5 53.5t22 38.5l-13 7
q-12 -22 -30.5 -49t-45.5 -50t-62 -39t-80 -16q-81 0 -125 39.5t-44 120.5q0 40 10.5 96t31 117t50 121.5t67 108.5t82.5 78t97 30q32 0 60 -7.5t48.5 -22.5t32.5 -38.5t12 -55.5q0 -20 -2 -39t-4 -29h13zM552 940l-161 -168h16l155 106l101 -106h14l-88 168h-37z" />
    <glyph glyph-name="ccircumflex" unicode="&#x109;" horiz-adv-x="407" 
d="M344 98l-14 8q-9 -15 -23 -33.5t-33 -34.5t-42.5 -26.5t-51.5 -10.5q-51 0 -75.5 30t-24.5 73q0 29 6.5 64t19.5 71t31 70t41.5 60.5t51.5 42.5t60 16q20 0 31.5 -6t11.5 -22q0 -12 -4 -19.5t-9.5 -13.5t-9.5 -13.5t-4 -19.5q0 -10 7 -17.5t25 -7.5t34.5 10t16.5 43
q0 23 -8.5 38.5t-21.5 24.5t-29.5 13t-33.5 4q-55 0 -106.5 -28.5t-91.5 -73t-64 -98t-24 -104.5q0 -31 10.5 -58t30 -47.5t48.5 -32.5t66 -12q35 0 63 10t49.5 26t38 35.5t28.5 38.5zM310 720l-161 -168h16l155 106l101 -106h14l-88 168h-37z" />
    <glyph glyph-name="Cdotaccent" unicode="&#x10a;" horiz-adv-x="648" 
d="M632 519l69 193l-15 3q-6 -12 -16 -20.5t-26 -8.5q-15 0 -31 6t-35.5 13.5t-44.5 13.5t-58 6q-44 0 -92 -17t-94.5 -47t-88.5 -72t-73.5 -92.5t-50 -107.5t-18.5 -118q0 -54 12.5 -105t41 -90.5t75 -64t114.5 -24.5q56 0 97 20.5t69.5 47.5t44.5 53.5t22 38.5l-13 7
q-12 -22 -30.5 -49t-45.5 -50t-62 -39t-80 -16q-81 0 -125 39.5t-44 120.5q0 40 10.5 96t31 117t50 121.5t67 108.5t82.5 78t97 30q32 0 60 -7.5t48.5 -22.5t32.5 -38.5t12 -55.5q0 -20 -2 -39t-4 -29h13zM515 885q0 -20 13.5 -33.5t33.5 -13.5t33.5 13.5t13.5 33.5
t-13.5 33.5t-33.5 13.5t-33.5 -13.5t-13.5 -33.5z" />
    <glyph glyph-name="cdotaccent" unicode="&#x10b;" horiz-adv-x="407" 
d="M344 98l-14 8q-9 -15 -23 -33.5t-33 -34.5t-42.5 -26.5t-51.5 -10.5q-51 0 -75.5 30t-24.5 73q0 29 6.5 64t19.5 71t31 70t41.5 60.5t51.5 42.5t60 16q20 0 31.5 -6t11.5 -22q0 -12 -4 -19.5t-9.5 -13.5t-9.5 -13.5t-4 -19.5q0 -10 7 -17.5t25 -7.5t34.5 10t16.5 43
q0 23 -8.5 38.5t-21.5 24.5t-29.5 13t-33.5 4q-55 0 -106.5 -28.5t-91.5 -73t-64 -98t-24 -104.5q0 -31 10.5 -58t30 -47.5t48.5 -32.5t66 -12q35 0 63 10t49.5 26t38 35.5t28.5 38.5zM287 665q0 -20 13.5 -33.5t33.5 -13.5t33.5 13.5t13.5 33.5t-13.5 33.5t-33.5 13.5
t-33.5 -13.5t-13.5 -33.5z" />
    <glyph glyph-name="Ccaron" unicode="&#x10c;" horiz-adv-x="648" 
d="M632 519l69 193l-15 3q-6 -12 -16 -20.5t-26 -8.5q-15 0 -31 6t-35.5 13.5t-44.5 13.5t-58 6q-44 0 -92 -17t-94.5 -47t-88.5 -72t-73.5 -92.5t-50 -107.5t-18.5 -118q0 -54 12.5 -105t41 -90.5t75 -64t114.5 -24.5q56 0 97 20.5t69.5 47.5t44.5 53.5t22 38.5l-13 7
q-12 -22 -30.5 -49t-45.5 -50t-62 -39t-80 -16q-81 0 -125 39.5t-44 120.5q0 40 10.5 96t31 117t50 121.5t67 108.5t82.5 78t97 30q32 0 60 -7.5t48.5 -22.5t32.5 -38.5t12 -55.5q0 -20 -2 -39t-4 -29h13zM407 940h-14l88 -168h38l161 168h-17l-155 -106z" />
    <glyph glyph-name="ccaron" unicode="&#x10d;" horiz-adv-x="407" 
d="M344 98l-14 8q-9 -15 -23 -33.5t-33 -34.5t-42.5 -26.5t-51.5 -10.5q-51 0 -75.5 30t-24.5 73q0 29 6.5 64t19.5 71t31 70t41.5 60.5t51.5 42.5t60 16q20 0 31.5 -6t11.5 -22q0 -12 -4 -19.5t-9.5 -13.5t-9.5 -13.5t-4 -19.5q0 -10 7 -17.5t25 -7.5t34.5 10t16.5 43
q0 23 -8.5 38.5t-21.5 24.5t-29.5 13t-33.5 4q-55 0 -106.5 -28.5t-91.5 -73t-64 -98t-24 -104.5q0 -31 10.5 -58t30 -47.5t48.5 -32.5t66 -12q35 0 63 10t49.5 26t38 35.5t28.5 38.5zM206 720h-14l88 -168h38l161 168h-17l-155 -106z" />
    <glyph glyph-name="Dcaron" unicode="&#x10e;" horiz-adv-x="796" 
d="M116 15l244 683h86q45 0 73 -6t52 -18q32 -17 55.5 -55.5t23.5 -95.5q0 -66 -15.5 -133.5t-45.5 -128.5t-72.5 -112t-96.5 -85q-26 -16 -48.5 -26.5t-44 -16.5t-43.5 -8.5t-48 -2.5q-31 0 -61 2t-59 3zM270 698l-246 -684h-102l-4 -14h168h42t43 -1q21 -1 42 -1.5
t42 -0.5q106 0 194 39t151.5 102t98.5 142t35 160q0 54 -16 103t-49.5 86.5t-85 60t-122.5 22.5h-302l-4 -14h115zM403 940h-14l88 -168h38l161 168h-17l-155 -106z" />
    <glyph glyph-name="dcaron" unicode="&#x10f;" horiz-adv-x="774" 
d="M355 298l-53 -147q-5 -14 -23 -39t-43 -50t-55 -43t-59 -18t-41.5 20t-12.5 52q0 28 9 65t25.5 76.5t39.5 78t50.5 68.5t59 48.5t64.5 18.5q18 0 29 -6.5t17.5 -15.5t9 -19.5t2.5 -19.5q0 -10 -3.5 -23.5t-15.5 -45.5zM363 126l227 634h-159l-4 -14h88l-130 -366h-2
q0 28 -21 45t-51 17q-26 0 -59.5 -13t-68 -36t-68 -54t-59 -67.5t-41.5 -76.5t-16 -80q0 -33 8.5 -57t23.5 -39.5t34.5 -23t40.5 -7.5q33 0 60 11.5t49.5 29t40.5 38t32 37.5h2q-5 -14 -8 -31.5t-3 -24.5q0 -60 66 -60q28 0 49 11.5t37 27t26 32.5t15 28l-13 7
q-3 -6 -10.5 -20.5t-19 -29t-27.5 -26t-36 -11.5q-25 0 -25 26q0 19 6.5 43t15.5 50zM658 531l4 -13q9 3 32.5 13.5t48 30.5t43.5 50.5t19 73.5q0 32 -18 53t-48 21q-26 0 -39.5 -14.5t-13.5 -38.5q0 -15 10 -28t29 -13q6 0 10 0.5t8 1.5q4 2 6.5 3t4.5 2q5 -13 5 -34
q0 -23 -12 -41.5t-28.5 -32t-33.5 -22t-27 -12.5z" />
    <glyph glyph-name="Dcroat" unicode="&#x110;" horiz-adv-x="796" 
d="M250 389l110 309h86q45 0 73 -6t52 -18q32 -17 55.5 -55.5t23.5 -95.5q0 -66 -15.5 -133.5t-45.5 -128.5t-72.5 -112t-96.5 -85q-26 -16 -48.5 -26.5t-44 -16.5t-43.5 -8.5t-48 -2.5q-31 0 -61 2t-59 3l129 360h148l5 14h-148zM154 375l-130 -361h-102l-4 -14h168h42
t43 -1q21 -1 42 -1.5t42 -0.5q106 0 194 39t151.5 102t98.5 142t35 160q0 54 -16 103t-49.5 86.5t-85 60t-122.5 22.5h-302l-4 -14h115l-111 -309h-115l-5 -14h115z" />
    <glyph glyph-name="dcroat" unicode="&#x111;" horiz-adv-x="537" 
d="M355 298l-53 -147q-5 -14 -23 -39t-43 -50t-55 -43t-59 -18t-41.5 20t-12.5 52q0 28 9 65t25.5 76.5t39.5 78t50.5 68.5t59 48.5t64.5 18.5q18 0 29 -6.5t17.5 -15.5t9 -19.5t2.5 -19.5q0 -10 -3.5 -23.5t-15.5 -45.5zM363 126l227 634h-159l-4 -14h88l-130 -366h-2
q0 28 -21 45t-51 17q-26 0 -59.5 -13t-68 -36t-68 -54t-59 -67.5t-41.5 -76.5t-16 -80q0 -33 8.5 -57t23.5 -39.5t34.5 -23t40.5 -7.5q33 0 60 11.5t49.5 29t40.5 38t32 37.5h2q-5 -14 -8 -31.5t-3 -24.5q0 -60 66 -60q28 0 49 11.5t37 27t26 32.5t15 28l-13 7
q-3 -6 -10.5 -20.5t-19 -29t-27.5 -26t-36 -11.5q-25 0 -25 26q0 19 6.5 43t15.5 50zM312 575h375v31h-375v-31z" />
    <glyph glyph-name="Emacron" unicode="&#x112;" horiz-adv-x="685" 
d="M264 698l-245 -684h-103l-4 -14h581l70 196h-14q-8 -15 -26 -45t-44.5 -60.5t-61 -53.5t-74.5 -23h-234l129 361h68q38 0 60 -19.5t22 -57.5q0 -19 -4 -40t-9 -33h14l105 291h-14q-5 -9 -16 -30t-28.5 -42.5t-42 -38t-56.5 -16.5h-94l111 309h211q48 0 64 -23.5t16 -60.5
q0 -19 -4 -40t-8 -32h14l61 170h-556l-4 -14h116zM609 852h-281l-12 -30h281z" />
    <glyph glyph-name="emacron" unicode="&#x113;" horiz-adv-x="426" 
d="M332 380q0 -26 -14.5 -50t-39 -42t-56.5 -29t-68 -11q-28 0 -51 4q9 26 26 56.5t40 57t51.5 44.5t59.5 18q28 0 40 -14t12 -34zM334 98l-12 7q-8 -10 -20.5 -27.5t-31 -34.5t-43 -29.5t-56.5 -12.5q-43 0 -71 26.5t-28 80.5q0 35 7.5 66.5t18.5 63.5q12 -2 28 -3t33 -1
q10 0 31.5 2.5t47.5 8t53.5 15.5t50.5 24.5t37.5 35t14.5 47.5q0 20 -10 34t-26 23t-36 13.5t-40 4.5q-52 0 -102 -29t-89.5 -73.5t-64 -98t-24.5 -103.5q0 -25 8.5 -51.5t27 -48.5t48 -36t72.5 -14t73.5 14.5t51.5 33t33 37t18 25.5zM445 632h-281l-12 -30h281z" />
    <glyph glyph-name="Ebreve" unicode="&#x114;" horiz-adv-x="685" 
d="M264 698l-245 -684h-103l-4 -14h581l70 196h-14q-8 -15 -26 -45t-44.5 -60.5t-61 -53.5t-74.5 -23h-234l129 361h68q38 0 60 -19.5t22 -57.5q0 -19 -4 -40t-9 -33h14l105 291h-14q-5 -9 -16 -30t-28.5 -42.5t-42 -38t-56.5 -16.5h-94l111 309h211q48 0 64 -23.5t16 -60.5
q0 -19 -4 -40t-8 -32h14l61 170h-556l-4 -14h116zM360 933h-14q0 -19 3 -46.5t15 -53.5t36 -44.5t66 -18.5q44 0 73 17.5t47 42.5t28 53t16 50h-14q-9 -19 -21 -37.5t-29 -32.5t-39.5 -22.5t-52.5 -8.5q-31 0 -53 9.5t-35.5 24.5t-19.5 33t-6 34z" />
    <glyph glyph-name="ebreve" unicode="&#x115;" horiz-adv-x="426" 
d="M332 380q0 -26 -14.5 -50t-39 -42t-56.5 -29t-68 -11q-28 0 -51 4q9 26 26 56.5t40 57t51.5 44.5t59.5 18q28 0 40 -14t12 -34zM334 98l-12 7q-8 -10 -20.5 -27.5t-31 -34.5t-43 -29.5t-56.5 -12.5q-43 0 -71 26.5t-28 80.5q0 35 7.5 66.5t18.5 63.5q12 -2 28 -3t33 -1
q10 0 31.5 2.5t47.5 8t53.5 15.5t50.5 24.5t37.5 35t14.5 47.5q0 20 -10 34t-26 23t-36 13.5t-40 4.5q-52 0 -102 -29t-89.5 -73.5t-64 -98t-24.5 -103.5q0 -25 8.5 -51.5t27 -48.5t48 -36t72.5 -14t73.5 14.5t51.5 33t33 37t18 25.5zM164 713h-14q0 -19 3 -46.5t15 -53.5
t36 -44.5t66 -18.5q44 0 73 17.5t47 42.5t28 53t16 50h-14q-9 -19 -21 -37.5t-29 -32.5t-39.5 -22.5t-52.5 -8.5q-31 0 -53 9.5t-35.5 24.5t-19.5 33t-6 34z" />
    <glyph glyph-name="Edotaccent" unicode="&#x116;" horiz-adv-x="685" 
d="M264 698l-245 -684h-103l-4 -14h581l70 196h-14q-8 -15 -26 -45t-44.5 -60.5t-61 -53.5t-74.5 -23h-234l129 361h68q38 0 60 -19.5t22 -57.5q0 -19 -4 -40t-9 -33h14l105 291h-14q-5 -9 -16 -30t-28.5 -42.5t-42 -38t-56.5 -16.5h-94l111 309h211q48 0 64 -23.5t16 -60.5
q0 -19 -4 -40t-8 -32h14l61 170h-556l-4 -14h116zM436 885q0 -20 13.5 -33.5t33.5 -13.5t33.5 13.5t13.5 33.5t-13.5 33.5t-33.5 13.5t-33.5 -13.5t-13.5 -33.5z" />
    <glyph glyph-name="edotaccent" unicode="&#x117;" horiz-adv-x="426" 
d="M332 380q0 -26 -14.5 -50t-39 -42t-56.5 -29t-68 -11q-28 0 -51 4q9 26 26 56.5t40 57t51.5 44.5t59.5 18q28 0 40 -14t12 -34zM334 98l-12 7q-8 -10 -20.5 -27.5t-31 -34.5t-43 -29.5t-56.5 -12.5q-43 0 -71 26.5t-28 80.5q0 35 7.5 66.5t18.5 63.5q12 -2 28 -3t33 -1
q10 0 31.5 2.5t47.5 8t53.5 15.5t50.5 24.5t37.5 35t14.5 47.5q0 20 -10 34t-26 23t-36 13.5t-40 4.5q-52 0 -102 -29t-89.5 -73.5t-64 -98t-24.5 -103.5q0 -25 8.5 -51.5t27 -48.5t48 -36t72.5 -14t73.5 14.5t51.5 33t33 37t18 25.5zM260 665q0 -20 13.5 -33.5t33.5 -13.5
t33.5 13.5t13.5 33.5t-13.5 33.5t-33.5 13.5t-33.5 -13.5t-13.5 -33.5z" />
    <glyph glyph-name="Eogonek" unicode="&#x118;" horiz-adv-x="685" 
d="M264 698l-245 -684h-103l-4 -14h581l70 196h-14q-8 -15 -26 -45t-44.5 -60.5t-61 -53.5t-74.5 -23h-234l129 361h68q38 0 60 -19.5t22 -57.5q0 -19 -4 -40t-9 -33h14l105 291h-14q-5 -9 -16 -30t-28.5 -42.5t-42 -38t-56.5 -16.5h-94l111 309h211q48 0 64 -23.5t16 -60.5
q0 -19 -4 -40t-8 -32h14l61 170h-556l-4 -14h116zM339 0h-22l-67 -35q-42 -21 -64.5 -44.5t-22.5 -52.5t22 -48t64 -19q19 0 33.5 4t25 9t17.5 10.5t12 8.5l-7 12q-7 -5 -18 -11t-30 -6q-22 0 -36 14t-14 37q0 29 31 59.5t76 61.5z" />
    <glyph glyph-name="eogonek" unicode="&#x119;" horiz-adv-x="426" 
d="M332 380q0 -26 -14.5 -50t-39 -42t-56.5 -29t-68 -11q-28 0 -51 4q9 26 26 56.5t40 57t51.5 44.5t59.5 18q28 0 40 -14t12 -34zM334 98l-12 7q-8 -10 -20.5 -27.5t-31 -34.5t-43 -29.5t-56.5 -12.5q-43 0 -71 26.5t-28 80.5q0 35 7.5 66.5t18.5 63.5q12 -2 28 -3t33 -1
q10 0 31.5 2.5t47.5 8t53.5 15.5t50.5 24.5t37.5 35t14.5 47.5q0 20 -10 34t-26 23t-36 13.5t-40 4.5q-52 0 -102 -29t-89.5 -73.5t-64 -98t-24.5 -103.5q0 -25 8.5 -51.5t27 -48.5t48 -36t72.5 -14t73.5 14.5t51.5 33t33 37t18 25.5zM159 0h-22l-67 -35
q-42 -21 -64.5 -44.5t-22.5 -52.5t22 -48t64 -19q19 0 33.5 4t25 9t17.5 10.5t12 8.5l-7 12q-7 -5 -18 -11t-30 -6q-22 0 -36 14t-14 37q0 29 31 59.5t76 61.5z" />
    <glyph glyph-name="Ecaron" unicode="&#x11a;" horiz-adv-x="685" 
d="M264 698l-245 -684h-103l-4 -14h581l70 196h-14q-8 -15 -26 -45t-44.5 -60.5t-61 -53.5t-74.5 -23h-234l129 361h68q38 0 60 -19.5t22 -57.5q0 -19 -4 -40t-9 -33h14l105 291h-14q-5 -9 -16 -30t-28.5 -42.5t-42 -38t-56.5 -16.5h-94l111 309h211q48 0 64 -23.5t16 -60.5
q0 -19 -4 -40t-8 -32h14l61 170h-556l-4 -14h116zM335 940h-14l88 -168h38l161 168h-17l-155 -106z" />
    <glyph glyph-name="ecaron" unicode="&#x11b;" horiz-adv-x="426" 
d="M332 380q0 -26 -14.5 -50t-39 -42t-56.5 -29t-68 -11q-28 0 -51 4q9 26 26 56.5t40 57t51.5 44.5t59.5 18q28 0 40 -14t12 -34zM334 98l-12 7q-8 -10 -20.5 -27.5t-31 -34.5t-43 -29.5t-56.5 -12.5q-43 0 -71 26.5t-28 80.5q0 35 7.5 66.5t18.5 63.5q12 -2 28 -3t33 -1
q10 0 31.5 2.5t47.5 8t53.5 15.5t50.5 24.5t37.5 35t14.5 47.5q0 20 -10 34t-26 23t-36 13.5t-40 4.5q-52 0 -102 -29t-89.5 -73.5t-64 -98t-24.5 -103.5q0 -25 8.5 -51.5t27 -48.5t48 -36t72.5 -14t73.5 14.5t51.5 33t33 37t18 25.5zM200 720h-14l88 -168h38l161 168h-17
l-155 -106z" />
    <glyph glyph-name="Gcircumflex" unicode="&#x11c;" horiz-adv-x="722" 
d="M501 0l84 234h80l4 14h-285l-4 -14h114l-49 -139q-14 -39 -48.5 -67t-93.5 -28q-81 0 -125 39.5t-44 120.5q0 40 10.5 96t31 117t50 121.5t67 108.5t82.5 78t97 30q32 0 60 -7.5t48.5 -22.5t32.5 -38.5t12 -55.5q0 -20 -2 -39t-4 -29h13l69 193l-15 3q-6 -12 -16 -20.5
t-26 -8.5q-15 0 -31 6t-35.5 13.5t-44.5 13.5t-58 6q-44 0 -92 -17t-94.5 -47t-88.5 -72t-73.5 -92.5t-50 -107.5t-18.5 -118q0 -54 12.5 -105t41 -90.5t75 -64t114.5 -24.5q32 0 56.5 6t43.5 13t33 13t24 6q15 0 20.5 -7.5t6.5 -17.5h16zM525 940l-161 -168h16l155 106
l101 -106h14l-88 168h-37z" />
    <glyph glyph-name="gcircumflex" unicode="&#x11d;" horiz-adv-x="519" 
d="M48 -42l28 22l141 -5q32 -1 54 -8.5t35 -19t18.5 -26t5.5 -30.5q0 -32 -17 -62t-46.5 -53t-68 -37.5t-81.5 -14.5q-23 0 -45.5 6t-40 20t-28 35.5t-10.5 53.5q0 42 14 69.5t41 49.5zM131 237q0 26 9 59t26 62t41 49.5t55 20.5q33 0 55.5 -17t22.5 -61q0 -29 -7.5 -63.5
t-23.5 -64t-40.5 -49.5t-57.5 -20q-38 0 -59 17.5t-21 66.5zM236 38l-128 6q-48 3 -69.5 13.5t-21.5 32.5q0 18 16.5 36.5t48.5 33.5l21 10q13 -8 37.5 -19.5t70.5 -11.5q33 0 68 15t64.5 40t48 56t18.5 63q0 13 -4.5 28.5t-10.5 23.5q11 23 26.5 38t31.5 15q9 0 14 -5
t5 -11q0 -10 -3 -15.5t-7 -9.5t-7 -9t-3 -14q0 -11 9.5 -18t23.5 -7q23 0 33 11.5t10 29.5q0 26 -19.5 44t-45.5 18q-31 0 -48 -17.5t-29 -35.5q-6 10 -16 21t-25 20.5t-34.5 15.5t-45.5 6q-34 0 -70 -15t-66 -40.5t-49 -58.5t-19 -69q0 -28 8.5 -45.5t21.5 -32.5l-37 -20
q-38 -20 -54 -44.5t-16 -55.5q0 -23 7.5 -37t19 -22t24 -12t22.5 -7l-28 -15q-12 -7 -29.5 -19.5t-33.5 -30t-27.5 -38.5t-11.5 -45t15 -47t41.5 -40t61.5 -27.5t74 -10.5q60 0 106.5 21t78.5 53.5t49 70.5t17 72q0 58 -37.5 83t-96.5 28zM314 720l-161 -168h16l155 106
l101 -106h14l-88 168h-37z" />
    <glyph glyph-name="Gbreve" unicode="&#x11e;" horiz-adv-x="722" 
d="M501 0l84 234h80l4 14h-285l-4 -14h114l-49 -139q-14 -39 -48.5 -67t-93.5 -28q-81 0 -125 39.5t-44 120.5q0 40 10.5 96t31 117t50 121.5t67 108.5t82.5 78t97 30q32 0 60 -7.5t48.5 -22.5t32.5 -38.5t12 -55.5q0 -20 -2 -39t-4 -29h13l69 193l-15 3q-6 -12 -16 -20.5
t-26 -8.5q-15 0 -31 6t-35.5 13.5t-44.5 13.5t-58 6q-44 0 -92 -17t-94.5 -47t-88.5 -72t-73.5 -92.5t-50 -107.5t-18.5 -118q0 -54 12.5 -105t41 -90.5t75 -64t114.5 -24.5q32 0 56.5 6t43.5 13t33 13t24 6q15 0 20.5 -7.5t6.5 -17.5h16zM388 933h-14q0 -19 3 -46.5
t15 -53.5t36 -44.5t66 -18.5q44 0 73 17.5t47 42.5t28 53t16 50h-14q-9 -19 -21 -37.5t-29 -32.5t-39.5 -22.5t-52.5 -8.5q-31 0 -53 9.5t-35.5 24.5t-19.5 33t-6 34z" />
    <glyph glyph-name="gbreve" unicode="&#x11f;" horiz-adv-x="519" 
d="M48 -42l28 22l141 -5q32 -1 54 -8.5t35 -19t18.5 -26t5.5 -30.5q0 -32 -17 -62t-46.5 -53t-68 -37.5t-81.5 -14.5q-23 0 -45.5 6t-40 20t-28 35.5t-10.5 53.5q0 42 14 69.5t41 49.5zM131 237q0 26 9 59t26 62t41 49.5t55 20.5q33 0 55.5 -17t22.5 -61q0 -29 -7.5 -63.5
t-23.5 -64t-40.5 -49.5t-57.5 -20q-38 0 -59 17.5t-21 66.5zM236 38l-128 6q-48 3 -69.5 13.5t-21.5 32.5q0 18 16.5 36.5t48.5 33.5l21 10q13 -8 37.5 -19.5t70.5 -11.5q33 0 68 15t64.5 40t48 56t18.5 63q0 13 -4.5 28.5t-10.5 23.5q11 23 26.5 38t31.5 15q9 0 14 -5
t5 -11q0 -10 -3 -15.5t-7 -9.5t-7 -9t-3 -14q0 -11 9.5 -18t23.5 -7q23 0 33 11.5t10 29.5q0 26 -19.5 44t-45.5 18q-31 0 -48 -17.5t-29 -35.5q-6 10 -16 21t-25 20.5t-34.5 15.5t-45.5 6q-34 0 -70 -15t-66 -40.5t-49 -58.5t-19 -69q0 -28 8.5 -45.5t21.5 -32.5l-37 -20
q-38 -20 -54 -44.5t-16 -55.5q0 -23 7.5 -37t19 -22t24 -12t22.5 -7l-28 -15q-12 -7 -29.5 -19.5t-33.5 -30t-27.5 -38.5t-11.5 -45t15 -47t41.5 -40t61.5 -27.5t74 -10.5q60 0 106.5 21t78.5 53.5t49 70.5t17 72q0 58 -37.5 83t-96.5 28zM224 713h-14q0 -19 3 -46.5
t15 -53.5t36 -44.5t66 -18.5q44 0 73 17.5t47 42.5t28 53t16 50h-14q-9 -19 -21 -37.5t-29 -32.5t-39.5 -22.5t-52.5 -8.5q-31 0 -53 9.5t-35.5 24.5t-19.5 33t-6 34z" />
    <glyph glyph-name="Gdotaccent" unicode="&#x120;" horiz-adv-x="722" 
d="M501 0l84 234h80l4 14h-285l-4 -14h114l-49 -139q-14 -39 -48.5 -67t-93.5 -28q-81 0 -125 39.5t-44 120.5q0 40 10.5 96t31 117t50 121.5t67 108.5t82.5 78t97 30q32 0 60 -7.5t48.5 -22.5t32.5 -38.5t12 -55.5q0 -20 -2 -39t-4 -29h13l69 193l-15 3q-6 -12 -16 -20.5
t-26 -8.5q-15 0 -31 6t-35.5 13.5t-44.5 13.5t-58 6q-44 0 -92 -17t-94.5 -47t-88.5 -72t-73.5 -92.5t-50 -107.5t-18.5 -118q0 -54 12.5 -105t41 -90.5t75 -64t114.5 -24.5q32 0 56.5 6t43.5 13t33 13t24 6q15 0 20.5 -7.5t6.5 -17.5h16zM457 885q0 -20 13.5 -33.5
t33.5 -13.5t33.5 13.5t13.5 33.5t-13.5 33.5t-33.5 13.5t-33.5 -13.5t-13.5 -33.5z" />
    <glyph glyph-name="gdotaccent" unicode="&#x121;" horiz-adv-x="519" 
d="M48 -42l28 22l141 -5q32 -1 54 -8.5t35 -19t18.5 -26t5.5 -30.5q0 -32 -17 -62t-46.5 -53t-68 -37.5t-81.5 -14.5q-23 0 -45.5 6t-40 20t-28 35.5t-10.5 53.5q0 42 14 69.5t41 49.5zM131 237q0 26 9 59t26 62t41 49.5t55 20.5q33 0 55.5 -17t22.5 -61q0 -29 -7.5 -63.5
t-23.5 -64t-40.5 -49.5t-57.5 -20q-38 0 -59 17.5t-21 66.5zM236 38l-128 6q-48 3 -69.5 13.5t-21.5 32.5q0 18 16.5 36.5t48.5 33.5l21 10q13 -8 37.5 -19.5t70.5 -11.5q33 0 68 15t64.5 40t48 56t18.5 63q0 13 -4.5 28.5t-10.5 23.5q11 23 26.5 38t31.5 15q9 0 14 -5
t5 -11q0 -10 -3 -15.5t-7 -9.5t-7 -9t-3 -14q0 -11 9.5 -18t23.5 -7q23 0 33 11.5t10 29.5q0 26 -19.5 44t-45.5 18q-31 0 -48 -17.5t-29 -35.5q-6 10 -16 21t-25 20.5t-34.5 15.5t-45.5 6q-34 0 -70 -15t-66 -40.5t-49 -58.5t-19 -69q0 -28 8.5 -45.5t21.5 -32.5l-37 -20
q-38 -20 -54 -44.5t-16 -55.5q0 -23 7.5 -37t19 -22t24 -12t22.5 -7l-28 -15q-12 -7 -29.5 -19.5t-33.5 -30t-27.5 -38.5t-11.5 -45t15 -47t41.5 -40t61.5 -27.5t74 -10.5q60 0 106.5 21t78.5 53.5t49 70.5t17 72q0 58 -37.5 83t-96.5 28zM314 665q0 -20 13.5 -33.5
t33.5 -13.5t33.5 13.5t13.5 33.5t-13.5 33.5t-33.5 13.5t-33.5 -13.5t-13.5 -33.5z" />
    <glyph glyph-name="Gcedilla" unicode="&#x122;" horiz-adv-x="722" 
d="M501 0l84 234h80l4 14h-285l-4 -14h114l-49 -139q-14 -39 -48.5 -67t-93.5 -28q-81 0 -125 39.5t-44 120.5q0 40 10.5 96t31 117t50 121.5t67 108.5t82.5 78t97 30q32 0 60 -7.5t48.5 -22.5t32.5 -38.5t12 -55.5q0 -20 -2 -39t-4 -29h13l69 193l-15 3q-6 -12 -16 -20.5
t-26 -8.5q-15 0 -31 6t-35.5 13.5t-44.5 13.5t-58 6q-44 0 -92 -17t-94.5 -47t-88.5 -72t-73.5 -92.5t-50 -107.5t-18.5 -118q0 -54 12.5 -105t41 -90.5t75 -64t114.5 -24.5q32 0 56.5 6t43.5 13t33 13t24 6q15 0 20.5 -7.5t6.5 -17.5h16zM307 -3h-20l-80 -78l12 -16
q5 4 16.5 8.5t27.5 4.5q37 0 37 -45q0 -13 -3 -30.5t-10.5 -33.5t-20 -27t-31.5 -11q-22 0 -36.5 9.5t-24.5 17.5l-9 -12q7 -7 27 -18t47 -11q23 0 44 7.5t37.5 22t26 34.5t9.5 45q0 19 -6.5 33t-16.5 22.5t-23 12.5t-25 4q-17 0 -31 -5t-23 -10l-2 2z" />
    <glyph glyph-name="gcedilla" unicode="&#x123;" horiz-adv-x="519" 
d="M48 -42l28 22l141 -5q32 -1 54 -8.5t35 -19t18.5 -26t5.5 -30.5q0 -32 -17 -62t-46.5 -53t-68 -37.5t-81.5 -14.5q-23 0 -45.5 6t-40 20t-28 35.5t-10.5 53.5q0 42 14 69.5t41 49.5zM131 237q0 26 9 59t26 62t41 49.5t55 20.5q33 0 55.5 -17t22.5 -61q0 -29 -7.5 -63.5
t-23.5 -64t-40.5 -49.5t-57.5 -20q-38 0 -59 17.5t-21 66.5zM236 38l-128 6q-48 3 -69.5 13.5t-21.5 32.5q0 18 16.5 36.5t48.5 33.5l21 10q13 -8 37.5 -19.5t70.5 -11.5q33 0 68 15t64.5 40t48 56t18.5 63q0 13 -4.5 28.5t-10.5 23.5q11 23 26.5 38t31.5 15q9 0 14 -5
t5 -11q0 -10 -3 -15.5t-7 -9.5t-7 -9t-3 -14q0 -11 9.5 -18t23.5 -7q23 0 33 11.5t10 29.5q0 26 -19.5 44t-45.5 18q-31 0 -48 -17.5t-29 -35.5q-6 10 -16 21t-25 20.5t-34.5 15.5t-45.5 6q-34 0 -70 -15t-66 -40.5t-49 -58.5t-19 -69q0 -28 8.5 -45.5t21.5 -32.5l-37 -20
q-38 -20 -54 -44.5t-16 -55.5q0 -23 7.5 -37t19 -22t24 -12t22.5 -7l-28 -15q-12 -7 -29.5 -19.5t-33.5 -30t-27.5 -38.5t-11.5 -45t15 -47t41.5 -40t61.5 -27.5t74 -10.5q60 0 106.5 21t78.5 53.5t49 70.5t17 72q0 58 -37.5 83t-96.5 28zM377 747l-4 13q-9 -3 -32.5 -13.5
t-48 -30.5t-43.5 -50.5t-19 -73.5q0 -32 18 -53t48 -21q26 0 39.5 14.5t13.5 38.5q0 15 -10 28t-29 13q-6 0 -10 -0.5t-8 -1.5q-4 -2 -6.5 -3t-4.5 -2q-5 13 -5 34q0 23 12 41.5t28.5 32t33.5 22t27 12.5z" />
    <glyph glyph-name="Hcircumflex" unicode="&#x124;" horiz-adv-x="796" 
d="M-80 14l-4 -14h307l4 14h-115l124 343h322l-124 -343h-104l-4 -14h310l4 14h-115l246 684h103l4 14h-308l-4 -14h115l-118 -327h-322l117 327h104l4 14h-309l-4 -14h114l-245 -684h-102zM558 940l-161 -168h16l155 106l101 -106h14l-88 168h-37z" />
    <glyph glyph-name="hcircumflex" unicode="&#x125;" horiz-adv-x="537" 
d="M267 746l-270 -746h69l75 209q16 45 41.5 83.5t54.5 67t58 45t51 16.5t30.5 -12t8.5 -25q0 -16 -8 -40l-84 -239q-5 -16 -8.5 -30t-3.5 -27q0 -32 22 -46t54 -14q29 0 50 11.5t35.5 27.5t23.5 32.5t14 26.5l-11 5q-5 -11 -14 -26.5t-21.5 -29.5t-27.5 -24t-33 -10
q-16 0 -21 10t-5 22q0 16 5 32.5t11 33.5l65 185q8 23 13.5 39.5t5.5 33.5q0 33 -24.5 55.5t-66.5 22.5q-27 0 -53.5 -12.5t-50.5 -31.5t-44 -41.5t-35 -42.5h-2l167 453h-158l-4 -14h91zM299 940l-161 -168h16l155 106l101 -106h14l-88 168h-37z" />
    <glyph glyph-name="Hbar" unicode="&#x126;" horiz-adv-x="796" 
d="M-80 14l-4 -14h307l4 14h-115l124 343h322l-124 -343h-104l-4 -14h310l4 14h-115l246 684h103l4 14h-308l-4 -14h115l-118 -327h-322l117 327h104l4 14h-309l-4 -14h114l-245 -684h-102zM0 452h875v31h-875v-31z" />
    <glyph glyph-name="hbar" unicode="&#x127;" horiz-adv-x="537" 
d="M267 746l-270 -746h69l75 209q16 45 41.5 83.5t54.5 67t58 45t51 16.5t30.5 -12t8.5 -25q0 -16 -8 -40l-84 -239q-5 -16 -8.5 -30t-3.5 -27q0 -32 22 -46t54 -14q29 0 50 11.5t35.5 27.5t23.5 32.5t14 26.5l-11 5q-5 -11 -14 -26.5t-21.5 -29.5t-27.5 -24t-33 -10
q-16 0 -21 10t-5 22q0 16 5 32.5t11 33.5l65 185q8 23 13.5 39.5t5.5 33.5q0 33 -24.5 55.5t-66.5 22.5q-27 0 -53.5 -12.5t-50.5 -31.5t-44 -41.5t-35 -42.5h-2l167 453h-158l-4 -14h91zM51 548h375v31h-375v-31z" />
    <glyph glyph-name="Itilde" unicode="&#x128;" horiz-adv-x="389" 
d="M-78 14l-4 -14h307l4 14h-114l245 684h105l4 14h-310l-4 -14h115l-246 -684h-102zM183 796h14q2 6 7 14.5t13 16t19 13t24 5.5q14 0 25 -5.5t25 -13.5l26 -14q17 -9 31 -12.5t31 -3.5q25 0 42.5 12.5t29.5 29t18 33.5t8 27h-13q-3 -7 -8.5 -16t-14 -17t-19 -13.5
t-22.5 -5.5q-11 0 -20 3t-23 8l-39 21q-11 5 -23.5 11t-30.5 6q-35 0 -64 -27t-36 -72z" />
    <glyph glyph-name="itilde" unicode="&#x129;" 
d="M135 415l-103 -293q-6 -17 -12 -37.5t-6 -37.5q0 -32 19.5 -45.5t52.5 -13.5q30 0 52 12t37 28.5t23.5 33t12.5 24.5l-12 5q-4 -9 -13 -24t-22 -29.5t-28.5 -25.5t-31.5 -11q-14 0 -21 8.5t-7 20.5q0 14 5 29.5t10 30.5l118 339h-159l-4 -14h89zM67 576h14q2 6 7 14.5
t13 16t19 13t24 5.5q14 0 25 -5.5t25 -13.5l26 -14q17 -9 31 -12.5t31 -3.5q25 0 42.5 12.5t29.5 29t18 33.5t8 27h-13q-3 -7 -8.5 -16t-14 -17t-19 -13.5t-22.5 -5.5q-11 0 -20 3t-23 8l-39 21q-11 5 -23.5 11t-30.5 6q-35 0 -64 -27t-36 -72z" />
    <glyph glyph-name="Imacron" unicode="&#x12a;" horiz-adv-x="389" 
d="M-78 14l-4 -14h307l4 14h-114l245 684h105l4 14h-310l-4 -14h115l-246 -684h-102zM483 852h-281l-12 -30h281z" />
    <glyph glyph-name="imacron" unicode="&#x12b;" 
d="M135 415l-103 -293q-6 -17 -12 -37.5t-6 -37.5q0 -32 19.5 -45.5t52.5 -13.5q30 0 52 12t37 28.5t23.5 33t12.5 24.5l-12 5q-4 -9 -13 -24t-22 -29.5t-28.5 -25.5t-31.5 -11q-14 0 -21 8.5t-7 20.5q0 14 5 29.5t10 30.5l118 339h-159l-4 -14h89zM374 632h-281l-12 -30
h281z" />
    <glyph glyph-name="Ibreve" unicode="&#x12c;" horiz-adv-x="389" 
d="M-78 14l-4 -14h307l4 14h-114l245 684h105l4 14h-310l-4 -14h115l-246 -684h-102zM245 940h-14q0 -19 3 -46.5t15 -53.5t36 -44.5t66 -18.5q44 0 73 17.5t47 42.5t28 53t16 50h-14q-9 -19 -21 -37.5t-29 -32.5t-39.5 -22.5t-52.5 -8.5q-31 0 -53 9.5t-35.5 24.5t-19.5 33
t-6 34z" />
    <glyph glyph-name="ibreve" unicode="&#x12d;" 
d="M135 415l-103 -293q-6 -17 -12 -37.5t-6 -37.5q0 -32 19.5 -45.5t52.5 -13.5q30 0 52 12t37 28.5t23.5 33t12.5 24.5l-12 5q-4 -9 -13 -24t-22 -29.5t-28.5 -25.5t-31.5 -11q-14 0 -21 8.5t-7 20.5q0 14 5 29.5t10 30.5l118 339h-159l-4 -14h89zM78 668h-14
q0 -19 3 -46.5t15 -53.5t36 -44.5t66 -18.5q44 0 73 17.5t47 42.5t28 53t16 50h-14q-9 -19 -21 -37.5t-29 -32.5t-39.5 -22.5t-52.5 -8.5q-31 0 -53 9.5t-35.5 24.5t-19.5 33t-6 34z" />
    <glyph glyph-name="Iogonek" unicode="&#x12e;" horiz-adv-x="389" 
d="M-78 14l-4 -14h307l4 14h-114l245 684h105l4 14h-310l-4 -14h115l-246 -684h-102zM82 0h-22l-67 -35q-42 -21 -64.5 -44.5t-22.5 -52.5t22 -48t64 -19q19 0 33.5 4t25 9t17.5 10.5t12 8.5l-7 12q-7 -5 -18 -11t-30 -6q-22 0 -36 14t-14 37q0 29 31 59.5t76 61.5z" />
    <glyph glyph-name="iogonek" unicode="&#x12f;" 
d="M197 665q0 -20 13.5 -33.5t33.5 -13.5t33.5 13.5t13.5 33.5t-13.5 33.5t-33.5 13.5t-33.5 -13.5t-13.5 -33.5zM135 415l-103 -293q-6 -17 -12 -37.5t-6 -37.5q0 -32 19.5 -45.5t52.5 -13.5q30 0 52 12t37 28.5t23.5 33t12.5 24.5l-12 5q-4 -9 -13 -24t-22 -29.5
t-28.5 -25.5t-31.5 -11q-14 0 -21 8.5t-7 20.5q0 14 5 29.5t10 30.5l118 339h-159l-4 -14h89zM106 0h-22l-67 -35q-42 -21 -64.5 -44.5t-22.5 -52.5t22 -48t64 -19q19 0 33.5 4t25 9t17.5 10.5t12 8.5l-7 12q-7 -5 -18 -11t-30 -6q-22 0 -36 14t-14 37q0 29 31 59.5t76 61.5
z" />
    <glyph glyph-name="Idotaccent" unicode="&#x130;" horiz-adv-x="389" 
d="M-78 14l-4 -14h307l4 14h-114l245 684h105l4 14h-310l-4 -14h115l-246 -684h-102zM311 885q0 -20 13.5 -33.5t33.5 -13.5t33.5 13.5t13.5 33.5t-13.5 33.5t-33.5 13.5t-33.5 -13.5t-13.5 -33.5z" />
    <glyph glyph-name="dotlessi" unicode="&#x131;" 
d="M135 415l-103 -293q-6 -17 -12 -37.5t-6 -37.5q0 -32 19.5 -45.5t52.5 -13.5q30 0 52 12t37 28.5t23.5 33t12.5 24.5l-12 5q-4 -9 -13 -24t-22 -29.5t-28.5 -25.5t-31.5 -11q-14 0 -21 8.5t-7 20.5q0 14 5 29.5t10 30.5l118 339h-159l-4 -14h89z" />
    <glyph glyph-name="IJ" unicode="&#x132;" horiz-adv-x="893" 
d="M-78 14l-4 -14h307l4 14h-114l245 684h105l4 14h-310l-4 -14h115l-246 -684h-102zM768 698l-196 -549l-27 -64q-13 -31 -26 -48.5t-25 -25.5t-22 -9.5t-16 -1.5q-12 0 -20.5 5t-8.5 19q0 13 4 21t9.5 15.5t9.5 16.5t4 24q0 16 -11.5 26t-32.5 10q-24 0 -41 -18t-17 -50
q0 -22 9 -38t23 -25.5t32.5 -14t37.5 -4.5q36 0 68.5 17.5t62.5 49.5q21 22 37 43t28.5 42.5t22.5 44.5t19 49l167 465h103l4 14h-307l-4 -14h113z" />
    <glyph glyph-name="ij" unicode="&#x133;" horiz-adv-x="635" 
d="M197 665q0 -20 13.5 -33.5t33.5 -13.5t33.5 13.5t13.5 33.5t-13.5 33.5t-33.5 13.5t-33.5 -13.5t-13.5 -33.5zM135 415l-103 -293q-6 -17 -12 -37.5t-6 -37.5q0 -32 19.5 -45.5t52.5 -13.5q30 0 52 12t37 28.5t23.5 33t12.5 24.5l-12 5q-4 -9 -13 -24t-22 -29.5
t-28.5 -25.5t-31.5 -11q-14 0 -21 8.5t-7 20.5q0 14 5 29.5t10 30.5l118 339h-159l-4 -14h89zM559 665q0 -20 13.5 -33.5t33.5 -13.5t33.5 13.5t13.5 33.5t-13.5 33.5t-33.5 13.5t-33.5 -13.5t-13.5 -33.5zM571 429h-161l-4 -14h91l-190 -524q-47 -131 -99 -131
q-15 0 -24.5 7t-9.5 21q0 16 6 24t6 24q0 13 -9 20t-24 7q-20 0 -32.5 -14t-12.5 -32t8 -31.5t20 -22.5t27 -13t29 -4q29 0 54.5 13.5t48 35t41.5 48t34 53.5t25.5 51.5t16.5 40.5z" />
    <glyph glyph-name="Jcircumflex" unicode="&#x134;" horiz-adv-x="463" 
d="M353 698l-196 -549l-27 -64q-13 -31 -26 -48.5t-25 -25.5t-22 -9.5t-16 -1.5q-12 0 -20.5 5t-8.5 19q0 13 4 21t9.5 15.5t9.5 16.5t4 24q0 16 -11.5 26t-32.5 10q-24 0 -41 -18t-17 -50q0 -22 9 -38t23 -25.5t32.5 -14t37.5 -4.5q36 0 68.5 17.5t62.5 49.5q21 22 37 43
t28.5 42.5t22.5 44.5t19 49l167 465h103l4 14h-307l-4 -14h113zM456 940l-161 -168h16l155 106l101 -106h14l-88 168h-37z" />
    <glyph glyph-name="jcircumflex" unicode="&#x135;" 
d="M66 -11q-6 -16 -16.5 -40.5t-25.5 -51.5t-33.5 -53.5t-41 -48t-48 -35t-54.5 -13.5q-14 0 -29 4t-27 13t-20 22.5t-8 31.5t12.5 32t32.5 14q15 0 24 -7t9 -20q0 -16 -6 -24t-6 -24q0 -14 9.5 -21t24.5 -7q52 0 99 131l189 523h-91l4 14h161zM219 720l-161 -168h16
l155 106l101 -106h14l-88 168h-37z" />
    <glyph glyph-name="Kcedilla" unicode="&#x136;" horiz-adv-x="704" 
d="M244 366l176 -352h-108l-4 -14h304l4 14h-95l-206 397l370 287h69l4 14h-207l-4 -14h111v-2l-408 -316h-8l114 318h103l4 14h-307l-4 -14h114l-245 -684h-102l-4 -14h306l4 14h-114l126 352h7zM507 -3h-20l-80 -78l12 -16q5 4 16.5 8.5t27.5 4.5q37 0 37 -45
q0 -13 -3 -30.5t-10.5 -33.5t-20 -27t-31.5 -11q-22 0 -36.5 9.5t-24.5 17.5l-9 -12q7 -7 27 -18t47 -11q23 0 44 7.5t37.5 22t26 34.5t9.5 45q0 19 -6.5 33t-16.5 22.5t-23 12.5t-25 4q-17 0 -31 -5t-23 -10l-2 2z" />
    <glyph glyph-name="kcedilla" unicode="&#x137;" horiz-adv-x="519" 
d="M263 746l-266 -746h69l94 264h22q18 0 29 -6.5t17.5 -17.5t10 -25.5t6.5 -30.5l27 -125q10 -44 28 -57.5t46 -13.5q26 0 45 10.5t33 26t23.5 34t16.5 34.5l-14 4q-3 -8 -10 -23t-17 -30t-22.5 -26t-26.5 -11q-16 0 -23 15.5t-11 34.5l-26 133q-5 27 -15 42t-21.5 23
t-24 10.5t-23.5 4.5v3q12 4 30.5 19.5t37.5 39.5l25 30q19 23 32.5 36.5t25.5 13.5q16 0 16 -12q0 -10 -4 -15.5t-4 -18.5q0 -27 36 -27q18 0 30 12.5t12 35.5q0 30 -14.5 42.5t-36.5 12.5q-53 0 -109 -75q-25 -35 -55 -62t-65 -27h-21l172 482h-160l-4 -14h89zM384 -3h-20
l-80 -78l12 -16q5 4 16.5 8.5t27.5 4.5q37 0 37 -45q0 -13 -3 -30.5t-10.5 -33.5t-20 -27t-31.5 -11q-22 0 -36.5 9.5t-24.5 17.5l-9 -12q7 -7 27 -18t47 -11q23 0 44 7.5t37.5 22t26 34.5t9.5 45q0 19 -6.5 33t-16.5 22.5t-23 12.5t-25 4q-17 0 -31 -5t-23 -10l-2 2z" />
    <glyph glyph-name="kgreenlandic" unicode="&#x138;" horiz-adv-x="519" 
d="M60 431l4 14h160l-58 -167h21q35 0 65 27t55 62q56 75 109 75q22 0 36.5 -12.5t14.5 -42.5q0 -23 -12 -35.5t-30 -12.5q-36 0 -36 27q0 13 4 18.5t4 15.5q0 12 -16 12q-12 0 -25.5 -13.5t-32.5 -36.5l-25 -30q-19 -24 -37.5 -39.5t-30.5 -19.5v-3q11 -2 23.5 -4.5
t24 -10.5t21.5 -23t15 -42l26 -133q4 -19 11 -34.5t23 -15.5q14 0 26.5 11t22.5 26t17 30t10 23l14 -4q-7 -16 -16.5 -34.5t-23.5 -34t-33 -25.5t-45 -10q-28 0 -46 13t-28 57l-27 125q-3 16 -6.5 30.5t-10 25.5t-17.5 17.5t-29 6.5h-22l-94 -264h-68l151 431h-89z" />
    <glyph glyph-name="Lacute" unicode="&#x139;" horiz-adv-x="630" 
d="M265 698l-245 -684h-103l-4 -14h581l70 196h-14q-9 -15 -27.5 -45.5t-45 -61t-60.5 -53t-73 -22.5h-234l245 684h105l4 14h-310l-4 -14h115zM370 911l-138 -139h14l160 94q28 17 35.5 26.5t7.5 20.5q0 13 -8.5 21t-21.5 8t-24 -8.5t-25 -22.5z" />
    <glyph glyph-name="lacute" unicode="&#x13a;" 
d="M329 760h-159l-4 -14h89l-223 -624q-6 -17 -12 -37.5t-6 -37.5q0 -32 19.5 -45.5t52.5 -13.5q30 0 52 12t37 28.5t23.5 33t12.5 24.5l-12 5q-4 -9 -13 -24t-22 -29.5t-28.5 -25.5t-31.5 -11q-14 0 -21 8.5t-7 20.5q0 14 5 29.5t10 30.5zM339 911l-138 -139h14l160 94
q28 17 35.5 26.5t7.5 20.5q0 13 -8.5 21t-21.5 8t-24 -8.5t-25 -22.5z" />
    <glyph glyph-name="Lcedilla" unicode="&#x13b;" horiz-adv-x="630" 
d="M265 698l-245 -684h-103l-4 -14h581l70 196h-14q-9 -15 -27.5 -45.5t-45 -61t-60.5 -53t-73 -22.5h-234l245 684h105l4 14h-310l-4 -14h115zM306 -3h-20l-80 -78l12 -16q5 4 16.5 8.5t27.5 4.5q37 0 37 -45q0 -13 -3 -30.5t-10.5 -33.5t-20 -27t-31.5 -11
q-22 0 -36.5 9.5t-24.5 17.5l-9 -12q7 -7 27 -18t47 -11q23 0 44 7.5t37.5 22t26 34.5t9.5 45q0 19 -6.5 33t-16.5 22.5t-23 12.5t-25 4q-17 0 -31 -5t-23 -10l-2 2z" />
    <glyph glyph-name="lcedilla" unicode="&#x13c;" 
d="M329 760h-159l-4 -14h89l-223 -624q-6 -17 -12 -37.5t-6 -37.5q0 -32 19.5 -45.5t52.5 -13.5q30 0 52 12t37 28.5t23.5 33t12.5 24.5l-12 5q-4 -9 -13 -24t-22 -29.5t-28.5 -25.5t-31.5 -11q-14 0 -21 8.5t-7 20.5q0 14 5 29.5t10 30.5zM123 -3h-20l-80 -78l12 -16
q5 4 16.5 8.5t27.5 4.5q37 0 37 -45q0 -13 -3 -30.5t-10.5 -33.5t-20 -27t-31.5 -11q-22 0 -36.5 9.5t-24.5 17.5l-9 -12q7 -7 27 -18t47 -11q23 0 44 7.5t37.5 22t26 34.5t9.5 45q0 19 -6.5 33t-16.5 22.5t-23 12.5t-25 4q-17 0 -31 -5t-23 -10l-2 2z" />
    <glyph glyph-name="Lcaron" unicode="&#x13d;" horiz-adv-x="716" 
d="M265 698l-245 -684h-103l-4 -14h581l70 196h-14q-9 -15 -27.5 -45.5t-45 -61t-60.5 -53t-73 -22.5h-234l245 684h105l4 14h-310l-4 -14h115zM600 531l4 -13q9 3 32.5 13.5t48 30.5t43.5 50.5t19 73.5q0 32 -18 53t-48 21q-26 0 -39.5 -14.5t-13.5 -38.5q0 -15 10 -28
t29 -13q6 0 10 0.5t8 1.5q4 2 6.5 3t4.5 2q5 -13 5 -34q0 -23 -12 -41.5t-28.5 -32t-33.5 -22t-27 -12.5z" />
    <glyph glyph-name="lcaron" unicode="&#x13e;" horiz-adv-x="513" 
d="M329 760h-159l-4 -14h89l-223 -624q-6 -17 -12 -37.5t-6 -37.5q0 -32 19.5 -45.5t52.5 -13.5q30 0 52 12t37 28.5t23.5 33t12.5 24.5l-12 5q-4 -9 -13 -24t-22 -29.5t-28.5 -25.5t-31.5 -11q-14 0 -21 8.5t-7 20.5q0 14 5 29.5t10 30.5zM399 531l4 -13q9 3 32.5 13.5
t48 30.5t43.5 50.5t19 73.5q0 32 -18 53t-48 21q-26 0 -39.5 -14.5t-13.5 -38.5q0 -15 10 -28t29 -13q6 0 10 0.5t8 1.5q4 2 6.5 3t4.5 2q5 -13 5 -34q0 -23 -12 -41.5t-28.5 -32t-33.5 -22t-27 -12.5z" />
    <glyph glyph-name="Ldotaccent" unicode="&#x13f;" horiz-adv-x="630" 
d="M265 698l-245 -684h-103l-4 -14h581l70 196h-14q-9 -15 -27.5 -45.5t-45 -61t-60.5 -53t-73 -22.5h-234l245 684h105l4 14h-310l-4 -14h115zM514 497q0 -20 13.5 -33.5t33.5 -13.5t33.5 13.5t13.5 33.5t-13.5 33.5t-33.5 13.5t-33.5 -13.5t-13.5 -33.5z" />
    <glyph glyph-name="ldotaccent" unicode="&#x140;" horiz-adv-x="472" 
d="M329 760h-159l-4 -14h89l-223 -624q-6 -17 -12 -37.5t-6 -37.5q0 -32 19.5 -45.5t52.5 -13.5q30 0 52 12t37 28.5t23.5 33t12.5 24.5l-12 5q-4 -9 -13 -24t-22 -29.5t-28.5 -25.5t-31.5 -11q-14 0 -21 8.5t-7 20.5q0 14 5 29.5t10 30.5zM389 494q0 -20 13.5 -33.5
t33.5 -13.5t33.5 13.5t13.5 33.5t-13.5 33.5t-33.5 13.5t-33.5 -13.5t-13.5 -33.5z" />
    <glyph glyph-name="Lslash" unicode="&#x141;" horiz-adv-x="630" 
d="M135 334l-115 -320h-103l-4 -14h581l70 196h-14q-9 -15 -27.5 -45.5t-45 -61t-60.5 -53t-73 -22.5h-234l132 369l196 91l7 20l-196 -91l106 295h105l4 14h-310l-4 -14h115l-123 -345l-135 -62l-7 -20z" />
    <glyph glyph-name="lslash" unicode="&#x142;" 
d="M329 760h-159l-4 -14h89l-123 -345l-108 -50l-7 -19l108 50l-93 -260q-6 -17 -12 -37.5t-6 -37.5q0 -32 19.5 -45.5t52.5 -13.5q30 0 52 12t37 28.5t23.5 33t12.5 24.5l-12 5q-4 -9 -13 -24t-22 -29.5t-28.5 -25.5t-31.5 -11q-14 0 -21 8.5t-7 20.5q0 14 5 29.5t10 30.5
l117 330l107 49l7 19l-107 -49z" />
    <glyph glyph-name="Nacute" unicode="&#x143;" horiz-adv-x="704" 
d="M261 662l172 -675h7l252 711h103l4 14h-234l-4 -14h115l-196 -550h-2l-142 564h-189l-4 -14h114l-244 -684h-102l-4 -14h231l4 14h-114l231 648h2zM523 911l-138 -139h14l160 94q28 17 35.5 26.5t7.5 20.5q0 13 -8.5 21t-21.5 8t-24 -8.5t-25 -22.5z" />
    <glyph glyph-name="nacute" unicode="&#x144;" horiz-adv-x="537" 
d="M141 415l-144 -415h69l75 209q16 45 41.5 83.5t54.5 67t58 45t51 16.5t30.5 -12t8.5 -25q0 -16 -8 -40l-84 -239q-5 -16 -8.5 -30t-3.5 -27q0 -32 22 -46t54 -14q29 0 50 11.5t35.5 27.5t23.5 32.5t14 26.5l-11 5q-5 -11 -14 -26.5t-21.5 -29.5t-27.5 -24t-33 -10
q-16 0 -21 10t-5 22q0 16 5 32.5t11 33.5l65 185q8 23 13.5 39.5t5.5 33.5q0 33 -24.5 55.5t-66.5 22.5q-86 0 -183 -129h-2l41 123h-158l-4 -14h91zM299 691l-138 -139h14l160 94q28 17 35.5 26.5t7.5 20.5q0 13 -8.5 21t-21.5 8t-24 -8.5t-25 -22.5z" />
    <glyph glyph-name="Ncedilla" unicode="&#x145;" horiz-adv-x="704" 
d="M261 662l172 -675h7l252 711h103l4 14h-234l-4 -14h115l-196 -550h-2l-142 564h-189l-4 -14h114l-244 -684h-102l-4 -14h231l4 14h-114l231 648h2zM459 -3h-20l-80 -78l12 -16q5 4 16.5 8.5t27.5 4.5q37 0 37 -45q0 -13 -3 -30.5t-10.5 -33.5t-20 -27t-31.5 -11
q-22 0 -36.5 9.5t-24.5 17.5l-9 -12q7 -7 27 -18t47 -11q23 0 44 7.5t37.5 22t26 34.5t9.5 45q0 19 -6.5 33t-16.5 22.5t-23 12.5t-25 4q-17 0 -31 -5t-23 -10l-2 2z" />
    <glyph glyph-name="ncedilla" unicode="&#x146;" horiz-adv-x="537" 
d="M141 415l-144 -415h69l75 209q16 45 41.5 83.5t54.5 67t58 45t51 16.5t30.5 -12t8.5 -25q0 -16 -8 -40l-84 -239q-5 -16 -8.5 -30t-3.5 -27q0 -32 22 -46t54 -14q29 0 50 11.5t35.5 27.5t23.5 32.5t14 26.5l-11 5q-5 -11 -14 -26.5t-21.5 -29.5t-27.5 -24t-33 -10
q-16 0 -21 10t-5 22q0 16 5 32.5t11 33.5l65 185q8 23 13.5 39.5t5.5 33.5q0 33 -24.5 55.5t-66.5 22.5q-86 0 -183 -129h-2l41 123h-158l-4 -14h91zM388 -3h-20l-80 -78l12 -16q5 4 16.5 8.5t27.5 4.5q37 0 37 -45q0 -13 -3 -30.5t-10.5 -33.5t-20 -27t-31.5 -11
q-22 0 -36.5 9.5t-24.5 17.5l-9 -12q7 -7 27 -18t47 -11q23 0 44 7.5t37.5 22t26 34.5t9.5 45q0 19 -6.5 33t-16.5 22.5t-23 12.5t-25 4q-17 0 -31 -5t-23 -10l-2 2z" />
    <glyph glyph-name="Ncaron" unicode="&#x147;" horiz-adv-x="704" 
d="M261 662l172 -675h7l252 711h103l4 14h-234l-4 -14h115l-196 -550h-2l-142 564h-189l-4 -14h114l-244 -684h-102l-4 -14h231l4 14h-114l231 648h2zM346 940h-14l88 -168h38l161 168h-17l-155 -106z" />
    <glyph glyph-name="ncaron" unicode="&#x148;" horiz-adv-x="537" 
d="M141 415l-144 -415h69l75 209q16 45 41.5 83.5t54.5 67t58 45t51 16.5t30.5 -12t8.5 -25q0 -16 -8 -40l-84 -239q-5 -16 -8.5 -30t-3.5 -27q0 -32 22 -46t54 -14q29 0 50 11.5t35.5 27.5t23.5 32.5t14 26.5l-11 5q-5 -11 -14 -26.5t-21.5 -29.5t-27.5 -24t-33 -10
q-16 0 -21 10t-5 22q0 16 5 32.5t11 33.5l65 185q8 23 13.5 39.5t5.5 33.5q0 33 -24.5 55.5t-66.5 22.5q-86 0 -183 -129h-2l41 123h-158l-4 -14h91zM217 720h-14l88 -168h38l161 168h-17l-155 -106z" />
    <glyph glyph-name="quoterightn" unicode="&#x149;" horiz-adv-x="693" 
d="M159 531l4 -13q9 3 32.5 13.5t48 30.5t43.5 50.5t19 73.5q0 32 -18 53t-48 21q-26 0 -39.5 -14.5t-13.5 -38.5q0 -15 10 -28t29 -13q6 0 10 0.5t8 1.5q4 2 6.5 3t4.5 2q5 -13 5 -34q0 -23 -12 -41.5t-28.5 -32t-33.5 -22t-27 -12.5zM311 415l-144 -415h69l75 209
q16 45 41.5 83.5t54.5 67t58 45t51 16.5t30.5 -12t8.5 -25q0 -16 -8 -40l-84 -239q-5 -16 -8.5 -30t-3.5 -27q0 -32 22 -46t54 -14q29 0 50 11.5t35.5 27.5t23.5 32.5t14 26.5l-11 5q-5 -11 -14 -26.5t-21.5 -29.5t-27.5 -24t-33 -10q-16 0 -21 10t-5 22q0 16 5 32.5
t11 33.5l65 185q8 23 13.5 39.5t5.5 33.5q0 33 -24.5 55.5t-66.5 22.5q-86 0 -183 -129h-2l41 123h-158l-4 -14h91z" />
    <glyph glyph-name="Omacron" unicode="&#x14c;" horiz-adv-x="778" 
d="M136 158q0 43 10.5 101t30.5 119.5t50 121t69 106.5t86.5 76t103.5 29q81 0 118 -43t37 -121q0 -38 -9.5 -93.5t-28 -116.5t-47.5 -121t-67.5 -108t-87 -78t-107.5 -30q-47 0 -77.5 13t-48.5 34.5t-25 50.5t-7 60zM60 273q0 -70 17 -123.5t47 -89.5t72 -54.5t92 -18.5
q56 0 109.5 18t101.5 50t89 75t70.5 92.5t46 104t16.5 108.5q0 50 -12 101.5t-39.5 93.5t-72 68.5t-109.5 26.5q-50 0 -101 -17.5t-98.5 -48.5t-89.5 -73.5t-72.5 -93t-48.5 -106.5t-18 -113zM687 852h-281l-12 -30h281z" />
    <glyph glyph-name="omacron" unicode="&#x14d;" horiz-adv-x="481" 
d="M66 101q0 26 6 60.5t17.5 71t28.5 71.5t38.5 62.5t47.5 44.5t55 17q51 0 71.5 -28t20.5 -76q0 -20 -6 -52t-17.5 -68t-28.5 -72t-39 -65.5t-49 -47.5t-58 -18q-38 0 -62.5 24.5t-24.5 75.5zM0 157q0 -34 11 -64.5t31.5 -53.5t49 -37t64.5 -14q42 0 88.5 22.5t84.5 61.5
t63 90.5t25 109.5q0 28 -9 58t-28 55t-48 41t-68 16q-43 0 -90 -22t-85.5 -60t-63.5 -90.5t-25 -112.5zM453 632h-281l-12 -30h281z" />
    <glyph glyph-name="Obreve" unicode="&#x14e;" horiz-adv-x="778" 
d="M136 158q0 43 10.5 101t30.5 119.5t50 121t69 106.5t86.5 76t103.5 29q81 0 118 -43t37 -121q0 -38 -9.5 -93.5t-28 -116.5t-47.5 -121t-67.5 -108t-87 -78t-107.5 -30q-47 0 -77.5 13t-48.5 34.5t-25 50.5t-7 60zM60 273q0 -70 17 -123.5t47 -89.5t72 -54.5t92 -18.5
q56 0 109.5 18t101.5 50t89 75t70.5 92.5t46 104t16.5 108.5q0 50 -12 101.5t-39.5 93.5t-72 68.5t-109.5 26.5q-50 0 -101 -17.5t-98.5 -48.5t-89.5 -73.5t-72.5 -93t-48.5 -106.5t-18 -113zM443 933h-14q0 -19 3 -46.5t15 -53.5t36 -44.5t66 -18.5q44 0 73 17.5t47 42.5
t28 53t16 50h-14q-9 -19 -21 -37.5t-29 -32.5t-39.5 -22.5t-52.5 -8.5q-31 0 -53 9.5t-35.5 24.5t-19.5 33t-6 34z" />
    <glyph glyph-name="obreve" unicode="&#x14f;" horiz-adv-x="481" 
d="M66 101q0 26 6 60.5t17.5 71t28.5 71.5t38.5 62.5t47.5 44.5t55 17q51 0 71.5 -28t20.5 -76q0 -20 -6 -52t-17.5 -68t-28.5 -72t-39 -65.5t-49 -47.5t-58 -18q-38 0 -62.5 24.5t-24.5 75.5zM0 157q0 -34 11 -64.5t31.5 -53.5t49 -37t64.5 -14q42 0 88.5 22.5t84.5 61.5
t63 90.5t25 109.5q0 28 -9 58t-28 55t-48 41t-68 16q-43 0 -90 -22t-85.5 -60t-63.5 -90.5t-25 -112.5zM181 713h-14q0 -19 3 -46.5t15 -53.5t36 -44.5t66 -18.5q44 0 73 17.5t47 42.5t28 53t16 50h-14q-9 -19 -21 -37.5t-29 -32.5t-39.5 -22.5t-52.5 -8.5q-31 0 -53 9.5
t-35.5 24.5t-19.5 33t-6 34z" />
    <glyph glyph-name="Ohungarumlaut" unicode="&#x150;" horiz-adv-x="778" 
d="M136 158q0 43 10.5 101t30.5 119.5t50 121t69 106.5t86.5 76t103.5 29q81 0 118 -43t37 -121q0 -38 -9.5 -93.5t-28 -116.5t-47.5 -121t-67.5 -108t-87 -78t-107.5 -30q-47 0 -77.5 13t-48.5 34.5t-25 50.5t-7 60zM60 273q0 -70 17 -123.5t47 -89.5t72 -54.5t92 -18.5
q56 0 109.5 18t101.5 50t89 75t70.5 92.5t46 104t16.5 108.5q0 50 -12 101.5t-39.5 93.5t-72 68.5t-109.5 26.5q-50 0 -101 -17.5t-98.5 -48.5t-89.5 -73.5t-72.5 -93t-48.5 -106.5t-18 -113zM657 911l-138 -139h14l160 94q28 17 35.5 26.5t7.5 20.5q0 13 -8.5 21t-21.5 8
t-24 -8.5t-25 -22.5zM469 911l-138 -139h14l160 94q28 17 35.5 26.5t7.5 20.5q0 13 -8.5 21t-21.5 8t-24 -8.5t-25 -22.5z" />
    <glyph glyph-name="ohungarumlaut" unicode="&#x151;" horiz-adv-x="481" 
d="M66 101q0 26 6 60.5t17.5 71t28.5 71.5t38.5 62.5t47.5 44.5t55 17q51 0 71.5 -28t20.5 -76q0 -20 -6 -52t-17.5 -68t-28.5 -72t-39 -65.5t-49 -47.5t-58 -18q-38 0 -62.5 24.5t-24.5 75.5zM0 157q0 -34 11 -64.5t31.5 -53.5t49 -37t64.5 -14q42 0 88.5 22.5t84.5 61.5
t63 90.5t25 109.5q0 28 -9 58t-28 55t-48 41t-68 16q-43 0 -90 -22t-85.5 -60t-63.5 -90.5t-25 -112.5zM481 691l-138 -139h14l160 94q28 17 35.5 26.5t7.5 20.5q0 13 -8.5 21t-21.5 8t-24 -8.5t-25 -22.5zM293 691l-138 -139h14l160 94q28 17 35.5 26.5t7.5 20.5
q0 13 -8.5 21t-21.5 8t-24 -8.5t-25 -22.5z" />
    <glyph glyph-name="OE" unicode="&#x152;" horiz-adv-x="1037" 
d="M633 692l-244 -676q-12 -3 -31 -5.5t-33 -2.5q-39 0 -71.5 8.5t-56 28.5t-36.5 53.5t-13 84.5q0 40 13 103t39 130.5t64 130t87 102.5q21 17 43.5 27.5t45.5 16.5t44.5 8.5t39.5 2.5q10 0 24.5 -0.5t30 -2t30 -4t24.5 -5.5zM682 14h-203l130 361h61q43 0 62.5 -21
t19.5 -58q0 -20 -3 -35.5t-6 -26.5h13l99 278h-12q-7 -12 -18.5 -32.5t-29 -41t-41 -35t-53.5 -14.5h-88l112 309h186q24 0 38.5 -7t22.5 -18.5t11 -25.5t3 -28q0 -25 -3.5 -45t-6.5 -32h14l60 170h-357h-44q-34 0 -70 3t-83 3q-63 0 -119 -20.5t-104 -54.5t-85.5 -79.5
t-64.5 -95.5t-41 -102t-14 -99q0 -60 17 -110t49.5 -86t80.5 -56t110 -20q7 0 18.5 1t24.5 1.5t27 1.5t26 1h26h389l70 196h-14q-10 -17 -27.5 -47.5t-43.5 -60.5t-60.5 -52t-78.5 -22z" />
    <glyph glyph-name="oe" unicode="&#x153;" horiz-adv-x="759" 
d="M663 380q0 -26 -14.5 -50t-39 -42t-56.5 -29t-68 -11q-28 0 -51 4q9 26 26 56.5t40 57t51.5 44.5t59.5 18q28 0 40 -14t12 -34zM73 101q0 26 6 60.5t17.5 71t28.5 71.5t38.5 62.5t47 44.5t55.5 17q51 0 71.5 -28t20.5 -76q0 -20 -6 -52t-17.5 -68t-28.5 -72t-39 -65.5
t-49 -47.5t-58 -18q-38 0 -62.5 24.5t-24.5 75.5zM665 98l-12 7q-8 -10 -20.5 -27.5t-31 -34.5t-43 -29.5t-56.5 -12.5q-43 0 -71 26.5t-28 80.5q0 35 7.5 66.5t18.5 63.5q12 -2 28 -3t33 -1q10 0 31.5 2.5t47.5 8t53.5 15.5t50.5 24.5t37.5 35t14.5 47.5q0 20 -10 34
t-26 23t-36 13.5t-40 4.5q-36 0 -66.5 -12t-55.5 -29t-44.5 -36t-32.5 -33q-8 19 -18.5 38.5t-27 35.5t-40.5 26t-57 10q-43 0 -90 -22t-85.5 -60t-63.5 -90.5t-25 -112.5q0 -34 11 -64.5t31.5 -53.5t49 -37t64.5 -14q28 0 54.5 8.5t50 22t43 29.5t32.5 31q4 -11 13.5 -26.5
t26.5 -30t43 -24.5t63 -10q43 0 73.5 14.5t51.5 33t33 37t18 25.5z" />
    <glyph glyph-name="Racute" unicode="&#x154;" horiz-adv-x="648" 
d="M245 392l110 306h42q50 0 84 -27.5t34 -83.5q0 -37 -8 -64.5t-20 -48t-27 -34.5t-29 -23q-17 -11 -48 -18t-71 -7h-67zM264 698l-244 -684h-102l-5 -14h307l5 14h-115l131 364h41q43 0 70 -7t42 -19t20.5 -28.5t5.5 -34.5q0 -19 -3.5 -45t-7.5 -52q-5 -27 -8.5 -51
t-3.5 -39q0 -30 9.5 -50.5t26.5 -33t39.5 -18t49.5 -5.5q15 0 29.5 2t19.5 3l-4 13q-4 -2 -12.5 -3.5t-16.5 -1.5q-23 0 -38 16.5t-15 44.5q0 25 4 48t8.5 45.5t8.5 46t4 48.5q0 36 -17 59t-40.5 37t-48.5 20t-41 8l2 3q9 1 31 4t49 10.5t56 19.5t53 30.5t39.5 45.5t15.5 63
q0 43 -20 72.5t-50.5 48t-68 26.5t-72.5 8h-243l-6 -14h115zM459 911l-138 -139h14l160 94q28 17 35.5 26.5t7.5 20.5q0 13 -8.5 21t-21.5 8t-24 -8.5t-25 -22.5z" />
    <glyph glyph-name="racute" unicode="&#x155;" horiz-adv-x="407" 
d="M113 308l-108 -308h70l72 204q14 39 36 78t46.5 69.5t49.5 50t44 19.5q12 0 20 -6t8 -16t-4.5 -16t-9.5 -11t-9.5 -10.5t-4.5 -16.5q0 -14 9 -21t23 -7q8 0 17 2t17.5 7.5t14 16t5.5 26.5q1 24 -18.5 45t-56.5 21q-26 0 -49 -13.5t-42 -33t-34 -40.5t-25 -36l-2 2
q11 30 20.5 62t14.5 53h-154l-4 -14h87l-16 -54t-17 -53zM299 691l-138 -139h14l160 94q28 17 35.5 26.5t7.5 20.5q0 13 -8.5 21t-21.5 8t-24 -8.5t-25 -22.5z" />
    <glyph glyph-name="Rcedilla" unicode="&#x156;" horiz-adv-x="648" 
d="M245 392l110 306h42q50 0 84 -27.5t34 -83.5q0 -37 -8 -64.5t-20 -48t-27 -34.5t-29 -23q-17 -11 -48 -18t-71 -7h-67zM264 698l-244 -684h-102l-5 -14h307l5 14h-115l131 364h41q43 0 70 -7t42 -19t20.5 -28.5t5.5 -34.5q0 -19 -3.5 -45t-7.5 -52q-5 -27 -8.5 -51
t-3.5 -39q0 -30 9.5 -50.5t26.5 -33t39.5 -18t49.5 -5.5q15 0 29.5 2t19.5 3l-4 13q-4 -2 -12.5 -3.5t-16.5 -1.5q-23 0 -38 16.5t-15 44.5q0 25 4 48t8.5 45.5t8.5 46t4 48.5q0 36 -17 59t-40.5 37t-48.5 20t-41 8l2 3q9 1 31 4t49 10.5t56 19.5t53 30.5t39.5 45.5t15.5 63
q0 43 -20 72.5t-50.5 48t-68 26.5t-72.5 8h-243l-6 -14h115zM530 -3h-20l-80 -78l12 -16q5 4 16.5 8.5t27.5 4.5q37 0 37 -45q0 -13 -3 -30.5t-10.5 -33.5t-20 -27t-31.5 -11q-22 0 -36.5 9.5t-24.5 17.5l-9 -12q7 -7 27 -18t47 -11q23 0 44 7.5t37.5 22t26 34.5t9.5 45
q0 19 -6.5 33t-16.5 22.5t-23 12.5t-25 4q-17 0 -31 -5t-23 -10l-2 2z" />
    <glyph glyph-name="rcedilla" unicode="&#x157;" horiz-adv-x="407" 
d="M113 308l-108 -308h70l72 204q14 39 36 78t46.5 69.5t49.5 50t44 19.5q12 0 20 -6t8 -16t-4.5 -16t-9.5 -11t-9.5 -10.5t-4.5 -16.5q0 -14 9 -21t23 -7q8 0 17 2t17.5 7.5t14 16t5.5 26.5q1 24 -18.5 45t-56.5 21q-26 0 -49 -13.5t-42 -33t-34 -40.5t-25 -36l-2 2
q11 30 20.5 62t14.5 53h-154l-4 -14h87l-16 -54t-17 -53zM77 -3h-20l-80 -78l12 -16q5 4 16.5 8.5t27.5 4.5q37 0 37 -45q0 -13 -3 -30.5t-10.5 -33.5t-20 -27t-31.5 -11q-22 0 -36.5 9.5t-24.5 17.5l-9 -12q7 -7 27 -18t47 -11q23 0 44 7.5t37.5 22t26 34.5t9.5 45
q0 19 -6.5 33t-16.5 22.5t-23 12.5t-25 4q-17 0 -31 -5t-23 -10l-2 2z" />
    <glyph glyph-name="Rcaron" unicode="&#x158;" horiz-adv-x="648" 
d="M245 392l110 306h42q50 0 84 -27.5t34 -83.5q0 -37 -8 -64.5t-20 -48t-27 -34.5t-29 -23q-17 -11 -48 -18t-71 -7h-67zM264 698l-244 -684h-102l-5 -14h307l5 14h-115l131 364h41q43 0 70 -7t42 -19t20.5 -28.5t5.5 -34.5q0 -19 -3.5 -45t-7.5 -52q-5 -27 -8.5 -51
t-3.5 -39q0 -30 9.5 -50.5t26.5 -33t39.5 -18t49.5 -5.5q15 0 29.5 2t19.5 3l-4 13q-4 -2 -12.5 -3.5t-16.5 -1.5q-23 0 -38 16.5t-15 44.5q0 25 4 48t8.5 45.5t8.5 46t4 48.5q0 36 -17 59t-40.5 37t-48.5 20t-41 8l2 3q9 1 31 4t49 10.5t56 19.5t53 30.5t39.5 45.5t15.5 63
q0 43 -20 72.5t-50.5 48t-68 26.5t-72.5 8h-243l-6 -14h115zM277 940h-14l88 -168h38l161 168h-17l-155 -106z" />
    <glyph glyph-name="rcaron" unicode="&#x159;" horiz-adv-x="407" 
d="M113 308l-108 -308h70l72 204q14 39 36 78t46.5 69.5t49.5 50t44 19.5q12 0 20 -6t8 -16t-4.5 -16t-9.5 -11t-9.5 -10.5t-4.5 -16.5q0 -14 9 -21t23 -7q8 0 17 2t17.5 7.5t14 16t5.5 26.5q1 24 -18.5 45t-56.5 21q-26 0 -49 -13.5t-42 -33t-34 -40.5t-25 -36l-2 2
q11 30 20.5 62t14.5 53h-154l-4 -14h87l-16 -54t-17 -53zM118 720h-14l88 -168h38l161 168h-17l-155 -106z" />
    <glyph glyph-name="Sacute" unicode="&#x15a;" horiz-adv-x="593" 
d="M22 197l-70 -198l14 -3q2 12 13 21.5t24 9.5q19 0 38.5 -6t42 -14t50 -14t63.5 -6q69 0 121 20t86.5 51.5t52 70.5t17.5 77q0 49 -25.5 89t-61.5 72l-89 80q-30 27 -54 58.5t-24 74.5q0 29 12 53t33.5 41t51.5 27t66 10q29 0 55.5 -7t46.5 -22.5t32 -40.5t12 -61
q0 -22 -3.5 -36.5t-5.5 -22.5h12l69 191l-15 3q-5 -12 -13 -19t-23 -7q-17 0 -33.5 5.5t-36 12.5t-43 12.5t-54.5 5.5q-44 0 -85.5 -14t-73.5 -39t-51 -60t-19 -77q0 -54 27.5 -96.5t75.5 -85.5l71 -65q29 -27 45.5 -55.5t16.5 -65.5q0 -36 -12.5 -66.5t-36.5 -53t-59 -35
t-79 -12.5q-33 0 -65 9t-58 26t-42 43t-16 60q0 17 4 30.5t9 28.5h-13zM438 911l-138 -139h14l160 94q28 17 35.5 26.5t7.5 20.5q0 13 -8.5 21t-21.5 8t-24 -8.5t-25 -22.5z" />
    <glyph glyph-name="sacute" unicode="&#x15b;" horiz-adv-x="352" 
d="M104 222l50 -66q15 -20 21.5 -36t6.5 -36q0 -13 -7 -28t-20.5 -27t-33 -20t-44.5 -8t-40.5 9.5t-15.5 33.5q0 12 5 22.5t5 22.5q0 9 -7.5 15.5t-16.5 6.5q-22 0 -36.5 -11.5t-14.5 -34.5q0 -19 10 -33.5t26.5 -24t37.5 -14.5t44 -5q26 0 55.5 8.5t55 25.5t42.5 42.5
t17 59.5q0 17 -4.5 33.5t-16.5 31.5l-59 77q-18 24 -28 41.5t-10 37.5q0 15 5.5 30t17 27t29 19t41.5 7q34 0 34 -26q0 -10 -6.5 -16.5t-6.5 -20.5q0 -15 10.5 -23t24.5 -8q41 0 41 42q0 29 -25.5 47.5t-67.5 18.5q-34 0 -63.5 -12t-50.5 -31.5t-33 -43.5t-12 -47
q0 -27 12.5 -46.5t27.5 -39.5zM299 691l-138 -139h14l160 94q28 17 35.5 26.5t7.5 20.5q0 13 -8.5 21t-21.5 8t-24 -8.5t-25 -22.5z" />
    <glyph glyph-name="Scircumflex" unicode="&#x15c;" horiz-adv-x="593" 
d="M22 197l-70 -198l14 -3q2 12 13 21.5t24 9.5q19 0 38.5 -6t42 -14t50 -14t63.5 -6q69 0 121 20t86.5 51.5t52 70.5t17.5 77q0 49 -25.5 89t-61.5 72l-89 80q-30 27 -54 58.5t-24 74.5q0 29 12 53t33.5 41t51.5 27t66 10q29 0 55.5 -7t46.5 -22.5t32 -40.5t12 -61
q0 -22 -3.5 -36.5t-5.5 -22.5h12l69 191l-15 3q-5 -12 -13 -19t-23 -7q-17 0 -33.5 5.5t-36 12.5t-43 12.5t-54.5 5.5q-44 0 -85.5 -14t-73.5 -39t-51 -60t-19 -77q0 -54 27.5 -96.5t75.5 -85.5l71 -65q29 -27 45.5 -55.5t16.5 -65.5q0 -36 -12.5 -66.5t-36.5 -53t-59 -35
t-79 -12.5q-33 0 -65 9t-58 26t-42 43t-16 60q0 17 4 30.5t9 28.5h-13zM443 940l-161 -168h16l155 106l101 -106h14l-88 168h-37z" />
    <glyph glyph-name="scircumflex" unicode="&#x15d;" horiz-adv-x="352" 
d="M104 222l50 -66q15 -20 21.5 -36t6.5 -36q0 -13 -7 -28t-20.5 -27t-33 -20t-44.5 -8t-40.5 9.5t-15.5 33.5q0 12 5 22.5t5 22.5q0 9 -7.5 15.5t-16.5 6.5q-22 0 -36.5 -11.5t-14.5 -34.5q0 -19 10 -33.5t26.5 -24t37.5 -14.5t44 -5q26 0 55.5 8.5t55 25.5t42.5 42.5
t17 59.5q0 17 -4.5 33.5t-16.5 31.5l-59 77q-18 24 -28 41.5t-10 37.5q0 15 5.5 30t17 27t29 19t41.5 7q34 0 34 -26q0 -10 -6.5 -16.5t-6.5 -20.5q0 -15 10.5 -23t24.5 -8q41 0 41 42q0 29 -25.5 47.5t-67.5 18.5q-34 0 -63.5 -12t-50.5 -31.5t-33 -43.5t-12 -47
q0 -27 12.5 -46.5t27.5 -39.5zM219 720l-161 -168h16l155 106l101 -106h14l-88 168h-37z" />
    <glyph glyph-name="Scedilla" unicode="&#x15e;" horiz-adv-x="593" 
d="M22 197l-70 -198l14 -3q2 12 13 21.5t24 9.5q19 0 38.5 -6t42 -14t50 -14t63.5 -6q69 0 121 20t86.5 51.5t52 70.5t17.5 77q0 49 -25.5 89t-61.5 72l-89 80q-30 27 -54 58.5t-24 74.5q0 29 12 53t33.5 41t51.5 27t66 10q29 0 55.5 -7t46.5 -22.5t32 -40.5t12 -61
q0 -22 -3.5 -36.5t-5.5 -22.5h12l69 191l-15 3q-5 -12 -13 -19t-23 -7q-17 0 -33.5 5.5t-36 12.5t-43 12.5t-54.5 5.5q-44 0 -85.5 -14t-73.5 -39t-51 -60t-19 -77q0 -54 27.5 -96.5t75.5 -85.5l71 -65q29 -27 45.5 -55.5t16.5 -65.5q0 -36 -12.5 -66.5t-36.5 -53t-59 -35
t-79 -12.5q-33 0 -65 9t-58 26t-42 43t-16 60q0 17 4 30.5t9 28.5h-13zM245 -3h-20l-80 -78l12 -16q5 4 16.5 8.5t27.5 4.5q37 0 37 -45q0 -13 -3 -30.5t-10.5 -33.5t-20 -27t-31.5 -11q-22 0 -36.5 9.5t-24.5 17.5l-9 -12q7 -7 27 -18t47 -11q23 0 44 7.5t37.5 22t26 34.5
t9.5 45q0 19 -6.5 33t-16.5 22.5t-23 12.5t-25 4q-17 0 -31 -5t-23 -10l-2 2z" />
    <glyph glyph-name="scedilla" unicode="&#x15f;" horiz-adv-x="352" 
d="M104 222l50 -66q15 -20 21.5 -36t6.5 -36q0 -13 -7 -28t-20.5 -27t-33 -20t-44.5 -8t-40.5 9.5t-15.5 33.5q0 12 5 22.5t5 22.5q0 9 -7.5 15.5t-16.5 6.5q-22 0 -36.5 -11.5t-14.5 -34.5q0 -19 10 -33.5t26.5 -24t37.5 -14.5t44 -5q26 0 55.5 8.5t55 25.5t42.5 42.5
t17 59.5q0 17 -4.5 33.5t-16.5 31.5l-59 77q-18 24 -28 41.5t-10 37.5q0 15 5.5 30t17 27t29 19t41.5 7q34 0 34 -26q0 -10 -6.5 -16.5t-6.5 -20.5q0 -15 10.5 -23t24.5 -8q41 0 41 42q0 29 -25.5 47.5t-67.5 18.5q-34 0 -63.5 -12t-50.5 -31.5t-33 -43.5t-12 -47
q0 -27 12.5 -46.5t27.5 -39.5zM123 -3h-20l-80 -78l12 -16q5 4 16.5 8.5t27.5 4.5q37 0 37 -45q0 -13 -3 -30.5t-10.5 -33.5t-20 -27t-31.5 -11q-22 0 -36.5 9.5t-24.5 17.5l-9 -12q7 -7 27 -18t47 -11q23 0 44 7.5t37.5 22t26 34.5t9.5 45q0 19 -6.5 33t-16.5 22.5
t-23 12.5t-25 4q-17 0 -31 -5t-23 -10l-2 2z" />
    <glyph glyph-name="Scaron" unicode="&#x160;" horiz-adv-x="593" 
d="M341 940h-14l88 -168h38l161 168h-17l-155 -106zM22 197l-70 -198l14 -3q2 12 13 21.5t24 9.5q19 0 38.5 -6t42 -14t50 -14t63.5 -6q69 0 121 20t86.5 51.5t52 70.5t17.5 77q0 49 -25.5 89t-61.5 72l-89 80q-30 27 -54 58.5t-24 74.5q0 29 12 53t33.5 41t51.5 27t66 10
q29 0 55.5 -7t46.5 -22.5t32 -40.5t12 -61q0 -22 -3.5 -36.5t-5.5 -22.5h12l69 191l-15 3q-5 -12 -13 -19t-23 -7q-17 0 -33.5 5.5t-36 12.5t-43 12.5t-54.5 5.5q-44 0 -85.5 -14t-73.5 -39t-51 -60t-19 -77q0 -54 27.5 -96.5t75.5 -85.5l71 -65q29 -27 45.5 -55.5
t16.5 -65.5q0 -36 -12.5 -66.5t-36.5 -53t-59 -35t-79 -12.5q-33 0 -65 9t-58 26t-42 43t-16 60q0 17 4 30.5t9 28.5h-13z" />
    <glyph glyph-name="scaron" unicode="&#x161;" horiz-adv-x="352" 
d="M155 720h-14l88 -168h38l161 168h-17l-155 -106zM104 222l50 -66q15 -20 21.5 -36t6.5 -36q0 -13 -7 -28t-20.5 -27t-33 -20t-44.5 -8t-40.5 9.5t-15.5 33.5q0 12 5 22.5t5 22.5q0 9 -7.5 15.5t-16.5 6.5q-22 0 -36.5 -11.5t-14.5 -34.5q0 -19 10 -33.5t26.5 -24
t37.5 -14.5t44 -5q26 0 55.5 8.5t55 25.5t42.5 42.5t17 59.5q0 17 -4.5 33.5t-16.5 31.5l-59 77q-18 24 -28 41.5t-10 37.5q0 15 5.5 30t17 27t29 19t41.5 7q34 0 34 -26q0 -10 -6.5 -16.5t-6.5 -20.5q0 -15 10.5 -23t24.5 -8q41 0 41 42q0 29 -25.5 47.5t-67.5 18.5
q-34 0 -63.5 -12t-50.5 -31.5t-33 -43.5t-12 -47q0 -27 12.5 -46.5t27.5 -39.5z" />
    <glyph glyph-name="Tcedilla" unicode="&#x162;" horiz-adv-x="685" 
d="M411 698l-245 -684h-105l-4 -14h309l4 14h-114l245 684h99q51 0 71.5 -26.5t20.5 -64.5q0 -24 -2 -48t-7 -44h14l70 197h-603l-70 -197h14q9 15 26.5 45.5t43.5 61t60 53.5t75 23h98zM262 -3h-20l-80 -78l12 -16q5 4 16.5 8.5t27.5 4.5q37 0 37 -45q0 -13 -3 -30.5
t-10.5 -33.5t-20 -27t-31.5 -11q-22 0 -36.5 9.5t-24.5 17.5l-9 -12q7 -7 27 -18t47 -11q23 0 44 7.5t37.5 22t26 34.5t9.5 45q0 19 -6.5 33t-16.5 22.5t-23 12.5t-25 4q-17 0 -31 -5t-23 -10l-2 2z" />
    <glyph glyph-name="tcedilla" unicode="&#x163;" horiz-adv-x="296" 
d="M175 527l-36 -98h-90l-4 -14h90l-98 -272q-8 -21 -15.5 -46.5t-7.5 -45.5q0 -26 19 -44.5t57 -18.5q31 0 53.5 12t37.5 28.5t24 33t13 24.5l-12 5q-4 -9 -13 -24t-22 -29.5t-29 -25.5t-34 -11q-17 0 -24.5 9t-7.5 24q0 16 5 32t10 31l114 318h109l4 14h-109l36 98h-70z
M123 -3h-20l-80 -78l12 -16q5 4 16.5 8.5t27.5 4.5q37 0 37 -45q0 -13 -3 -30.5t-10.5 -33.5t-20 -27t-31.5 -11q-22 0 -36.5 9.5t-24.5 17.5l-9 -12q7 -7 27 -18t47 -11q23 0 44 7.5t37.5 22t26 34.5t9.5 45q0 19 -6.5 33t-16.5 22.5t-23 12.5t-25 4q-17 0 -31 -5t-23 -10
l-2 2z" />
    <glyph glyph-name="Tcaron" unicode="&#x164;" horiz-adv-x="685" 
d="M411 698l-245 -684h-105l-4 -14h309l4 14h-114l245 684h99q51 0 71.5 -26.5t20.5 -64.5q0 -24 -2 -48t-7 -44h14l70 197h-603l-70 -197h14q9 15 26.5 45.5t43.5 61t60 53.5t75 23h98zM369 940h-14l88 -168h38l161 168h-17l-155 -106z" />
    <glyph glyph-name="tcaron" unicode="&#x165;" horiz-adv-x="489" 
d="M175 527l-36 -98h-90l-4 -14h90l-98 -272q-8 -21 -15.5 -46.5t-7.5 -45.5q0 -26 19 -44.5t57 -18.5q31 0 53.5 12t37.5 28.5t24 33t13 24.5l-12 5q-4 -9 -13 -24t-22 -29.5t-29 -25.5t-34 -11q-17 0 -24.5 9t-7.5 24q0 16 5 32t10 31l114 318h109l4 14h-109l36 98h-70z
M363 531l4 -13q9 3 32.5 13.5t48 30.5t43.5 50.5t19 73.5q0 32 -18 53t-48 21q-26 0 -39.5 -14.5t-13.5 -38.5q0 -15 10 -28t29 -13q6 0 10 0.5t8 1.5q4 2 6.5 3t4.5 2q5 -13 5 -34q0 -23 -12 -41.5t-28.5 -32t-33.5 -22t-27 -12.5z" />
    <glyph glyph-name="Tbar" unicode="&#x166;" horiz-adv-x="685" 
d="M411 698l-245 -684h-105l-4 -14h309l4 14h-114l245 684h99q51 0 71.5 -26.5t20.5 -64.5q0 -24 -2 -48t-7 -44h14l70 197h-603l-70 -197h14q9 15 26.5 45.5t43.5 61t60 53.5t75 23h98zM173 419h375v31h-375v-31z" />
    <glyph glyph-name="tbar" unicode="&#x167;" horiz-adv-x="296" 
d="M175 527l-36 -98h-90l-4 -14h90l-98 -272q-8 -21 -15.5 -46.5t-7.5 -45.5q0 -26 19 -44.5t57 -18.5q31 0 53.5 12t37.5 28.5t24 33t13 24.5l-12 5q-4 -9 -13 -24t-22 -29.5t-29 -25.5t-34 -11q-17 0 -24.5 9t-7.5 24q0 16 5 32t10 31l114 318h109l4 14h-109l36 98h-70z
M-60 256h375v31h-375v-31z" />
    <glyph glyph-name="Utilde" unicode="&#x168;" horiz-adv-x="741" 
d="M147 712l-4 -14h114l-132 -368q-20 -53 -30.5 -93.5t-10.5 -83.5q0 -27 10 -56.5t34 -53.5t63 -40t96 -16q111 0 179 57.5t107 183.5l147 470h104l4 14h-234l-4 -14h114l-142 -457q-13 -42 -33.5 -84.5t-52 -77.5t-76 -57t-105.5 -22q-32 0 -57 10t-41.5 27.5t-25 40.5
t-8.5 48q0 38 8 70.5t23 74.5l153 427h105l4 14h-309zM369 796h14q2 6 7 14.5t13 16t19 13t24 5.5q14 0 25 -5.5t25 -13.5l26 -14q17 -9 31 -12.5t31 -3.5q25 0 42.5 12.5t29.5 29t18 33.5t8 27h-13q-3 -7 -8.5 -16t-14 -17t-19 -13.5t-22.5 -5.5q-11 0 -20 3t-23 8l-39 21
q-11 5 -23.5 11t-30.5 6q-35 0 -64 -27t-36 -72z" />
    <glyph glyph-name="utilde" unicode="&#x169;" horiz-adv-x="519" 
d="M46 429l-4 -14h89l-98 -277q-5 -16 -12 -36.5t-7 -35.5q0 -38 25 -58t68 -20q27 0 52.5 13.5t48 33t42 42t33.5 40.5l2 -2q-8 -20 -12 -35.5t-4 -32.5q0 -32 19.5 -45.5t52.5 -13.5q30 0 52 12t37 28.5t23.5 33t12.5 24.5l-12 5q-4 -9 -13 -24t-21.5 -29.5t-28 -25.5
t-32.5 -11q-14 0 -21 8.5t-7 20.5q0 14 5 29.5t10 30.5l118 339h-70l-71 -205q-14 -39 -39 -78.5t-55 -71.5t-61.5 -52.5t-58.5 -20.5q-18 0 -25.5 11t-7.5 25q0 8 4 24.5t12 37.5l115 330h-161zM152 576h14q2 6 7 14.5t13 16t19 13t24 5.5q14 0 25 -5.5t25 -13.5l26 -14
q17 -9 31 -12.5t31 -3.5q25 0 42.5 12.5t29.5 29t18 33.5t8 27h-13q-3 -7 -8.5 -16t-14 -17t-19 -13.5t-22.5 -5.5q-11 0 -20 3t-23 8l-39 21q-11 5 -23.5 11t-30.5 6q-35 0 -64 -27t-36 -72z" />
    <glyph glyph-name="Umacron" unicode="&#x16a;" horiz-adv-x="741" 
d="M147 712l-4 -14h114l-132 -368q-20 -53 -30.5 -93.5t-10.5 -83.5q0 -27 10 -56.5t34 -53.5t63 -40t96 -16q111 0 179 57.5t107 183.5l147 470h104l4 14h-234l-4 -14h114l-142 -457q-13 -42 -33.5 -84.5t-52 -77.5t-76 -57t-105.5 -22q-32 0 -57 10t-41.5 27.5t-25 40.5
t-8.5 48q0 38 8 70.5t23 74.5l153 427h105l4 14h-309zM687 852h-281l-12 -30h281z" />
    <glyph glyph-name="umacron" unicode="&#x16b;" horiz-adv-x="519" 
d="M46 429l-4 -14h89l-98 -277q-5 -16 -12 -36.5t-7 -35.5q0 -38 25 -58t68 -20q27 0 52.5 13.5t48 33t42 42t33.5 40.5l2 -2q-8 -20 -12 -35.5t-4 -32.5q0 -32 19.5 -45.5t52.5 -13.5q30 0 52 12t37 28.5t23.5 33t12.5 24.5l-12 5q-4 -9 -13 -24t-21.5 -29.5t-28 -25.5
t-32.5 -11q-14 0 -21 8.5t-7 20.5q0 14 5 29.5t10 30.5l118 339h-70l-71 -205q-14 -39 -39 -78.5t-55 -71.5t-61.5 -52.5t-58.5 -20.5q-18 0 -25.5 11t-7.5 25q0 8 4 24.5t12 37.5l115 330h-161zM449 632h-281l-12 -30h281z" />
    <glyph glyph-name="Ubreve" unicode="&#x16c;" horiz-adv-x="741" 
d="M147 712l-4 -14h114l-132 -368q-20 -53 -30.5 -93.5t-10.5 -83.5q0 -27 10 -56.5t34 -53.5t63 -40t96 -16q111 0 179 57.5t107 183.5l147 470h104l4 14h-234l-4 -14h114l-142 -457q-13 -42 -33.5 -84.5t-52 -77.5t-76 -57t-105.5 -22q-32 0 -57 10t-41.5 27.5t-25 40.5
t-8.5 48q0 38 8 70.5t23 74.5l153 427h105l4 14h-309zM421 933h-14q0 -19 3 -46.5t15 -53.5t36 -44.5t66 -18.5q44 0 73 17.5t47 42.5t28 53t16 50h-14q-9 -19 -21 -37.5t-29 -32.5t-39.5 -22.5t-52.5 -8.5q-31 0 -53 9.5t-35.5 24.5t-19.5 33t-6 34z" />
    <glyph glyph-name="ubreve" unicode="&#x16d;" horiz-adv-x="519" 
d="M46 429l-4 -14h89l-98 -277q-5 -16 -12 -36.5t-7 -35.5q0 -38 25 -58t68 -20q27 0 52.5 13.5t48 33t42 42t33.5 40.5l2 -2q-8 -20 -12 -35.5t-4 -32.5q0 -32 19.5 -45.5t52.5 -13.5q30 0 52 12t37 28.5t23.5 33t12.5 24.5l-12 5q-4 -9 -13 -24t-21.5 -29.5t-28 -25.5
t-32.5 -11q-14 0 -21 8.5t-7 20.5q0 14 5 29.5t10 30.5l118 339h-70l-71 -205q-14 -39 -39 -78.5t-55 -71.5t-61.5 -52.5t-58.5 -20.5q-18 0 -25.5 11t-7.5 25q0 8 4 24.5t12 37.5l115 330h-161zM198 713h-14q0 -19 3 -46.5t15 -53.5t36 -44.5t66 -18.5q44 0 73 17.5
t47 42.5t28 53t16 50h-14q-9 -19 -21 -37.5t-29 -32.5t-39.5 -22.5t-52.5 -8.5q-31 0 -53 9.5t-35.5 24.5t-19.5 33t-6 34z" />
    <glyph glyph-name="Uring" unicode="&#x16e;" horiz-adv-x="741" 
d="M147 712l-4 -14h114l-132 -368q-20 -53 -30.5 -93.5t-10.5 -83.5q0 -27 10 -56.5t34 -53.5t63 -40t96 -16q111 0 179 57.5t107 183.5l147 470h104l4 14h-234l-4 -14h114l-142 -457q-13 -42 -33.5 -84.5t-52 -77.5t-76 -57t-105.5 -22q-32 0 -57 10t-41.5 27.5t-25 40.5
t-8.5 48q0 38 8 70.5t23 74.5l153 427h105l4 14h-309zM615 906q0 -18 -6 -38t-16 -37.5t-23 -29t-28 -11.5q-20 0 -26.5 14t-6.5 36q0 16 6 35.5t15.5 36t22.5 28t27 11.5q20 0 27.5 -12.5t7.5 -32.5zM649 894q0 30 -18.5 49t-44.5 19q-19 0 -39 -10t-36 -26t-26 -36
t-10 -40q0 -12 4 -25t12 -23t20.5 -16.5t29.5 -6.5q20 0 39 10t34.5 26.5t25 37t9.5 41.5z" />
    <glyph glyph-name="uring" unicode="&#x16f;" horiz-adv-x="519" 
d="M46 429l-4 -14h89l-98 -277q-5 -16 -12 -36.5t-7 -35.5q0 -38 25 -58t68 -20q27 0 52.5 13.5t48 33t42 42t33.5 40.5l2 -2q-8 -20 -12 -35.5t-4 -32.5q0 -32 19.5 -45.5t52.5 -13.5q30 0 52 12t37 28.5t23.5 33t12.5 24.5l-12 5q-4 -9 -13 -24t-21.5 -29.5t-28 -25.5
t-32.5 -11q-14 0 -21 8.5t-7 20.5q0 14 5 29.5t10 30.5l118 339h-70l-71 -205q-14 -39 -39 -78.5t-55 -71.5t-61.5 -52.5t-58.5 -20.5q-18 0 -25.5 11t-7.5 25q0 8 4 24.5t12 37.5l115 330h-161zM404 686q0 -18 -6 -38t-16 -37.5t-23 -29t-28 -11.5q-20 0 -26.5 14t-6.5 36
q0 16 6 35.5t15.5 36t22.5 28t27 11.5q20 0 27.5 -12.5t7.5 -32.5zM438 674q0 30 -18.5 49t-44.5 19q-19 0 -39 -10t-36 -26t-26 -36t-10 -40q0 -12 4 -25t12 -23t20.5 -16.5t29.5 -6.5q20 0 39 10t34.5 26.5t25 37t9.5 41.5z" />
    <glyph glyph-name="Uhungarumlaut" unicode="&#x170;" horiz-adv-x="741" 
d="M147 712l-4 -14h114l-132 -368q-20 -53 -30.5 -93.5t-10.5 -83.5q0 -27 10 -56.5t34 -53.5t63 -40t96 -16q111 0 179 57.5t107 183.5l147 470h104l4 14h-234l-4 -14h114l-142 -457q-13 -42 -33.5 -84.5t-52 -77.5t-76 -57t-105.5 -22q-32 0 -57 10t-41.5 27.5t-25 40.5
t-8.5 48q0 38 8 70.5t23 74.5l153 427h105l4 14h-309zM698 911l-138 -139h14l160 94q28 17 35.5 26.5t7.5 20.5q0 13 -8.5 21t-21.5 8t-24 -8.5t-25 -22.5zM510 911l-138 -139h14l160 94q28 17 35.5 26.5t7.5 20.5q0 13 -8.5 21t-21.5 8t-24 -8.5t-25 -22.5z" />
    <glyph glyph-name="uhungarumlaut" unicode="&#x171;" horiz-adv-x="519" 
d="M46 429l-4 -14h89l-98 -277q-5 -16 -12 -36.5t-7 -35.5q0 -38 25 -58t68 -20q27 0 52.5 13.5t48 33t42 42t33.5 40.5l2 -2q-8 -20 -12 -35.5t-4 -32.5q0 -32 19.5 -45.5t52.5 -13.5q30 0 52 12t37 28.5t23.5 33t12.5 24.5l-12 5q-4 -9 -13 -24t-21.5 -29.5t-28 -25.5
t-32.5 -11q-14 0 -21 8.5t-7 20.5q0 14 5 29.5t10 30.5l118 339h-70l-71 -205q-14 -39 -39 -78.5t-55 -71.5t-61.5 -52.5t-58.5 -20.5q-18 0 -25.5 11t-7.5 25q0 8 4 24.5t12 37.5l115 330h-161zM536 691l-138 -139h14l160 94q28 17 35.5 26.5t7.5 20.5q0 13 -8.5 21
t-21.5 8t-24 -8.5t-25 -22.5zM348 691l-138 -139h14l160 94q28 17 35.5 26.5t7.5 20.5q0 13 -8.5 21t-21.5 8t-24 -8.5t-25 -22.5z" />
    <glyph glyph-name="Uogonek" unicode="&#x172;" horiz-adv-x="741" 
d="M147 712l-4 -14h114l-132 -368q-20 -53 -30.5 -93.5t-10.5 -83.5q0 -27 10 -56.5t34 -53.5t63 -40t96 -16q111 0 179 57.5t107 183.5l147 470h104l4 14h-234l-4 -14h114l-142 -457q-13 -42 -33.5 -84.5t-52 -77.5t-76 -57t-105.5 -22q-32 0 -57 10t-41.5 27.5t-25 40.5
t-8.5 48q0 38 8 70.5t23 74.5l153 427h105l4 14h-309zM383 0h-22l-67 -35q-42 -21 -64.5 -44.5t-22.5 -52.5t22 -48t64 -19q19 0 33.5 4t25 9t17.5 10.5t12 8.5l-7 12q-7 -5 -18 -11t-30 -6q-22 0 -36 14t-14 37q0 29 31 59.5t76 61.5z" />
    <glyph glyph-name="uogonek" unicode="&#x173;" horiz-adv-x="519" 
d="M46 429l-4 -14h89l-98 -277q-5 -16 -12 -36.5t-7 -35.5q0 -38 25 -58t68 -20q27 0 52.5 13.5t48 33t42 42t33.5 40.5l2 -2q-8 -20 -12 -35.5t-4 -32.5q0 -32 19.5 -45.5t52.5 -13.5q30 0 52 12t37 28.5t23.5 33t12.5 24.5l-12 5q-4 -9 -13 -24t-21.5 -29.5t-28 -25.5
t-32.5 -11q-14 0 -21 8.5t-7 20.5q0 14 5 29.5t10 30.5l118 339h-70l-71 -205q-14 -39 -39 -78.5t-55 -71.5t-61.5 -52.5t-58.5 -20.5q-18 0 -25.5 11t-7.5 25q0 8 4 24.5t12 37.5l115 330h-161zM159 0h-22l-67 -35q-42 -21 -64.5 -44.5t-22.5 -52.5t22 -48t64 -19
q19 0 33.5 4t25 9t17.5 10.5t12 8.5l-7 12q-7 -5 -18 -11t-30 -6q-22 0 -36 14t-14 37q0 29 31 59.5t76 61.5z" />
    <glyph glyph-name="Wcircumflex" unicode="&#x174;" horiz-adv-x="1037" 
d="M190 698l-8 -711h25l324 482h2l-4 -482h20l478 711h89l4 14h-205l-4 -14h96l-389 -582h-2l6 582h112l4 14h-303l-4 -14h105l-2 -198l-261 -391h-2l6 589h97l4 14h-294l-4 -14h110zM653 940l-161 -168h16l155 106l101 -106h14l-88 168h-37z" />
    <glyph glyph-name="wcircumflex" unicode="&#x175;" horiz-adv-x="741" 
d="M470 439l-9 10q-11 -8 -30.5 -25.5t-33.5 -33.5q0 17 -12.5 33.5t-33.5 18.5q-19 0 -32.5 -7t-13.5 -23q0 -13 5 -23t11.5 -21t11.5 -25.5t5 -37.5q0 -34 -19.5 -67.5t-47.5 -62.5t-59 -54t-53 -43q-1 17 -6.5 36.5t-14.5 43.5q-14 35 -23.5 67t-9.5 70q0 27 10.5 50.5
t24 42t27 32l19.5 19.5l-9 10l-21 -16q-52 -45 -84.5 -91.5t-32.5 -92.5q0 -22 7.5 -46t16.5 -47l21 -58q5 -14 9 -26.5t4 -29.5q0 -32 -12 -47l13 -7q14 26 45 57q15 15 31 26t40 32l51 44q19 19 35 33.5t30 28.5q3 -11 7 -23t10 -32l21 -58q5 -14 9 -26.5t4 -29.5
q0 -30 -12 -45l13 -7q6 11 17.5 25t27.5 30q15 15 31 26t40 32l51 44q24 21 48.5 46.5t43.5 53.5t31 59.5t12 64.5q0 73 -49 73q-19 0 -32.5 -7.5t-13.5 -24.5q0 -13 5 -23t11.5 -21t11.5 -25.5t5 -37.5q0 -34 -19.5 -67.5t-47.5 -62.5t-59 -54t-53 -43q-1 17 -6.5 36.5
t-14.5 43.5q-14 35 -24 67t-10 70q0 27 10.5 51t24 42.5t27.5 32t20 20.5zM460 720l-161 -168h16l155 106l101 -106h14l-88 168h-37z" />
    <glyph glyph-name="Ycircumflex" unicode="&#x176;" horiz-adv-x="648" 
d="M168 14h-112l-4 -14h309l4 14h-115l117 325l318 359h78l4 14h-196l-4 -14h98l-305 -343l-65 343h111l4 14h-308l-4 -14h109l71 -375zM508 940l-161 -168h16l155 106l101 -106h14l-88 168h-37z" />
    <glyph glyph-name="ycircumflex" unicode="&#x177;" horiz-adv-x="463" 
d="M2 314l14 -4q3 13 8.5 33t14.5 39t22 32.5t31 13.5q9 0 17 -9.5t14.5 -37t10.5 -76.5t4 -127q0 -79 -16.5 -154.5t-42 -134t-56 -94.5t-58.5 -36q-15 0 -24.5 7t-9.5 18q0 10 1.5 15.5t3.5 10t3.5 9t1.5 13.5q0 12 -8 18.5t-21 6.5q-17 0 -32 -8.5t-15 -34.5
q0 -32 23.5 -50.5t61.5 -18.5q25 0 48 14t44 37t39.5 53t35.5 62l58 108l182 330q22 39 36 55.5t26 17.5q14 2 14 -13q0 -9 -5.5 -14.5t-5.5 -16.5q0 -18 19 -18q20 0 32 12t12 31q0 15 -9.5 27t-33.5 12q-19 0 -33.5 -7.5t-25.5 -19t-19.5 -26.5t-16.5 -30l-153 -276h-2
q7 32 14.5 79.5t7.5 113.5q0 25 -5.5 54t-18 54t-34 41.5t-53.5 16.5q-27 0 -44.5 -14t-29 -34t-17.5 -42t-10 -38zM307 720l-161 -168h16l155 106l101 -106h14l-88 168h-37z" />
    <glyph glyph-name="Ydieresis" unicode="&#x178;" horiz-adv-x="648" 
d="M540 865q0 -20 13.5 -33.5t33.5 -13.5t33.5 13.5t13.5 33.5t-13.5 33.5t-33.5 13.5t-33.5 -13.5t-13.5 -33.5zM356 865q0 -20 13.5 -33.5t33.5 -13.5t33.5 13.5t13.5 33.5t-13.5 33.5t-33.5 13.5t-33.5 -13.5t-13.5 -33.5zM168 14h-112l-4 -14h309l4 14h-115l117 325
l318 359h78l4 14h-196l-4 -14h98l-305 -343l-65 343h111l4 14h-308l-4 -14h109l71 -375z" />
    <glyph glyph-name="Zacute" unicode="&#x179;" horiz-adv-x="648" 
d="M554 698l-603 -698h535l71 196h-14q-9 -15 -27.5 -45.5t-44.5 -61t-59 -53t-72 -22.5h-273l604 698h-479l-69 -195h14q9 17 27.5 47.5t44.5 60t59.5 51.5t72.5 22h213zM506 911l-138 -139h14l160 94q28 17 35.5 26.5t7.5 20.5q0 13 -8.5 21t-21.5 8t-24 -8.5t-25 -22.5z
" />
    <glyph glyph-name="zacute" unicode="&#x17a;" horiz-adv-x="463" 
d="M298 360l-323 -363l12 -9q10 11 28.5 23.5t45.5 12.5q23 0 41 -2t35 -7l48 -12q27 -6 49.5 -10.5t38.5 -4.5q25 0 47 5.5t38.5 18.5t26.5 34t10 52q0 26 -10.5 41.5t-34.5 15.5q-14 0 -27 -8t-13 -26q0 -20 11.5 -30.5t21.5 -18.5q9 -8 13.5 -14t4.5 -15
q0 -11 -7.5 -19.5t-22.5 -8.5q-23 0 -55 15l-49 24q-34 18 -77.5 25t-75.5 7l310 345l-10 8q-4 -5 -10 -9.5t-16 -4.5q-12 0 -47 1.5t-74.5 3t-75 2.5t-49.5 1q-12 0 -16.5 -4t-7.5 -12q-2 -5 -5 -17l-6.5 -26t-7 -27.5t-6.5 -22.5l14 -3l5 19q4 14 12 20t25 6q8 0 31 -0.5
t51 -1.5t57 -2t50 -2zM299 691l-138 -139h14l160 94q28 17 35.5 26.5t7.5 20.5q0 13 -8.5 21t-21.5 8t-24 -8.5t-25 -22.5z" />
    <glyph glyph-name="Zdotaccent" unicode="&#x17b;" horiz-adv-x="648" 
d="M554 698l-603 -698h535l71 196h-14q-9 -15 -27.5 -45.5t-44.5 -61t-59 -53t-72 -22.5h-273l604 698h-479l-69 -195h14q9 17 27.5 47.5t44.5 60t59.5 51.5t72.5 22h213zM467 885q0 -20 13.5 -33.5t33.5 -13.5t33.5 13.5t13.5 33.5t-13.5 33.5t-33.5 13.5t-33.5 -13.5
t-13.5 -33.5z" />
    <glyph glyph-name="zdotaccent" unicode="&#x17c;" horiz-adv-x="463" 
d="M298 360l-323 -363l12 -9q10 11 28.5 23.5t45.5 12.5q23 0 41 -2t35 -7l48 -12q27 -6 49.5 -10.5t38.5 -4.5q25 0 47 5.5t38.5 18.5t26.5 34t10 52q0 26 -10.5 41.5t-34.5 15.5q-14 0 -27 -8t-13 -26q0 -20 11.5 -30.5t21.5 -18.5q9 -8 13.5 -14t4.5 -15
q0 -11 -7.5 -19.5t-22.5 -8.5q-23 0 -55 15l-49 24q-34 18 -77.5 25t-75.5 7l310 345l-10 8q-4 -5 -10 -9.5t-16 -4.5q-12 0 -47 1.5t-74.5 3t-75 2.5t-49.5 1q-12 0 -16.5 -4t-7.5 -12q-2 -5 -5 -17l-6.5 -26t-7 -27.5t-6.5 -22.5l14 -3l5 19q4 14 12 20t25 6q8 0 31 -0.5
t51 -1.5t57 -2t50 -2zM267 665q0 -20 13.5 -33.5t33.5 -13.5t33.5 13.5t13.5 33.5t-13.5 33.5t-33.5 13.5t-33.5 -13.5t-13.5 -33.5z" />
    <glyph glyph-name="Zcaron" unicode="&#x17d;" horiz-adv-x="648" 
d="M331 940h-14l88 -168h38l161 168h-17l-155 -106zM554 698l-603 -698h535l71 196h-14q-9 -15 -27.5 -45.5t-44.5 -61t-59 -53t-72 -22.5h-273l604 698h-479l-69 -195h14q9 17 27.5 47.5t44.5 60t59.5 51.5t72.5 22h213z" />
    <glyph glyph-name="zcaron" unicode="&#x17e;" horiz-adv-x="463" 
d="M151 720h-14l88 -168h38l161 168h-17l-155 -106zM298 360l-323 -363l12 -9q10 11 28.5 23.5t45.5 12.5q23 0 41 -2t35 -7l48 -12q27 -6 49.5 -10.5t38.5 -4.5q25 0 47 5.5t38.5 18.5t26.5 34t10 52q0 26 -10.5 41.5t-34.5 15.5q-14 0 -27 -8t-13 -26q0 -20 11.5 -30.5
t21.5 -18.5q9 -8 13.5 -14t4.5 -15q0 -11 -7.5 -19.5t-22.5 -8.5q-23 0 -55 15l-49 24q-34 18 -77.5 25t-75.5 7l310 345l-10 8q-4 -5 -10 -9.5t-16 -4.5q-12 0 -47 1.5t-74.5 3t-75 2.5t-49.5 1q-12 0 -16.5 -4t-7.5 -12q-2 -5 -5 -17l-6.5 -26t-7 -27.5t-6.5 -22.5l14 -3
l5 19q4 14 12 20t25 6q8 0 31 -0.5t51 -1.5t57 -2t50 -2z" />
    <glyph glyph-name="florin" unicode="&#x192;" horiz-adv-x="556" 
d="M227 348h-132l-4 -14h130l-163 -447q-26 -70 -57.5 -111.5t-69.5 -41.5q-14 0 -23.5 5t-9.5 16q0 9 4 14.5t8.5 10.5t8.5 11t4 17q0 12 -8.5 20t-25.5 8q-19 0 -30.5 -11t-11.5 -36q0 -11 4 -23t13.5 -22.5t25.5 -17t41 -6.5q30 0 60 19.5t58.5 52t55 75t49.5 89t43 94
t35 88.5l72 196h129l4 14h-127l70 178q21 55 40.5 90.5t38.5 56.5t38 29.5t39 8.5q26 0 35 -9.5t9 -20.5t-4.5 -19.5t-10 -16t-10 -15.5t-4.5 -18q0 -15 10.5 -23.5t27.5 -8.5q27 0 37 17t10 42q0 42 -26.5 64t-75.5 22q-36 0 -74 -21.5t-73.5 -58t-66 -85.5t-51.5 -104z
" />
    <glyph glyph-name="commaturnedmod" unicode="&#x2bb;" 
d="M306 747l-4 13q-9 -3 -32.5 -13.5t-48 -30.5t-43.5 -50.5t-19 -73.5q0 -32 18 -53t48 -21q26 0 39.5 14.5t13.5 38.5q0 15 -10 28t-29 13q-6 0 -10 -0.5t-8 -1.5q-4 -2 -6.5 -3t-4.5 -2q-5 13 -5 34q0 23 12 41.5t28.5 32t33.5 22t27 12.5z" />
    <glyph glyph-name="apostrophemod" unicode="&#x2bc;" 
d="M159 531l4 -13q9 3 32.5 13.5t48 30.5t43.5 50.5t19 73.5q0 32 -18 53t-48 21q-26 0 -39.5 -14.5t-13.5 -38.5q0 -15 10 -28t29 -13q6 0 10 0.5t8 1.5q4 2 6.5 3t4.5 2q5 -13 5 -34q0 -23 -12 -41.5t-28.5 -32t-33.5 -22t-27 -12.5z" />
    <glyph glyph-name="circumflex" unicode="&#x2c6;" 
d="M219 720l-161 -168h16l155 106l101 -106h14l-88 168h-37z" />
    <glyph glyph-name="caron" unicode="&#x2c7;" 
d="M118 720h-14l88 -168h38l161 168h-17l-155 -106z" />
    <glyph glyph-name="breve" unicode="&#x2d8;" 
d="M89 713h-14q0 -19 3 -46.5t15 -53.5t36 -44.5t66 -18.5q44 0 73 17.5t47 42.5t28 53t16 50h-14q-9 -19 -21 -37.5t-29 -32.5t-39.5 -22.5t-52.5 -8.5q-31 0 -53 9.5t-35.5 24.5t-19.5 33t-6 34z" />
    <glyph glyph-name="dotaccent" unicode="&#x2d9;" 
d="M199 665q0 -20 13.5 -33.5t33.5 -13.5t33.5 13.5t13.5 33.5t-13.5 33.5t-33.5 13.5t-33.5 -13.5t-13.5 -33.5z" />
    <glyph glyph-name="ring" unicode="&#x2da;" 
d="M295 686q0 -18 -6 -38t-16 -37.5t-23 -29t-28 -11.5q-20 0 -26.5 14t-6.5 36q0 16 6 35.5t15.5 36t22.5 28t27 11.5q20 0 27.5 -12.5t7.5 -32.5zM329 674q0 30 -18.5 49t-44.5 19q-19 0 -39 -10t-36 -26t-26 -36t-10 -40q0 -12 4 -25t12 -23t20.5 -16.5t29.5 -6.5
q20 0 39 10t34.5 26.5t25 37t9.5 41.5z" />
    <glyph glyph-name="ogonek" unicode="&#x2db;" 
d="M159 0h-22l-67 -35q-42 -21 -64.5 -44.5t-22.5 -52.5t22 -48t64 -19q19 0 33.5 4t25 9t17.5 10.5t12 8.5l-7 12q-7 -5 -18 -11t-30 -6q-22 0 -36 14t-14 37q0 29 31 59.5t76 61.5z" />
    <glyph glyph-name="tilde" unicode="&#x2dc;" 
d="M67 576h14q2 6 7 14.5t13 16t19 13t24 5.5q14 0 25 -5.5t25 -13.5l26 -14q17 -9 31 -12.5t31 -3.5q25 0 42.5 12.5t29.5 29t18 33.5t8 27h-13q-3 -7 -8.5 -16t-14 -17t-19 -13.5t-22.5 -5.5q-11 0 -20 3t-23 8l-39 21q-11 5 -23.5 11t-30.5 6q-35 0 -64 -27t-36 -72z" />
    <glyph glyph-name="hungarumlaut" unicode="&#x2dd;" 
d="M393 691l-138 -139h14l160 94q28 17 35.5 26.5t7.5 20.5q0 13 -8.5 21t-21.5 8t-24 -8.5t-25 -22.5zM205 691l-138 -139h14l160 94q28 17 35.5 26.5t7.5 20.5q0 13 -8.5 21t-21.5 8t-24 -8.5t-25 -22.5z" />
    <glyph glyph-name="gravecmb" unicode="&#x300;" horiz-adv-x="0" 
d="M-174 657l133 -105h15l-99 143q-7 11 -15 19t-22 8q-17 0 -25.5 -9t-8.5 -23q0 -17 22 -33z" />
    <glyph glyph-name="acutecmb" unicode="&#x301;" horiz-adv-x="0" 
d="M24 691l-138 -139h14l160 94q28 17 35.5 26.5t7.5 20.5q0 13 -8.5 21t-21.5 8t-24 -8.5t-25 -22.5z" />
    <glyph glyph-name="circumflexcmb" unicode="&#x302;" horiz-adv-x="0" 
d="M-56 720l-161 -168h16l155 106l101 -106h14l-88 168h-37z" />
    <glyph glyph-name="tildecmb" unicode="&#x303;" horiz-adv-x="0" 
d="M-208 576h14q2 6 7 14.5t13 16t19 13t24 5.5q14 0 25 -5.5t25 -13.5l26 -14q17 -9 31 -12.5t31 -3.5q25 0 42.5 12.5t29.5 29t18 33.5t8 27h-13q-3 -7 -8.5 -16t-14 -17t-19 -13.5t-22.5 -5.5q-11 0 -20 3t-23 8l-39 21q-11 5 -23.5 11t-30.5 6q-35 0 -64 -27t-36 -72z
" />
    <glyph glyph-name="macroncmb" unicode="&#x304;" horiz-adv-x="0" 
d="M99 632h-281l-12 -30h281z" />
    <glyph glyph-name="brevecmb" unicode="&#x306;" horiz-adv-x="0" 
d="M-186 713h-14q0 -19 3 -46.5t15 -53.5t36 -44.5t66 -18.5q44 0 73 17.5t47 42.5t28 53t16 50h-14q-9 -19 -21 -37.5t-29 -32.5t-39.5 -22.5t-52.5 -8.5q-31 0 -53 9.5t-35.5 24.5t-19.5 33t-6 34z" />
    <glyph glyph-name="dotaccentcmb" unicode="&#x307;" horiz-adv-x="0" 
d="M-76 665q0 -20 13.5 -33.5t33.5 -13.5t33.5 13.5t13.5 33.5t-13.5 33.5t-33.5 13.5t-33.5 -13.5t-13.5 -33.5z" />
    <glyph glyph-name="dieresiscmb" unicode="&#x308;" horiz-adv-x="0" 
d="M-5 665q0 -20 13.5 -33.5t33.5 -13.5t33.5 13.5t13.5 33.5t-13.5 33.5t-33.5 13.5t-33.5 -13.5t-13.5 -33.5zM-189 665q0 -20 13.5 -33.5t33.5 -13.5t33.5 13.5t13.5 33.5t-13.5 33.5t-33.5 13.5t-33.5 -13.5t-13.5 -33.5z" />
    <glyph glyph-name="ringcmb" unicode="&#x30a;" horiz-adv-x="0" 
d="M20 686q0 -18 -6 -38t-16 -37.5t-23 -29t-28 -11.5q-20 0 -26.5 14t-6.5 36q0 16 6 35.5t15.5 36t22.5 28t27 11.5q20 0 27.5 -12.5t7.5 -32.5zM54 674q0 30 -18.5 49t-44.5 19q-19 0 -39 -10t-36 -26t-26 -36t-10 -40q0 -12 4 -25t12 -23t20.5 -16.5t29.5 -6.5
q20 0 39 10t34.5 26.5t25 37t9.5 41.5z" />
    <glyph glyph-name="hungarumlautcmb" unicode="&#x30b;" horiz-adv-x="0" 
d="M118 691l-138 -139h14l160 94q28 17 35.5 26.5t7.5 20.5q0 13 -8.5 21t-21.5 8t-24 -8.5t-25 -22.5zM-70 691l-138 -139h14l160 94q28 17 35.5 26.5t7.5 20.5q0 13 -8.5 21t-21.5 8t-24 -8.5t-25 -22.5z" />
    <glyph glyph-name="caroncmb" unicode="&#x30c;" horiz-adv-x="0" 
d="M-157 720h-14l88 -168h38l161 168h-17l-155 -106z" />
    <glyph glyph-name="cedillacmb" unicode="&#x327;" horiz-adv-x="0" 
d="M-152 -3h-20l-80 -78l12 -16q5 4 16.5 8.5t27.5 4.5q37 0 37 -45q0 -13 -3 -30.5t-10.5 -33.5t-20 -27t-31.5 -11q-22 0 -36.5 9.5t-24.5 17.5l-9 -12q7 -7 27 -18t47 -11q23 0 44 7.5t37.5 22t26 34.5t9.5 45q0 19 -6.5 33t-16.5 22.5t-23 12.5t-25 4q-17 0 -31 -5
t-23 -10l-2 2z" />
    <glyph glyph-name="ogonekcmb" unicode="&#x328;" horiz-adv-x="0" 
d="M-116 0h-22l-67 -35q-42 -21 -64.5 -44.5t-22.5 -52.5t22 -48t64 -19q19 0 33.5 4t25 9t17.5 10.5t12 8.5l-7 12q-7 -5 -18 -11t-30 -6q-22 0 -36 14t-14 37q0 29 31 59.5t76 61.5z" />
    <glyph glyph-name="soliduslongoverlaycmb" unicode="&#x338;" horiz-adv-x="0" 
d="M62 730l-431 -738l18 -10l431 738z" />
    <glyph glyph-name="Omegagreek" unicode="&#x3a9;" horiz-adv-x="768" 
d="M330 0l-15 142q-44 15 -66 37q-36 31 -55.5 85t-19.5 126q0 125 63 195q50 56 150 56q96 0 152 -63t56 -189q0 -112 -51 -183q-31 -42 -90 -64l-16 -142h296v163h-17q-5 -19 -10 -31t-12.5 -18.5t-19 -8.5t-29.5 -2h-148v14q77 23 121 57.5t69 93.5q26 61 26 120
q0 76 -40 143q-38 69 -115 107q-73 37 -175 37q-100 0 -175.5 -37.5t-115.5 -106.5q-39 -69 -39 -143q0 -62 25.5 -120t69.5 -94q44 -35 122 -57v-14h-148q-18 0 -29.5 2t-19 8.5t-13 18.5t-10.5 31h-16v-163h295z" />
    <glyph glyph-name="pi" unicode="&#x3c0;" horiz-adv-x="505" 
d="M485 447h-312q-63 0 -84 -10q-23 -10 -46 -44q-22 -34 -37 -86h18q19 33 40 51t61 18h34q-5 -61 -12 -105.5t-17 -72.5q-10 -29 -24.5 -55.5t-33.5 -52.5q-26 -35 -26 -56t15.5 -33.5t37.5 -12.5q31 0 47 22q18 24 32 106q7 42 13.5 105.5t11.5 154.5h103l-13 -141
q-5 -55 -7.5 -91t-2.5 -53q0 -52 26 -77.5t69 -25.5q91 0 108 134h-17q-9 -59 -56 -59q-21 0 -38 15q-16 15 -16 83q0 28 3 67l10 148h113v71z" />
    <glyph glyph-name="zerowidthspace" unicode="&#x200b;" horiz-adv-x="0" 
 />
    <glyph glyph-name="zerowidthnonjoiner" unicode="&#x200c;" horiz-adv-x="0" 
 />
    <glyph glyph-name="zerowidthjoiner" unicode="&#x200d;" horiz-adv-x="0" 
 />
    <glyph glyph-name="lefttorightmark" unicode="&#x200e;" horiz-adv-x="0" 
 />
    <glyph glyph-name="righttoleftmark" unicode="&#x200f;" horiz-adv-x="0" 
 />
    <glyph glyph-name="hyphentwo" unicode="&#x2010;" horiz-adv-x="370" 
d="M68 244l-16 -60h174l16 60h-174z" />
    <glyph glyph-name="nonbreakinghyphen" unicode="&#x2011;" horiz-adv-x="370" 
d="M68 244l-16 -60h174l16 60h-174z" />
    <glyph glyph-name="figuredash" unicode="&#x2012;" horiz-adv-x="500" 
d="M-22 224l-4 -14h499l4 14h-499z" />
    <glyph glyph-name="endash" unicode="&#x2013;" horiz-adv-x="500" 
d="M-22 224l-4 -14h499l4 14h-499z" />
    <glyph glyph-name="emdash" unicode="&#x2014;" horiz-adv-x="1000" 
d="M107 224l-4 -14h740l4 14h-740z" />
    <glyph glyph-name="horizontalbar" unicode="&#x2015;" horiz-adv-x="1000" 
d="M107 224l-4 -14h740l4 14h-740z" />
    <glyph glyph-name="quoteleft" unicode="&#x2018;" 
d="M306 747l-4 13q-9 -3 -32.5 -13.5t-48 -30.5t-43.5 -50.5t-19 -73.5q0 -32 18 -53t48 -21q26 0 39.5 14.5t13.5 38.5q0 15 -10 28t-29 13q-6 0 -10 -0.5t-8 -1.5q-4 -2 -6.5 -3t-4.5 -2q-5 13 -5 34q0 23 12 41.5t28.5 32t33.5 22t27 12.5z" />
    <glyph glyph-name="quoteright" unicode="&#x2019;" 
d="M159 531l4 -13q9 3 32.5 13.5t48 30.5t43.5 50.5t19 73.5q0 32 -18 53t-48 21q-26 0 -39.5 -14.5t-13.5 -38.5q0 -15 10 -28t29 -13q6 0 10 0.5t8 1.5q4 2 6.5 3t4.5 2q5 -13 5 -34q0 -23 -12 -41.5t-28.5 -32t-33.5 -22t-27 -12.5z" />
    <glyph glyph-name="quotesinglbase" unicode="&#x201a;" 
d="M-7 -147l4 -13q8 3 31.5 13.5t48 30.5t43.5 50.5t19 72.5q0 32 -18 53t-48 21q-26 0 -39.5 -14.5t-13.5 -38.5q0 -15 10 -27.5t29 -12.5q6 0 10 0.5t8 1.5q4 2 6.5 3t4.5 2q5 -13 5 -34q0 -24 -12 -42t-28.5 -31.5t-33.5 -22t-26 -12.5z" />
    <glyph glyph-name="quoteleftreversed" unicode="&#x201b;" 
d="M275 447q-13 10 -29 28t-28 42t-18 52.5t0 57.5q4 19 13.5 38t23.5 33t31.5 23t36.5 9q26 0 40 -17t9 -40q-5 -26 -26 -40t-40 -14q-26 0 -38 25q-22 -20 -29 -52q-2 -10 -1.5 -24t7 -31.5t21 -37t39.5 -40.5z" />
    <glyph glyph-name="quotedblleft" unicode="&#x201c;" horiz-adv-x="444" 
d="M323 747l-4 13q-9 -3 -32.5 -13.5t-48 -30.5t-43.5 -50.5t-19 -73.5q0 -32 18 -53t48 -21q26 0 39.5 14.5t13.5 38.5q0 15 -10 28t-29 13q-6 0 -10 -0.5t-8 -1.5q-4 -2 -6.5 -3t-4.5 -2q-5 13 -5 34q0 23 12 41.5t28.5 32t33.5 22t27 12.5zM480 747l-4 13
q-9 -3 -32.5 -13.5t-48 -30.5t-43.5 -50.5t-19 -73.5q0 -32 18 -53t48 -21q26 0 39.5 14.5t13.5 38.5q0 15 -10 28t-29 13q-6 0 -10 -0.5t-8 -1.5q-4 -2 -6.5 -3t-4.5 -2q-5 13 -5 34q0 23 12 41.5t28.5 32t33.5 22t27 12.5z" />
    <glyph glyph-name="quotedblright" unicode="&#x201d;" horiz-adv-x="444" 
d="M176 531l4 -13q9 3 32.5 13.5t48 30.5t43.5 50.5t19 73.5q0 32 -18 53t-48 21q-26 0 -39.5 -14.5t-13.5 -38.5q0 -15 10 -28t29 -13q6 0 10 0.5t8 1.5q4 2 6.5 3t4.5 2q5 -13 5 -34q0 -23 -12 -41.5t-28.5 -32t-33.5 -22t-27 -12.5zM333 531l4 -13q9 3 32.5 13.5t48 30.5
t43.5 50.5t19 73.5q0 32 -18 53t-48 21q-26 0 -39.5 -14.5t-13.5 -38.5q0 -15 10 -28t29 -13q6 0 10 0.5t8 1.5q4 2 6.5 3t4.5 2q5 -13 5 -34q0 -23 -12 -41.5t-28.5 -32t-33.5 -22t-27 -12.5z" />
    <glyph glyph-name="quotedblbase" unicode="&#x201e;" horiz-adv-x="444" 
d="M-5 -147l4 -13q8 3 31.5 13.5t48 30.5t43.5 50.5t19 72.5q0 32 -18 53t-48 21q-26 0 -39.5 -14.5t-13.5 -38.5q0 -15 10 -27.5t29 -12.5q6 0 10 0.5t8 1.5q4 2 6.5 3t4.5 2q5 -13 5 -34q0 -24 -12 -42t-28.5 -31.5t-33.5 -22t-26 -12.5zM151 -147l4 -13q9 3 32.5 13.5
t48 30.5t43.5 50.5t19 72.5q0 32 -18 53t-48 21q-26 0 -39.5 -14.5t-13.5 -38.5q0 -15 10 -27.5t29 -12.5q6 0 10 0.5t8 1.5q4 2 6.5 3t4.5 2q5 -13 5 -34q0 -23 -12 -41.5t-28.5 -32t-33.5 -22t-27 -12.5z" />
    <glyph glyph-name="quotedblleftaltone" unicode="&#x201f;" horiz-adv-x="444" 
d="M266 457q-13 10 -28 27.5t-27.5 40t-18 50t1.5 59.5q2 10 9 26.5t19 32t30.5 26.5t43.5 11q26 0 38.5 -17.5t7.5 -37.5q-5 -24 -23 -38t-40 -14q-17 0 -25.5 9t-12.5 16q-4 -5 -13 -17t-14 -32q-4 -21 0.5 -39.5t14.5 -35.5t22.5 -31t24.5 -26zM452 457q-13 10 -28 27.5
t-27.5 40t-18 50t1.5 59.5q2 10 9 26.5t19 32t30.5 26.5t43.5 11q26 0 38.5 -17.5t7.5 -37.5q-5 -24 -23 -38t-40 -14q-17 0 -25.5 9t-12.5 16q-4 -5 -13 -17t-14 -32q-4 -21 0.5 -39.5t14.5 -35.5t22.5 -31t24.5 -26z" />
    <glyph glyph-name="dagger" unicode="&#x2020;" horiz-adv-x="519" 
d="M168 7l-78 -286h14l92 333q12 45 26 73.5t28 45.5t26.5 25.5t22.5 14.5q-13 11 -21.5 24.5t-8.5 42.5q0 30 6.5 64t14.5 66l10 39h36q43 0 65.5 -5.5t36.5 -11.5q14 -7 23 -12.5t25 -5.5q20 0 31 13t11 32t-11 31t-31 12q-15 0 -25 -6t-24 -13q-14 -8 -38 -14t-67 -6h-28
l11 38q17 56 32 85.5t26 46.5q12 17 19 28t7 30q0 18 -14 26t-28 8q-18 0 -32 -9.5t-14 -33.5q0 -12 2.5 -27t3.5 -37q1 -21 -2 -49t-14 -66l-11 -40h-20q-47 0 -70 6t-37 14q-13 7 -21.5 13t-26.5 6q-21 0 -32 -13.5t-11 -31.5q0 -17 11 -30t31 -13q16 0 26 5.5t23 12.5
q14 6 34.5 11.5t57.5 5.5h31l-11 -40l-24 -76q-12 -39 -34.5 -72.5t-54.5 -47.5q13 -13 21.5 -26.5t8.5 -40.5q0 -23 -6.5 -60t-17.5 -79z" />
    <glyph glyph-name="daggerdbl" unicode="&#x2021;" horiz-adv-x="519" 
d="M290 410l10 39h36q43 0 65.5 -5.5t36.5 -11.5q14 -7 23 -12.5t25 -5.5q20 0 31 13t11 32t-11 31t-31 12q-15 0 -25 -6t-24 -13q-14 -8 -38 -14t-67 -6h-28l11 38q17 56 32 85.5t26 46.5q12 17 19 28t7 30q0 18 -14 26t-28 8q-18 0 -32 -9.5t-14 -33.5q0 -12 2.5 -27
t3.5 -37q1 -21 -2 -49t-14 -66l-11 -40h-20q-47 0 -70 6t-37 14q-13 7 -21.5 13t-26.5 6q-21 0 -32 -13.5t-11 -31.5q0 -17 11 -30t31 -13q16 0 26 5.5t23 12.5q14 6 34.5 11.5t57.5 5.5h31l-11 -40l-24 -76q-12 -39 -34.5 -72.5t-54.5 -47.5q13 -11 21.5 -24.5t8.5 -42.5
q0 -30 -6.5 -64t-14.5 -66l-10 -38h-36q-43 0 -65.5 5.5t-36.5 11.5t-22.5 11.5t-24.5 5.5q-20 0 -31 -12.5t-11 -31.5t11 -31t31 -12q15 0 24.5 6t23.5 13q14 8 38 14t67 6h28l-11 -30q-17 -56 -32 -85.5t-26 -46.5q-12 -17 -19 -28t-7 -30q0 -18 14 -26t28 -8q18 0 32 9.5
t14 33.5q0 12 -2.5 27t-3.5 37q-1 21 2 49t14 66l11 32h20q47 0 70 -6t37 -14q13 -7 21.5 -13t26.5 -6q21 0 32 13.5t11 31.5q0 17 -11 29.5t-31 12.5q-16 0 -26 -5.5t-23 -11.5q-14 -6 -34.5 -11.5t-57.5 -5.5h-31l11 39l24 76q12 39 34.5 72.5t54.5 47.5
q-13 11 -21.5 24.5t-8.5 42.5q0 30 6.5 64t14.5 66z" />
    <glyph glyph-name="bullet" unicode="&#x2022;" horiz-adv-x="500" 
d="M72 356q0 -37 14 -69.5t38 -56.5t56.5 -38t69.5 -14t69.5 14t56.5 38t38 56.5t14 69.5t-14 69.5t-38 56.5t-56.5 38t-69.5 14t-69.5 -14t-56.5 -38t-38 -56.5t-14 -69.5z" />
    <glyph glyph-name="onedotleader" unicode="&#x2024;" horiz-adv-x="326" 
d="M120 34q0 20 13.5 33.5t33.5 13.5t33.5 -13.5t13.5 -33.5t-13.5 -32.5t-33.5 -12.5t-33.5 12.5t-13.5 32.5z" />
    <glyph glyph-name="twodotleader" unicode="&#x2025;" horiz-adv-x="676" 
d="M453 34q0 20 13.5 33.5t33.5 13.5t33.5 -13.5t13.5 -33.5t-13.5 -32.5t-33.5 -12.5t-33.5 12.5t-13.5 32.5zM120 34q0 20 13.5 33.5t33.5 13.5t33.5 -13.5t13.5 -33.5t-13.5 -32.5t-33.5 -12.5t-33.5 12.5t-13.5 32.5z" />
    <glyph glyph-name="ellipsis" unicode="&#x2026;" horiz-adv-x="1000" 
d="M786 34q0 -20 13.5 -33t33.5 -13t33.5 13t13.5 33t-13.5 33.5t-33.5 13.5t-33.5 -13.5t-13.5 -33.5zM453 34q0 -20 13.5 -33t33.5 -13t33.5 13t13.5 33t-13.5 33.5t-33.5 13.5t-33.5 -13.5t-13.5 -33.5zM120 34q0 -20 13.5 -33t33.5 -13t33.5 13t13.5 33t-13.5 33.5
t-33.5 13.5t-33.5 -13.5t-13.5 -33.5z" />
    <glyph glyph-name="perthousand" unicode="&#x2030;" horiz-adv-x="1000" 
d="M344 78q0 33 7 73t22 75t40 58.5t61 23.5q37 0 53 -20t16 -55q0 -6 -2 -25.5t-7.5 -45.5t-14.5 -54.5t-24 -52.5t-35.5 -39.5t-48.5 -15.5q-37 0 -52 23t-15 55zM288 110q0 -63 33 -93t84 -30q46 0 82 20t61 51.5t38 69.5t13 73q0 25 -8 47t-23.5 38.5t-38 26t-51.5 9.5
q-48 0 -83.5 -23t-59 -56t-35.5 -69.5t-12 -63.5zM49 492q0 -63 31 -93.5t86 -30.5q46 0 82 20.5t61 52t38 69.5t13 73q0 22 -6 43.5t-20.5 39t-37.5 28t-57 10.5q-48 0 -83.5 -23t-59 -56t-35.5 -69.5t-12 -63.5zM105 460q0 33 7 73t22 75t40 58.5t61 23.5q37 0 53 -20
t16 -55q0 -6 -2 -25.5t-7.5 -45.5t-14.5 -54.5t-24 -52.5t-35.5 -39.5t-48.5 -15.5q-37 0 -52 23t-15 55zM696 78q0 33 7 73t22 75t40 58.5t61 23.5q37 0 53 -20t16 -55q0 -6 -2 -25.5t-7.5 -45.5t-14.5 -54.5t-24 -52.5t-35.5 -39.5t-48.5 -15.5q-37 0 -52 23t-15 55z
M533 723l-433 -723l17 -11l433 723zM640 110q0 -63 33 -93t84 -30q46 0 82 20t61 51.5t38 69.5t13 73q0 25 -8 47t-23.5 38.5t-38 26t-51.5 9.5q-48 0 -83.5 -23t-59 -56t-35.5 -69.5t-12 -63.5z" />
    <glyph glyph-name="uni2031" unicode="&#x2031;" horiz-adv-x="1377" 
d="M344 78q0 -32 15 -55t52 -23q28 0 48.5 15.5t35.5 39.5t24 52.5t14.5 54.5t7.5 45.5t2 25.5q0 35 -16 55t-53 20q-36 0 -61 -23.5t-40 -58.5t-22 -75t-7 -73zM288 110q0 27 12 63.5t35.5 69.5t59 56t83.5 23q29 0 51.5 -9.5t38 -26t23.5 -38.5t8 -47q0 -35 -13 -73
t-38 -69.5t-61 -51t-82 -19.5q-51 0 -84 29.5t-33 92.5zM49 492q0 27 12 63.5t35.5 69.5t59 56t83.5 23q34 0 57 -10.5t37.5 -28t20.5 -39t6 -43.5q0 -35 -13 -73t-38 -69.5t-61 -52t-82 -20.5q-55 0 -86 30.5t-31 93.5zM105 460q0 -32 15 -55t52 -23q28 0 48.5 15.5
t35.5 39.5t24 52.5t14.5 54.5t7.5 45.5t2 25.5q0 35 -16 55t-53 20q-36 0 -61 -23.5t-40 -58.5t-22 -75t-7 -73zM696 78q0 -32 15 -55t52 -23q28 0 48.5 15.5t35.5 39.5t24 52.5t14.5 54.5t7.5 45.5t2 25.5q0 35 -16 55t-53 20q-36 0 -61 -23.5t-40 -58.5t-22 -75t-7 -73z
M550 712l-433 -722l-17 10l433 723zM640 110q0 27 12 63.5t35.5 69.5t59 56t83.5 23q29 0 51.5 -9.5t38 -26t23.5 -38.5t8 -47q0 -35 -13 -73t-38 -69.5t-61 -51t-82 -19.5q-51 0 -84 29.5t-33 92.5zM1056 79q0 -32 15 -55t52 -23q28 0 48.5 15.5t35.5 39.5t24 52.5
t14.5 54.5t7.5 45.5t2 25.5q0 35 -16 55t-53 20q-36 0 -61 -23.5t-40 -58.5t-22 -75t-7 -73zM1000 111q0 27 12 63.5t35.5 69.5t59 56t83.5 23q29 0 51.5 -9.5t38 -26t23.5 -38.5t8 -47q0 -35 -13 -73t-38 -69.5t-61 -51t-82 -19.5q-51 0 -84 29.5t-33 92.5z" />
    <glyph glyph-name="guilsinglleft" unicode="&#x2039;" 
d="M200 345v14q-28 -2 -59.5 -11.5t-58.5 -27.5t-44.5 -45t-17.5 -65q0 -36 15 -61t34 -40.5t36.5 -23t21.5 -8.5l6 14q-6 3 -16 9t-20 16.5t-17.5 26.5t-7.5 38q0 39 11 68.5t29 50t41 32t47 13.5z" />
    <glyph glyph-name="guilsinglright" unicode="&#x203a;" 
d="M-13 91v-14q27 2 58.5 11.5t58.5 27.5t44.5 45.5t17.5 64.5t-15 61.5t-34 39.5t-36.5 22.5t-21.5 9.5l-6 -14q6 -3 16 -9t20 -16.5t17.5 -26.5t7.5 -38q0 -39 -11 -68.5t-29 -50t-41 -32t-46 -13.5z" />
    <glyph glyph-name="exclamdbl" unicode="&#x203c;" horiz-adv-x="621" 
d="M309 34q0 -20 13.5 -33t33.5 -13t33.5 13t13.5 33t-13.5 33.5t-33.5 13.5t-33.5 -13.5t-13.5 -33.5zM483 677l-90 -499h7l160 455q6 17 10 29.5t4 23.5q0 21 -13.5 30t-30.5 9q-15 0 -28.5 -9.5t-18.5 -38.5zM34 34q0 -20 13.5 -33t33.5 -13t33.5 13t13.5 33t-13.5 33.5
t-33.5 13.5t-33.5 -13.5t-13.5 -33.5zM208 677l-90 -499h7l160 455q6 17 10 29.5t4 23.5q0 21 -13.5 30t-30.5 9q-15 0 -28.5 -9.5t-18.5 -38.5z" />
    <glyph glyph-name="uni2043" unicode="&#x2043;" horiz-adv-x="370" 
d="M68 244l-16 -60h174l16 60h-174z" />
    <glyph glyph-name="fraction" unicode="&#x2044;" horiz-adv-x="148" 
d="M267 712l-431 -721l18 -10l431 721z" />
    <glyph glyph-name="uni2048" unicode="&#x2048;" horiz-adv-x="720" 
d="M50 34q0 -20 13.5 -33t33.5 -13t33.5 13t13.5 33t-13.5 33.5t-33.5 13.5t-33.5 -13.5t-13.5 -33.5zM144 233l-14 -54h13l17 64q6 24 18 43t26.5 34.5t30.5 27.5t31 23l77 57q27 21 43 43.5t24 43.5t10 39t2 30q0 30 -10.5 55.5t-31 44.5t-51 30t-70.5 11
q-37 0 -66.5 -10.5t-50.5 -27t-32.5 -36t-11.5 -37.5q0 -11 8.5 -24.5t26.5 -13.5q23 0 32 11t9 26q0 45 18 71.5t69 26.5q36 0 63.5 -20.5t27.5 -70.5q0 -39 -19 -94t-69 -112l-78 -90q-22 -25 -29.5 -47t-12.5 -44zM404 34q0 -20 13.5 -33t33.5 -13t33.5 13t13.5 33
t-13.5 33.5t-33.5 13.5t-33.5 -13.5t-13.5 -33.5zM578 677l-90 -499h7l160 455q6 17 10 29.5t4 23.5q0 21 -13.5 30t-30.5 9q-15 0 -28.5 -9.5t-18.5 -38.5z" />
    <glyph glyph-name="uni2049" unicode="&#x2049;" horiz-adv-x="750" 
d="M34 34q0 -20 13.5 -33t33.5 -13t33.5 13t13.5 33t-13.5 33.5t-33.5 13.5t-33.5 -13.5t-13.5 -33.5zM208 677l-90 -499h7l160 455q6 17 10 29.5t4 23.5q0 21 -13.5 30t-30.5 9q-15 0 -28.5 -9.5t-18.5 -38.5zM314 34q0 -20 13.5 -33t33.5 -13t33.5 13t13.5 33t-13.5 33.5
t-33.5 13.5t-33.5 -13.5t-13.5 -33.5zM408 233l-14 -54h13l17 64q6 24 18 43t26.5 34.5t30.5 27.5t31 23l77 57q27 21 43 43.5t24 43.5t10 39t2 30q0 30 -10.5 55.5t-31 44.5t-51 30t-70.5 11q-37 0 -66.5 -10.5t-50.5 -27t-32.5 -36t-11.5 -37.5q0 -11 8.5 -24.5
t26.5 -13.5q23 0 32 11t9 26q0 45 18 71.5t69 26.5q36 0 63.5 -20.5t27.5 -70.5q0 -39 -19 -94t-69 -112l-78 -90q-22 -25 -29.5 -47t-12.5 -44z" />
    <glyph glyph-name="uni204B" unicode="&#x204b;" horiz-adv-x="757" 
d="M222 148q-10 -49 -17.5 -103t2 -100.5t44.5 -78.5t109 -35q-37 10 -55 33.5t-21 62.5t5.5 94t23.5 127l117 550h-91zM253 698h-78l3 14h255q25 0 47 -0.5t42.5 -3.5t40.5 -9t40 -16q47 -23 67 -71t7 -108q-7 -33 -23 -63.5t-38 -55t-48.5 -43t-54.5 -28.5
q-46 -16 -84 -19.5t-70 -4.5l-31 -142q-6 -31 -12.5 -63.5t-10.5 -62.5t-5.5 -56.5t1.5 -45.5q4 -23 12.5 -37.5t18 -23t19.5 -11.5t16 -3q19 0 28 10.5t10 18.5q1 3 0.5 10t-1 15t-0.5 16v11q3 14 16 22t33 8q23 0 35 -13t7 -38q-2 -7 -8 -21.5t-21 -29.5t-41 -26t-67 -11
q-13 0 -33.5 2t-44 8t-49 18t-48.5 32q-49 44 -58 110.5t11 160.5z" />
    <glyph glyph-name="Euro" unicode="&#x20ac;" horiz-adv-x="482" 
d="M353 1l50 187h-9l-18 -36t-22.5 -39.5t-27.5 -37.5t-33 -31q-23 -18 -55.5 -31t-61.5 -13q-23 0 -38.5 10t-25.5 26t-14 36.5t-4 41.5q0 17 2.5 40.5t6 48.5t8.5 48.5t10 41.5h227l8 14h-233q3 13 6 24t6 23t7.5 26t10.5 33h265l8 14h-269q6 19 14.5 43.5t20 51t25.5 53
t31 50.5q22 31 46.5 48t64.5 17q67 0 96 -65q9 -22 13.5 -53.5t2.5 -59.5h8l47 175h-12q-16 -21 -38 -21q-11 0 -20 4.5t-17 9.5q-11 7 -30 15.5t-54 8.5q-33 0 -61 -9.5t-51.5 -25t-43 -36t-35.5 -42.5q-14 -19 -40 -60t-49 -104h-59l-8 -14h62q-8 -21 -16 -51t-12 -55h-58
l-7 -14h63q-5 -25 -7.5 -54.5t-2.5 -54.5q0 -41 7 -70.5t16 -49.5t17.5 -30.5t11.5 -13.5q20 -20 44.5 -26.5t53.5 -6.5q22 0 40 5t48 17q13 5 22 8.5t22 3.5q12 0 17 -4t12 -16h12z" />
    <glyph glyph-name="trademark" unicode="&#x2122;" horiz-adv-x="981" 
d="M565 333h-57v-11h126v11h-57v352l128 -368l129 371v-355h-56v-11h171v11h-57v368h57v11h-119l-100 -289l-100 289h-122v-11h57v-368zM226 322h171v11h-57v368h30q10 0 23.5 -1.5t27 -10.5t26.5 -27.5t22 -52.5h9v103h-334v-103h9q9 34 22 52.5t27 27.5t27.5 10.5
t22.5 1.5h30v-368h-56v-11z" />
    <glyph glyph-name="Omega" unicode="&#x2126;" horiz-adv-x="768" 
d="M330 0l-15 142q-44 15 -66 37q-36 31 -55.5 85t-19.5 126q0 125 63 195q50 56 150 56q96 0 152 -63t56 -189q0 -112 -51 -183q-31 -42 -90 -64l-16 -142h296v163h-17q-5 -19 -10 -31t-12.5 -18.5t-19 -8.5t-29.5 -2h-148v14q77 23 121 57.5t69 93.5q26 61 26 120
q0 76 -40 143q-38 69 -115 107q-73 37 -175 37q-100 0 -175.5 -37.5t-115.5 -106.5q-39 -69 -39 -143q0 -62 25.5 -120t69.5 -94q44 -35 122 -57v-14h-148q-18 0 -29.5 2t-19 8.5t-13 18.5t-10.5 31h-16v-163h295z" />
    <glyph glyph-name="partialdiff" unicode="&#x2202;" horiz-adv-x="494" 
d="M454 350q-13 27 -27 41q-21 22 -53.5 37t-72.5 15q-57 0 -113 -29q-30 -15 -58.5 -42t-50 -62t-35 -76.5t-13.5 -85.5q0 -75 45 -118.5t121 -43.5q129 0 214 153q75 137 75 310q1 68 -14.5 114.5t-41 75t-58 41.5t-65.5 14q-61 0 -104.5 -34.5t-81.5 -112.5h23
q26 39 60.5 58.5t86.5 19.5q76 0 122 -48t46 -136q0 -18 -1.5 -40.5t-3.5 -50.5zM445 307q-34 -151 -113 -231q-63 -63 -123 -63q-42 0 -68.5 30t-26.5 85q0 78 31 152q31 76 73 106q43 31 87 31q46 0 83.5 -28t56.5 -82z" />
    <glyph glyph-name="Delta" unicode="&#x2206;" horiz-adv-x="612" 
d="M599 0l-280 677l-306 -677h586zM483 40h-409l215 472z" />
    <glyph glyph-name="product" unicode="&#x220f;" horiz-adv-x="823" 
d="M605 655v-775q0 -42 -18 -59t-61 -17h-17v-18h292v18h-17q-43 0 -61 17t-18 59v720q0 40 18 57.5t61 17.5h17v18h-779v-18h18q43 0 61 -17.5t18 -57.5v-720q0 -42 -18 -59t-61 -17h-18v-18h292v18h-18q-43 0 -61 17t-18 59v775h388z" />
    <glyph glyph-name="summation" unicode="&#x2211;" horiz-adv-x="713" 
d="M662 -214l31 202l-19 4q-12 -51 -30.5 -74.5t-46.5 -32.5q-38 -13 -75 -13h-399l307 412l-274 370h361q54 0 84 -29t38 -96h19l-13 164h-624v-18l327 -433l-327 -438v-18h641z" />
    <glyph glyph-name="minus" unicode="&#x2212;" horiz-adv-x="593" 
d="M13 249v-18h480v18h-480z" />
    <glyph glyph-name="radical" unicode="&#x221a;" horiz-adv-x="549" 
d="M512 913l-127 -794l-198 402l-146 -74l16 -31l97 44l242 -497l152 950h-36z" />
    <glyph glyph-name="infinity" unicode="&#x221e;" horiz-adv-x="713" 
d="M319 326q-38 68 -69 89q-31 22 -74 22q-60 0 -105 -49t-45 -130t49 -130q48 -50 118 -50q53 0 90 26.5t69 87.5q47 -81 74 -104q42 -36 90 -36q66 0 118 58q53 59 53 147q0 92 -54 147q-55 57 -133 57q-68 0 -109 -30q-39 -28 -72 -105zM366 227q37 99 51 124
q20 38 45 55t59 17q53 0 95 -47q43 -46 43 -119q0 -36 -11 -65.5t-29.5 -50t-44.5 -32t-56 -11.5q-22 0 -42 5.5t-38.5 20t-36 39.5t-35.5 64zM305 288q-35 -103 -58 -130q-36 -42 -82 -42q-43 0 -78 39q-34 37 -34 104q0 30 9.5 55t25.5 42.5t38.5 27t47.5 9.5
q45 0 76 -25.5t55 -79.5z" />
    <glyph glyph-name="integral" unicode="&#x222b;" horiz-adv-x="274" 
d="M106 721l-8 -284q0 -93 6 -215q5 -94 12 -165q2 -19 3.5 -33.5t1.5 -23.5q0 -30 -19 -30q-10 0 -25 16q-14 14 -33 14t-31.5 -12.5t-12.5 -34.5q0 -26 16 -42.5t42 -16.5q40 0 65 33q39 50 44 193q4 129 6 200t2 88q0 123 -18 324q-2 26 -3.5 43.5t-1.5 27.5q0 17 6 24
t14 7q9 0 19 -10q20 -17 38 -17q19 0 31.5 13.5t12.5 36.5q0 20 -18 36.5t-43 16.5q-22 0 -45 -16t-36 -49q-10 -24 -16.5 -55t-8.5 -69z" />
    <glyph glyph-name="approxequal" unicode="&#x2248;" horiz-adv-x="549" 
d="M535 507h-21q-5 -45 -30 -68t-62 -23q-18 0 -32 3q-14 4 -33 11t-44 18q-46 20 -81 33t-61 20q-20 7 -43 7q-21 -1 -41.5 -10t-36.5 -26t-25.5 -41t-9.5 -56h21q9 46 32.5 67.5t57.5 21.5t108 -31q54 -22 87.5 -35t46.5 -17q22 -7 49 -7q48 0 82 35t36 98zM535 267h-21
q-5 -45 -30 -68t-62 -23q-21 0 -32 4q-14 4 -33.5 10.5t-43.5 17.5q-94 40 -142 54q-22 6 -44 6q-22 -1 -42 -10t-35.5 -25.5t-25 -41t-9.5 -57.5h21q9 48 32.5 69t57.5 21t108 -31l109 -45q51 -15 74 -15q48 0 82 35.5t36 98.5z" />
    <glyph glyph-name="notequal" unicode="&#x2260;" horiz-adv-x="549" 
d="M12 399v-45h278l-71 -181h-207v-46h189l-102 -257h39l103 257h296v46h-278l70 181h208v45h-190l101 261h-39l-103 -261h-294z" />
    <glyph glyph-name="lessequal" unicode="&#x2264;" horiz-adv-x="549" 
d="M536 120v50l-464 193l464 192v50l-524 -222v-40zM12 -33v-45h525v45h-525z" />
    <glyph glyph-name="greaterequal" unicode="&#x2265;" horiz-adv-x="549" 
d="M12 605v-50l464 -193l-464 -192v-50l524 222v40zM12 -33v-45h525v45h-525z" />
    <glyph glyph-name="lozenge" unicode="&#x25ca;" horiz-adv-x="494" 
d="M268 694h-54l-191 -348l191 -346h54l204 346zM242 647l175 -301l-175 -300l-166 300z" />
    <glyph glyph-name="apple" unicode="&#xf8ff;" horiz-adv-x="790" 
d="M408 588q-16 0 -69 15q-52 15 -89 15q-86 0 -143 -72q-56 -73 -56 -187q0 -124 74 -252q74 -129 150 -129q24 0 66 17q39 16 72 16q32 0 75 -15q44 -16 71 -16q65 0 129 97q21 32 36 63.5t25 61.5q-45 14 -79 63q-35 50 -35 112q0 57 33 103q18 26 57 60q-13 16 -26 28
t-26 22q-47 32 -107 32q-36 0 -87 -17t-71 -17zM561 790q0 4 -0.5 9t-2.5 12q-88 -20 -125.5 -74.5t-38.5 -128.5q32 3 51 8q26 9 55 36q31 32 46 69t15 69z" />
    <glyph glyph-name="controlBS" horiz-adv-x="0" 
 />
    <glyph glyph-name="controlHT" horiz-adv-x="240" 
 />
    <glyph glyph-name="controlCR" horiz-adv-x="240" 
 />
    <glyph glyph-name="controlGS" horiz-adv-x="0" 
 />
    <glyph glyph-name="FL297" horiz-adv-x="0" 
 />
    <glyph glyph-name="dotlessj" 
d="M66 -11q-6 -16 -16.5 -40.5t-25.5 -51.5t-33.5 -53.5t-41 -48t-48 -35t-54.5 -13.5q-14 0 -29 4t-27 13t-20 22.5t-8 31.5t12.5 32t32.5 14q15 0 24 -7t9 -20q0 -16 -6 -24t-6 -24q0 -14 9.5 -21t24.5 -7q52 0 99 131l189 523h-91l4 14h161z" />
    </font>
</defs>
</svg>
